<svg width="260" height="380" viewBox="0 0 260 380" fill="none" xmlns="http://www.w3.org/2000/svg">
<path d="M113.291 309.91L115.248 321.93C115.248 321.93 115.388 327.312 100.432 328.5C100.432 328.5 94.9797 329.479 92.8827 330.807C90.7857 332.135 79.4647 335.279 76.1827 331.575C72.9007 327.871 81.4247 323.539 83.8007 322.769C86.1767 321.999 99.8007 315.081 99.8007 310.608L113.291 309.91Z" fill="#2F2F2F"/>
<path d="M82.8027 150.072C78.1157 154.758 74.7687 180.423 85.2587 243.58C95.7487 306.737 99.0957 312.316 99.0957 312.316C99.0957 312.316 108.469 314.771 114.496 310.084C114.496 310.084 115.836 266.567 110.703 247.373C110.703 247.373 115.256 179.306 114.654 161.899L82.8027 150.072Z" fill="#0D2454"/>
<path d="M152.009 335.663C152.909 340.157 154.809 345.951 152.609 351.643C150.409 357.335 147.815 363.028 147.017 368.321C146.219 373.614 142.122 381.104 131.538 379.606C120.954 378.108 126.044 367.521 129.838 359.332C133.632 351.143 135.63 338.759 135.431 334.664L152.009 335.663Z" fill="#2F2F2F"/>
<path d="M139.968 156.79C142.629 155.917 150.625 184.645 148.806 245.058C148.806 245.058 155.701 271.158 154.462 280.518C153.223 289.878 152.581 328.346 154.462 337.184C154.462 337.184 146.207 344.984 134.769 337.184C134.769 337.184 121.253 271.684 117.094 258.943C112.935 246.202 92.4249 181.484 97.4809 158.869C97.4819 158.869 128.11 160.685 139.968 156.79Z" fill="#0D2454"/>
<path d="M130.496 49.1985L140.636 54.1495C140.636 54.1495 145.851 61.1495 164.346 68.8175C164.346 68.8175 171.846 75.6125 162.427 92.0175C153.008 108.422 144.827 129.708 142.195 142.618C139.563 155.528 145.695 157.972 142.195 161.462C138.695 164.952 89.3149 176.993 77.7949 148.027C78.047 144.723 78.9988 141.512 80.5869 138.605C83.2049 133.894 81.1108 56.5285 93.4998 44.8705C93.5068 44.8705 110.432 41.2805 130.496 49.1985Z" fill="url(#paint0_linear)"/>
<path d="M164.35 68.8174C171.113 72.2414 191.895 99.5524 193.05 105.459C193.05 105.459 193.435 88.6784 197.472 77.3334C197.472 77.3334 202.995 81.7564 208.213 80.7954C208.213 80.7954 212.662 124.248 197.28 127.517C181.898 130.786 154.84 100.226 151.874 89.5074C149.411 80.6124 157.659 65.4294 164.35 68.8174Z" fill="#FFC000"/>
<path d="M93.5068 44.8683C86.5238 45.8683 47.957 69.4464 47.957 69.4464C41.5535 59.0592 34.0859 49.3669 25.675 40.5264C24.7346 42.5681 23.2647 44.3211 21.4185 45.6035C19.5722 46.8858 17.4167 47.6509 15.175 47.8193C15.175 47.8193 28.9638 89.6623 43.5388 89.5063C58.1138 89.3503 90.709 80.2334 94.939 68.2584C99.169 56.2834 97.7118 44.2673 93.5068 44.8683Z" fill="#FFC000"/>
<path d="M25.6759 40.5273C25.6759 40.5273 26.276 29.8583 24.411 26.1273C22.546 22.3963 18.2108 16.8713 16.5728 17.9163C14.9348 18.9613 18.14 26.5743 18.14 26.5743C18.14 26.5743 13.44 21.7223 12.691 19.7073C11.942 17.6923 9.55599 11.4213 7.24299 12.1673C4.92999 12.9133 -1.79 23.3673 0.450999 29.3363C2.692 35.3053 10.2708 46.5983 15.1768 47.8203C15.1758 47.8203 22.9099 48.0613 25.6759 40.5273Z" fill="#FAB4A0"/>
<path d="M199.461 63.2482C199.461 63.2482 202.824 89.5072 213.061 104.658C213.061 104.658 243.93 96.6872 259.003 99.1712C259.003 99.1712 243.926 69.7282 245.084 59.8342C246.242 49.9402 253.484 22.4953 253.484 22.4953C253.484 22.4953 223.241 10.7343 202.83 16.6953C202.823 16.6983 194.384 39.7732 199.461 63.2482Z" fill="url(#paint1_linear)"/>
<path d="M132.688 6.32346C115.522 3.74146 108.535 10.5774 107.015 13.7674C105.495 16.9574 105.8 45.2115 111.574 48.0975C111.574 48.0975 137.245 53.1105 140.131 31.2355C143.017 9.36045 132.688 6.32346 132.688 6.32346Z" fill="#FAB4A0"/>
<path d="M137.742 33.8673C137.742 33.8673 131.657 30.1363 131.415 20.8073C131.415 20.8073 112.189 22.1073 103.266 10.8303C103.266 10.8303 119.651 -7.58471 139.69 3.61029C159.729 14.8053 143.863 43.7563 138.878 41.7373L137.742 33.8673Z" fill="#401B0C"/>
<path d="M139.331 49.1982L138.878 41.7362L138.544 31.0732L110.428 35.6652C110.428 35.6652 117.678 52.5832 116.308 57.9002C116.307 57.8992 127.794 62.4902 139.331 49.1982Z" fill="#FAB4A0"/>
<path d="M139.331 49.1973C140.274 49.8559 141.031 50.7458 141.531 51.7814C142.03 52.817 142.255 53.9636 142.184 55.1113C142.184 55.1113 133.223 66.9713 123.911 68.8163C123.911 68.8163 123.727 61.6822 121.011 58.6592C121.004 58.6602 129.889 57.4263 139.331 49.1973Z" fill="#F2F2F3"/>
<path d="M116.307 57.8986C116.307 57.8986 111.844 60.2556 111.014 63.2476C111.014 63.2476 109.027 54.3745 115.631 50.7075C116.276 53.0463 116.505 55.4805 116.307 57.8986V57.8986Z" fill="#F2F2F3"/>
<path d="M121.008 58.6604L116.308 57.8984C116.308 57.8984 112.657 59.4284 111.598 61.9654L112.351 66.4454L118.568 68.2584L123.68 66.1774C123.68 66.1774 123.447 61.4334 121.008 58.6604Z" fill="white"/>
<path d="M118.568 68.2622C118.568 68.2622 106.894 99.0903 109.226 138.377L103.266 144.477L97.9238 135.687C97.9238 135.687 104.533 89.2402 112.351 66.4492L118.568 68.2622Z" fill="white"/>
<path d="M135.136 33.2632C135.136 33.2632 140.236 25.7632 144.313 31.3772C147.066 35.1652 139.513 41.5772 133.766 40.3772L135.136 33.2632Z" fill="#FAB4A0"/>
<path d="M197.469 77.3341C197.469 77.3341 194.377 65.4051 196.069 62.4491C197.761 59.4931 206.942 52.3161 209.582 54.6371C212.222 56.9581 203.671 62.7661 203.459 64.2431C203.247 65.7201 202.947 80.2981 202.947 80.2981C202.947 80.2981 200.456 80.2901 197.469 77.3341Z" fill="#FAB4A0"/>
<defs>
<linearGradient id="paint0_linear" x1="122.485" y1="44.0586" x2="122.485" y2="166.921" gradientUnits="userSpaceOnUse">
<stop stop-color="#249FFB"/>
<stop offset="1" stop-color="#15C7DB"/>
</linearGradient>
<linearGradient id="paint1_linear" x1="228.419" y1="15.0093" x2="228.419" y2="104.658" gradientUnits="userSpaceOnUse">
<stop offset="0.161" stop-color="#DEE1E2"/>
<stop offset="0.884" stop-color="#D2D2D2"/>
</linearGradient>
</defs>
</svg>
