<svg width="343" height="308" viewBox="0 0 343 308" fill="none" xmlns="http://www.w3.org/2000/svg">
<g clip-path="url(#clip0)">
<path d="M312.504 0H29.5039C12.9354 0 -0.496094 13.4315 -0.496094 30V278C-0.496094 294.569 12.9354 308 29.5039 308H312.504C329.072 308 342.504 294.569 342.504 278V30C342.504 13.4315 329.072 0 312.504 0Z" fill="#ECF7FF"/>
<path opacity="0.2" d="M147.68 173.162L174.262 188.841L186.419 189.893L211.756 203.729L256.356 187.841L317.023 161.717L222.523 106.837L147.68 173.162Z" fill="#92B4D1"/>
<path d="M180.496 69.2609L256.354 113.395L299.966 119.623L224.066 76.3609L180.496 69.2609Z" fill="#084C94"/>
<path d="M256.325 113.396V187.84L264.161 183.411L264.174 181.772L292.048 165.272L293.748 165.902L299.964 162.217V119.617L256.325 113.396Z" fill="#A8CFF0"/>
<path d="M256.349 113.395V187.841L180.496 143.68V69.2609L256.349 113.395Z" fill="#D1EBFF"/>
<path d="M262.376 145.219L295.571 125.277V164.825L293.747 165.905L292.047 165.275L264.174 181.775L264.161 183.414L262.375 184.471L262.376 145.219Z" fill="#F0F8FF"/>
<path d="M292.047 165.274V129.492L264.174 146.237V181.773L292.047 165.274Z" fill="#0BA19F"/>
<g style="mix-blend-mode:multiply">
<path d="M264.174 146.238V181.774L292.047 165.274V129.492L264.174 146.238ZM291.163 164.772L265.051 180.229V146.729L291.163 131.049V164.772Z" fill="#E6E7E8"/>
</g>
<g style="mix-blend-mode:multiply">
<g style="mix-blend-mode:multiply">
<path d="M292.047 132.212V131.291L264.174 148.036V148.712L292.047 132.212Z" fill="#E6E7E8"/>
</g>
<g style="mix-blend-mode:multiply">
<path d="M292.047 135.034V134.113L264.174 150.862V151.538L292.047 135.034Z" fill="#E6E7E8"/>
</g>
<g style="mix-blend-mode:multiply">
<path d="M292.047 137.855V136.934L264.174 153.679V154.355L292.047 137.855Z" fill="#E6E7E8"/>
</g>
<g style="mix-blend-mode:multiply">
<path d="M292.047 140.676V139.754L264.174 156.499V157.174L292.047 140.676Z" fill="#E6E7E8"/>
</g>
<g style="mix-blend-mode:multiply">
<path d="M292.047 143.493V142.572L264.174 159.317V159.993L292.047 143.493Z" fill="#E6E7E8"/>
</g>
<g style="mix-blend-mode:multiply">
<path d="M292.047 146.319V145.397L264.174 162.142V162.818L292.047 146.319Z" fill="#E6E7E8"/>
</g>
<g style="mix-blend-mode:multiply">
<path d="M292.047 149.14V148.214L264.174 164.964V165.64L292.047 149.14Z" fill="#E6E7E8"/>
</g>
<g style="mix-blend-mode:multiply">
<path d="M292.047 151.961V151.039L264.174 167.784V168.46L292.047 151.961Z" fill="#E6E7E8"/>
</g>
<g style="mix-blend-mode:multiply">
<path d="M292.047 154.782V153.86L264.174 170.605V171.281L292.047 154.782Z" fill="#E6E7E8"/>
</g>
<g style="mix-blend-mode:multiply">
<path d="M292.047 157.604V156.683L264.174 173.428V174.104L292.047 157.604Z" fill="#E6E7E8"/>
</g>
<g style="mix-blend-mode:multiply">
<path d="M292.047 160.425V159.503L264.174 176.248V176.924L292.047 160.425Z" fill="#E6E7E8"/>
</g>
<g style="mix-blend-mode:multiply">
<path d="M292.047 163.246V162.324L264.174 179.065V179.741L292.047 163.246Z" fill="#E6E7E8"/>
</g>
</g>
<path d="M206.002 152.941V200.351L128.386 156.051V108.373L206.002 152.941Z" fill="#D1EBFF"/>
<path d="M206.002 153.391L242.402 97.6259L164.786 53.3259L128.386 108.826L206.002 153.391Z" fill="#2672AB"/>
<path d="M206.002 153.39L242.402 97.6249L205.786 152.031L128.386 108.822L206.002 153.39Z" fill="#3F92D1"/>
<path d="M133.817 148.374V117.4L150.392 127.116V158.016L133.817 148.374Z" fill="white"/>
<path d="M148.592 128.147V154.888L135.615 147.338V120.538L148.592 128.147Z" fill="#A8CFF0"/>
<path d="M206.003 200.35V153.395L242.245 97.1519V180.063L206.003 200.35Z" fill="#A8CFF0"/>
<path d="M207.794 94.2319L174.262 113.845V188.845L179.722 185.645V138.195L207.794 94.2319Z" fill="#A8CFF0"/>
<path d="M137.265 146.514L148.592 153.104V128.147L137.265 121.507V146.514Z" fill="#3F92D1"/>
<path opacity="0.3" d="M137.265 146.514L148.592 128.147L137.265 121.507V146.514Z" fill="#72B5E8"/>
<path opacity="0.5" d="M137.264 121.507V146.514L148.591 153.104V128.147L137.264 121.507ZM147.693 151.54L138.164 145.996V123.077L147.693 128.662V151.54Z" fill="#2672AB"/>
<path d="M142.883 124.073L142.265 123.748V152.729L142.883 153.055V124.073Z" fill="white"/>
<path d="M135.314 129.005V129.785L149.029 137.626V136.847L135.314 129.005Z" fill="white"/>
<path d="M135.314 137.303V138.083L149.029 145.924V145.144L135.314 137.303Z" fill="white"/>
<path d="M174.262 113.846V188.846L148.176 173.669V98.5529L174.262 113.846Z" fill="#D1EBFF"/>
<path d="M184.303 177.084V146.111L200.878 155.827V186.727L184.303 177.084Z" fill="white"/>
<path d="M199.079 156.857V183.598L186.102 176.048V149.248L199.079 156.857Z" fill="#A8CFF0"/>
<path d="M152.932 129.257V106.831L169.506 116.547V138.9L152.932 129.257Z" fill="white"/>
<path d="M167.707 117.578V135.772L154.731 128.222V109.971L167.707 117.578Z" fill="#A8CFF0"/>
<path d="M187.751 175.224L199.078 181.814V156.857L187.751 150.217V175.224Z" fill="#3F92D1"/>
<path opacity="0.3" d="M187.751 175.224L199.078 156.857L187.751 150.217V175.224Z" fill="#72B5E8"/>
<path d="M156.38 127.398L167.707 133.988V117.578L156.38 110.938V127.398Z" fill="#3F92D1"/>
<path opacity="0.5" d="M187.75 150.217V175.224L199.079 181.815V156.857L187.75 150.217ZM198.179 180.25L188.65 174.706V151.787L198.179 157.372V180.25Z" fill="#2672AB"/>
<path opacity="0.3" d="M156.38 127.398L167.707 117.578L156.38 110.938V127.398Z" fill="#72B5E8"/>
<path opacity="0.5" d="M156.38 110.937V127.398L167.707 133.989V117.579L156.38 110.937ZM166.809 132.424L157.28 126.88V112.507L166.809 118.092V132.424Z" fill="#2672AB"/>
<path d="M216.025 153.345L235.28 142.327V183.865L216.025 194.809V153.345Z" fill="#F0F8FF"/>
<path d="M217.825 154.376V191.682L233.481 182.83V145.467L217.825 154.376Z" fill="#D1EBFF"/>
<path d="M231.982 182.006V146.344L217.825 154.374V189.983L231.982 182.006Z" fill="#0BA19F"/>
<g style="mix-blend-mode:multiply">
<path d="M217.825 154.375V189.984L231.981 182.005V146.344L217.825 154.375ZM231.081 181.475L218.725 188.444V154.9L231.081 147.89V181.475Z" fill="#E6E7E8"/>
</g>
<path d="M174.262 113.845L207.794 94.2319L181.708 79.0549L148.176 98.5549L174.262 113.845Z" fill="#2672AB"/>
<path d="M174.262 113.845L207.794 94.2319L174.386 112.706L148.176 98.5529L174.262 113.845Z" fill="#3F92D1"/>
<path d="M193.177 152.577L192.559 152.252V181.233L193.177 181.559V152.577Z" fill="white"/>
<path d="M185.612 157.509V158.289L199.327 166.13V165.35L185.612 157.509Z" fill="white"/>
<path d="M185.612 165.807V166.587L199.327 174.427V173.648L185.612 165.807Z" fill="white"/>
<path d="M152.901 165.344V134.371L169.476 144.087V174.987L152.901 165.344Z" fill="white"/>
<path d="M167.677 145.119V171.86L154.701 164.31V137.51L167.677 145.119Z" fill="#A8CFF0"/>
<path d="M156.35 163.49L167.677 170.08V145.119L156.35 138.479V163.49Z" fill="#3F92D1"/>
<path opacity="0.3" d="M156.35 163.49L167.677 145.123L156.35 138.483V163.49Z" fill="#72B5E8"/>
<path opacity="0.5" d="M156.348 138.477V163.489L167.677 170.079V145.119L156.348 138.477ZM166.777 168.51L157.248 162.968V140.047L166.777 145.632V168.51Z" fill="#2672AB"/>
<path d="M161.776 140.835L161.158 140.51V169.491L161.776 169.817V140.835Z" fill="white"/>
<path d="M154.21 145.769V146.549L167.925 154.389V153.609L154.21 145.769Z" fill="white"/>
<path d="M154.21 154.067V154.847L167.925 162.687V161.907L154.21 154.067Z" fill="white"/>
<path d="M211.741 201.543V203.729L247.855 183.237V181.05L211.741 201.543Z" fill="#A8CFF0"/>
<path d="M211.753 201.544V203.73L205.992 200.347V198.173L211.753 201.544Z" fill="#D1EBFF"/>
<path d="M205.992 198.173L211.753 201.543L247.853 181.051L242.231 177.784L205.992 198.173Z" fill="#F0F8FF"/>
<g style="mix-blend-mode:multiply">
<path d="M221.094 168.844C221.076 169.164 220.983 169.475 220.822 169.752C220.661 170.029 220.437 170.265 220.168 170.439C219.658 170.739 219.244 170.499 219.244 169.912C219.262 169.591 219.354 169.279 219.515 169.001C219.675 168.723 219.899 168.487 220.168 168.312C220.678 168.021 221.094 168.258 221.094 168.844Z" fill="#A7A9AC"/>
</g>
<g style="mix-blend-mode:multiply">
<path d="M280.962 167.964C280.945 168.285 280.852 168.597 280.691 168.875C280.53 169.153 280.306 169.389 280.036 169.564C279.526 169.859 279.112 169.622 279.112 169.036C279.13 168.716 279.223 168.405 279.384 168.128C279.544 167.851 279.768 167.616 280.036 167.441C280.547 167.142 280.962 167.381 280.962 167.964Z" fill="#A7A9AC"/>
</g>
<path opacity="0.3" d="M179.723 138.192L207.795 94.2319L187.615 142.711L179.723 138.192Z" fill="#084C94"/>
<path opacity="0.2" d="M205.992 198.173L247.856 181.051L242.234 177.784L205.992 198.173Z" fill="#92B4D1"/>
<path d="M292.047 129.491V165.273L293.747 165.903V128.577L292.047 129.491Z" fill="#D1EBFF"/>
<path d="M161.922 112.298L161.304 111.972V133.364L161.922 133.69V112.298Z" fill="white"/>
<path d="M154.357 118.176V118.956L168.072 126.796V126.017L154.357 118.176Z" fill="white"/>
<path d="M118.039 136.331C117.981 136.331 117.924 136.32 117.871 136.298C117.817 136.276 117.768 136.244 117.727 136.203C117.686 136.162 117.654 136.114 117.632 136.06C117.61 136.007 117.598 135.95 117.598 135.892V134.131C117.595 134.071 117.605 134.012 117.625 133.956C117.646 133.9 117.678 133.849 117.719 133.806C117.76 133.763 117.81 133.729 117.864 133.705C117.919 133.682 117.978 133.67 118.038 133.67C118.097 133.67 118.156 133.682 118.211 133.705C118.266 133.729 118.315 133.763 118.356 133.806C118.397 133.849 118.429 133.9 118.45 133.956C118.471 134.012 118.48 134.071 118.477 134.131V135.892C118.477 135.95 118.466 136.007 118.444 136.06C118.422 136.113 118.39 136.161 118.349 136.202C118.309 136.243 118.26 136.275 118.207 136.297C118.154 136.32 118.097 136.331 118.039 136.331V136.331ZM118.039 131.931C117.981 131.931 117.924 131.92 117.87 131.898C117.816 131.876 117.768 131.843 117.727 131.802C117.686 131.761 117.653 131.713 117.631 131.659C117.609 131.605 117.598 131.548 117.598 131.49V129.729C117.595 129.669 117.605 129.61 117.625 129.554C117.646 129.498 117.678 129.447 117.719 129.404C117.76 129.361 117.81 129.327 117.864 129.303C117.919 129.28 117.978 129.268 118.038 129.268C118.097 129.268 118.156 129.28 118.211 129.303C118.266 129.327 118.315 129.361 118.356 129.404C118.397 129.447 118.429 129.498 118.45 129.554C118.471 129.61 118.48 129.669 118.477 129.729V131.49C118.477 131.606 118.431 131.718 118.349 131.8C118.267 131.882 118.155 131.929 118.039 131.929V131.931ZM118.039 127.531C117.981 127.531 117.924 127.52 117.871 127.498C117.817 127.476 117.768 127.444 117.727 127.403C117.686 127.362 117.654 127.314 117.632 127.26C117.61 127.207 117.598 127.15 117.598 127.092V125.331C117.595 125.271 117.605 125.212 117.625 125.156C117.646 125.1 117.678 125.049 117.719 125.006C117.76 124.963 117.81 124.929 117.864 124.905C117.919 124.882 117.978 124.87 118.038 124.87C118.097 124.87 118.156 124.882 118.211 124.905C118.266 124.929 118.315 124.963 118.356 125.006C118.397 125.049 118.429 125.1 118.45 125.156C118.471 125.212 118.48 125.271 118.477 125.331V127.092C118.476 127.207 118.429 127.318 118.347 127.399C118.265 127.48 118.155 127.526 118.039 127.526V127.531ZM118.039 123.131C117.981 123.131 117.924 123.12 117.87 123.098C117.817 123.075 117.768 123.043 117.727 123.002C117.686 122.961 117.654 122.912 117.631 122.859C117.609 122.805 117.598 122.748 117.598 122.69V120.929C117.595 120.869 117.605 120.81 117.625 120.754C117.646 120.698 117.678 120.647 117.719 120.604C117.76 120.561 117.81 120.527 117.864 120.503C117.919 120.48 117.978 120.468 118.038 120.468C118.097 120.468 118.156 120.48 118.211 120.503C118.266 120.527 118.315 120.561 118.356 120.604C118.397 120.647 118.429 120.698 118.45 120.754C118.471 120.81 118.48 120.869 118.477 120.929V122.69C118.476 122.805 118.429 122.916 118.347 122.997C118.265 123.078 118.155 123.124 118.039 123.125V123.131ZM118.039 118.731C117.981 118.731 117.924 118.72 117.871 118.698C117.817 118.676 117.768 118.644 117.727 118.603C117.686 118.562 117.654 118.514 117.632 118.46C117.61 118.407 117.598 118.35 117.598 118.292V116.531C117.595 116.471 117.605 116.412 117.625 116.356C117.646 116.3 117.678 116.249 117.719 116.206C117.76 116.163 117.81 116.129 117.864 116.105C117.919 116.082 117.978 116.07 118.038 116.07C118.097 116.07 118.156 116.082 118.211 116.105C118.266 116.129 118.315 116.163 118.356 116.206C118.397 116.249 118.429 116.3 118.45 116.356C118.471 116.412 118.48 116.471 118.477 116.531V118.292C118.475 118.407 118.428 118.516 118.346 118.596C118.264 118.677 118.154 118.722 118.039 118.722V118.731ZM118.039 114.331C117.981 114.331 117.924 114.32 117.87 114.298C117.817 114.275 117.768 114.243 117.727 114.202C117.686 114.161 117.654 114.112 117.631 114.059C117.609 114.005 117.598 113.948 117.598 113.89V112.129C117.595 112.069 117.605 112.01 117.625 111.954C117.646 111.898 117.678 111.847 117.719 111.804C117.76 111.761 117.81 111.727 117.864 111.703C117.919 111.68 117.978 111.668 118.038 111.668C118.097 111.668 118.156 111.68 118.211 111.703C118.266 111.727 118.315 111.761 118.356 111.804C118.397 111.847 118.429 111.898 118.45 111.954C118.471 112.01 118.48 112.069 118.477 112.129V113.89C118.475 114.005 118.428 114.114 118.346 114.195C118.264 114.275 118.154 114.32 118.039 114.321V114.331ZM118.039 109.931H118.03C117.914 109.928 117.803 109.88 117.722 109.796C117.642 109.712 117.597 109.599 117.599 109.483C117.611 108.879 117.659 108.276 117.741 107.677C117.758 107.562 117.82 107.458 117.912 107.388C118.005 107.317 118.121 107.286 118.236 107.3C118.294 107.308 118.349 107.327 118.4 107.356C118.45 107.386 118.494 107.425 118.529 107.471C118.564 107.518 118.589 107.571 118.604 107.627C118.618 107.684 118.621 107.742 118.613 107.8C118.535 108.363 118.491 108.931 118.481 109.5C118.475 109.613 118.426 109.719 118.344 109.797C118.263 109.874 118.154 109.918 118.041 109.918L118.039 109.931ZM118.767 105.606C118.721 105.606 118.675 105.598 118.631 105.584C118.52 105.548 118.428 105.469 118.374 105.365C118.321 105.261 118.311 105.14 118.347 105.029C118.535 104.455 118.755 103.892 119.008 103.343C119.032 103.29 119.067 103.243 119.109 103.204C119.151 103.165 119.201 103.134 119.255 103.114C119.31 103.094 119.367 103.085 119.425 103.087C119.483 103.089 119.54 103.103 119.592 103.127C119.645 103.151 119.692 103.185 119.731 103.228C119.77 103.27 119.801 103.32 119.821 103.374C119.841 103.428 119.85 103.486 119.848 103.544C119.846 103.602 119.832 103.658 119.808 103.711C119.57 104.229 119.362 104.76 119.186 105.302C119.155 105.388 119.099 105.462 119.024 105.514C118.949 105.566 118.86 105.594 118.769 105.593L118.767 105.606ZM120.713 101.675C120.634 101.675 120.556 101.653 120.488 101.612C120.42 101.572 120.364 101.513 120.326 101.443C120.289 101.373 120.271 101.295 120.274 101.216C120.277 101.136 120.302 101.059 120.345 100.993L121.312 99.5199C121.344 99.4716 121.385 99.43 121.433 99.3975C121.481 99.365 121.534 99.3423 121.591 99.3306C121.648 99.3189 121.706 99.3184 121.763 99.3293C121.82 99.3402 121.874 99.3621 121.922 99.3939C121.97 99.4257 122.012 99.4667 122.045 99.5145C122.077 99.5624 122.1 99.6162 122.111 99.6728C122.123 99.7295 122.124 99.7878 122.113 99.8447C122.102 99.9015 122.08 99.9556 122.048 100.004L121.081 101.475C121.04 101.534 120.985 101.582 120.921 101.615C120.857 101.647 120.786 101.664 120.714 101.663L120.713 101.675ZM123.128 97.9929C123.049 97.9933 122.97 97.9721 122.902 97.9315C122.833 97.8909 122.777 97.8324 122.739 97.7624C122.702 97.6923 122.684 97.6133 122.687 97.5338C122.691 97.4542 122.716 97.3772 122.76 97.3109L123.725 95.8399C123.791 95.7465 123.89 95.6822 124.003 95.6607C124.115 95.6392 124.231 95.6621 124.327 95.7246C124.423 95.7871 124.49 95.8843 124.516 95.9957C124.541 96.1072 124.522 96.2241 124.463 96.3219L123.497 97.7949C123.455 97.8533 123.4 97.9007 123.336 97.9329C123.272 97.9651 123.201 97.9813 123.129 97.9799L123.128 97.9929ZM125.542 94.3129C125.456 94.3133 125.372 94.2879 125.301 94.2399C125.204 94.176 125.135 94.0759 125.112 93.9617C125.088 93.8475 125.11 93.7285 125.174 93.6309L126.14 92.1579C126.204 92.06 126.305 91.9917 126.419 91.9679C126.534 91.944 126.653 91.9667 126.751 92.0309C126.849 92.0951 126.917 92.1955 126.941 92.3101C126.965 92.4247 126.942 92.544 126.878 92.6419L125.912 94.1149C125.87 94.1734 125.815 94.2209 125.751 94.2531C125.686 94.2854 125.615 94.3014 125.543 94.2999L125.542 94.3129ZM127.956 90.6329C127.877 90.6327 127.799 90.611 127.731 90.5703C127.663 90.5295 127.607 90.4712 127.569 90.4013C127.532 90.3315 127.514 90.2528 127.517 90.1735C127.52 90.0943 127.545 90.0173 127.588 89.9509L128.553 88.4779C128.619 88.3834 128.719 88.3182 128.832 88.2963C128.944 88.2744 129.061 88.2975 129.158 88.3606C129.254 88.4238 129.321 88.522 129.346 88.6343C129.371 88.7466 129.351 88.8642 129.29 88.9619L128.323 90.4329C128.282 90.4913 128.227 90.5388 128.164 90.5712C128.1 90.6036 128.03 90.62 127.958 90.6189L127.956 90.6329ZM130.371 86.9509C130.292 86.9513 130.213 86.9301 130.145 86.8895C130.076 86.8489 130.02 86.7904 129.982 86.7204C129.945 86.6503 129.927 86.5713 129.93 86.4918C129.934 86.4122 129.959 86.3352 130.003 86.2689L130.97 84.7979C131.002 84.7496 131.043 84.708 131.091 84.6755C131.139 84.643 131.192 84.6203 131.249 84.6086C131.306 84.5969 131.364 84.5964 131.421 84.6073C131.478 84.6182 131.532 84.6401 131.58 84.6719C131.628 84.7037 131.67 84.7447 131.703 84.7925C131.735 84.8404 131.758 84.8942 131.769 84.9508C131.781 85.0075 131.782 85.0658 131.771 85.1227C131.76 85.1795 131.738 85.2336 131.706 85.2819L130.739 86.7529C130.698 86.8114 130.643 86.8587 130.579 86.8908C130.515 86.9229 130.444 86.9387 130.372 86.9369L130.371 86.9509ZM132.785 83.2709C132.706 83.2713 132.627 83.2501 132.559 83.2095C132.49 83.1689 132.434 83.1104 132.396 83.0404C132.359 82.9703 132.341 82.8913 132.344 82.8118C132.348 82.7322 132.373 82.6552 132.417 82.5889L133.384 81.1179C133.449 81.0231 133.549 80.9576 133.662 80.9354C133.775 80.9131 133.892 80.936 133.988 80.999C134.084 81.062 134.152 81.1601 134.177 81.2725C134.201 81.3848 134.181 81.5023 134.12 81.5999L133.153 83.0729C133.111 83.1308 133.055 83.1776 132.991 83.2089C132.927 83.2403 132.856 83.2554 132.784 83.2529L132.785 83.2709ZM135.201 79.5909C135.115 79.5916 135.03 79.5661 134.958 79.5179C134.91 79.4862 134.868 79.4452 134.836 79.3974C134.804 79.3496 134.781 79.2959 134.769 79.2393C134.758 79.1828 134.757 79.1245 134.768 79.0678C134.779 79.0111 134.801 78.9571 134.833 78.9089L135.799 77.4359C135.863 77.3383 135.964 77.2702 136.078 77.2466C136.192 77.2229 136.312 77.2457 136.409 77.3099C136.507 77.3741 136.575 77.4744 136.598 77.5888C136.622 77.7032 136.599 77.8223 136.535 77.9199L135.57 79.3929C135.528 79.451 135.473 79.498 135.409 79.5299C135.345 79.5618 135.275 79.5776 135.203 79.5759L135.201 79.5909ZM137.615 75.9109C137.529 75.9107 137.444 75.8853 137.372 75.8379C137.324 75.8062 137.282 75.7652 137.25 75.7174C137.218 75.6696 137.195 75.6159 137.183 75.5593C137.172 75.5028 137.171 75.4445 137.182 75.3878C137.193 75.3311 137.215 75.2771 137.247 75.2289L138.212 73.7559C138.276 73.6583 138.377 73.5902 138.491 73.5666C138.605 73.5429 138.725 73.5657 138.822 73.6299C138.92 73.6941 138.988 73.7944 139.011 73.9088C139.035 74.0232 139.012 74.1423 138.948 74.2399L137.983 75.7109C137.942 75.7691 137.887 75.8163 137.823 75.8485C137.759 75.8808 137.689 75.897 137.617 75.8959L137.615 75.9109ZM140.029 72.2289C139.949 72.2297 139.871 72.2087 139.802 72.1683C139.733 72.1278 139.677 72.0694 139.639 71.9993C139.601 71.9291 139.583 71.85 139.586 71.7703C139.59 71.6906 139.615 71.6133 139.659 71.5469L140.626 70.0759C140.658 70.0276 140.699 69.986 140.747 69.9535C140.795 69.921 140.848 69.8983 140.905 69.8866C140.962 69.8749 141.02 69.8744 141.077 69.8853C141.134 69.8962 141.188 69.9181 141.236 69.9499C141.284 69.9817 141.326 70.0227 141.359 70.0705C141.391 70.1184 141.414 70.1722 141.425 70.2288C141.437 70.2855 141.438 70.3438 141.427 70.4007C141.416 70.4575 141.394 70.5116 141.362 70.5599L140.397 72.0309C140.356 72.0888 140.301 72.1358 140.237 72.1677C140.173 72.1995 140.102 72.2154 140.031 72.2139L140.029 72.2289ZM142.443 68.5489C142.363 68.5497 142.285 68.5287 142.216 68.4883C142.147 68.4478 142.091 68.3894 142.053 68.3193C142.015 68.2491 141.997 68.17 142 68.0903C142.004 68.0106 142.029 67.9333 142.073 67.8669L143.04 66.3959C143.105 66.3011 143.205 66.2356 143.318 66.2134C143.431 66.1911 143.548 66.214 143.644 66.277C143.74 66.34 143.808 66.4381 143.833 66.5505C143.857 66.6628 143.837 66.7803 143.776 66.8779L142.811 68.3509C142.769 68.4084 142.714 68.455 142.651 68.4866C142.587 68.5183 142.517 68.5342 142.446 68.5329L142.443 68.5489ZM144.855 64.8689C144.776 64.8687 144.698 64.847 144.63 64.8063C144.562 64.7655 144.506 64.7072 144.468 64.6373C144.431 64.5675 144.413 64.4888 144.416 64.4095C144.419 64.3303 144.444 64.2533 144.487 64.1869L145.454 62.7139C145.486 62.6656 145.527 62.624 145.575 62.5915C145.623 62.559 145.676 62.5363 145.733 62.5246C145.79 62.5129 145.848 62.5124 145.905 62.5233C145.962 62.5342 146.016 62.5561 146.064 62.5879C146.112 62.6197 146.154 62.6607 146.187 62.7085C146.219 62.7564 146.242 62.8102 146.253 62.8668C146.265 62.9235 146.266 62.9818 146.255 63.0387C146.244 63.0955 146.222 63.1496 146.19 63.1979L145.225 64.6689C145.183 64.7268 145.128 64.7737 145.064 64.8058C145 64.8378 144.93 64.854 144.858 64.8529L144.855 64.8689ZM147.271 61.1889C147.185 61.1884 147.1 61.1631 147.028 61.1159C146.931 61.0517 146.863 60.9514 146.84 60.8373C146.816 60.7231 146.839 60.6043 146.903 60.5069L147.639 59.3829C147.671 59.3345 147.712 59.2928 147.759 59.2602C147.807 59.2276 147.861 59.2048 147.917 59.1929C147.974 59.1811 148.032 59.1805 148.089 59.1912C148.146 59.2019 148.2 59.2238 148.249 59.2554C148.297 59.2871 148.339 59.3279 148.371 59.3757C148.404 59.4234 148.427 59.4772 148.439 59.5337C148.45 59.5903 148.451 59.6487 148.44 59.7055C148.43 59.7624 148.408 59.8165 148.376 59.8649L147.639 60.9889C147.598 61.0464 147.543 61.0931 147.48 61.125C147.416 61.1568 147.346 61.1729 147.275 61.1719L147.271 61.1889Z" fill="#EB4680"/>
<path d="M121.41 90.5469C121.33 90.5477 121.252 90.5267 121.183 90.4862C121.115 90.4456 121.058 90.3871 121.02 90.3169C120.982 90.2468 120.964 90.1676 120.968 90.0879C120.972 90.0083 120.998 89.9312 121.042 89.8649L138.542 63.1799C138.606 63.0821 138.707 63.0137 138.821 62.9899C138.936 62.9661 139.055 62.9887 139.153 63.0529C139.251 63.1171 139.319 63.2175 139.343 63.3321C139.367 63.4467 139.344 63.5661 139.28 63.6639L121.774 90.3489C121.734 90.4093 121.68 90.459 121.617 90.4936C121.553 90.5281 121.482 90.5464 121.41 90.5469V90.5469Z" fill="#A8CFF0"/>
<path d="M314.028 160.226C309.494 157.608 302.163 157.61 297.658 160.226C293.153 162.842 293.174 167.089 297.707 169.707C302.24 172.325 309.576 172.325 314.081 169.707C318.586 167.089 318.565 162.844 314.028 160.223" fill="#E2E8F6"/>
<path d="M310.283 116.598L300.424 146.66L310.283 155.937L320.142 146.66L310.283 116.598Z" fill="#A5C86A"/>
<path d="M310.283 164.879V135.847" stroke="#38231B" stroke-width="0.566" stroke-miterlimit="10"/>
<path d="M310.283 151.636L313.697 145.898" stroke="#38231B" stroke-width="0.566" stroke-miterlimit="10"/>
<path d="M310.283 146.049L306.869 141.693" stroke="#38231B" stroke-width="0.566" stroke-miterlimit="10"/>
<path d="M310.283 139.868L313.185 136.268" stroke="#38231B" stroke-width="0.566" stroke-miterlimit="10"/>
<path d="M307.39 217.415C302.856 214.797 295.526 214.8 291.021 217.415C286.516 220.03 286.536 224.278 291.07 226.896C295.604 229.514 302.939 229.514 307.443 226.896C311.947 224.278 311.928 220.033 307.39 217.412" fill="#E2E8F6"/>
<path d="M301.328 213.788C306.247 213.788 310.235 204.749 310.235 193.599C310.235 182.449 306.247 173.41 301.328 173.41C296.409 173.41 292.421 182.449 292.421 193.599C292.421 204.749 296.409 213.788 301.328 213.788Z" fill="#A5C86A"/>
<path d="M301.328 224.01V188.749" stroke="#38231B" stroke-width="0.647" stroke-miterlimit="10"/>
<path d="M301.328 194.904L304.507 189.246" stroke="#38231B" stroke-width="0.647" stroke-miterlimit="10"/>
<path d="M301.328 202.485L296.869 196.893" stroke="#38231B" stroke-width="0.647" stroke-miterlimit="10"/>
<path d="M301.328 209.408L305.682 202.485" stroke="#38231B" stroke-width="0.647" stroke-miterlimit="10"/>
<path d="M283.864 249.183C279.33 246.565 272 246.568 267.495 249.183C262.99 251.798 263.01 256.046 267.544 258.664C272.078 261.282 279.413 261.282 283.917 258.664C288.421 256.046 288.402 251.801 283.864 249.18" fill="#E2E8F6"/>
<path d="M277.875 246.497C282.794 246.497 286.782 237.458 286.782 226.308C286.782 215.158 282.794 206.119 277.875 206.119C272.956 206.119 268.968 215.158 268.968 226.308C268.968 237.458 272.956 246.497 277.875 246.497Z" fill="#A5C86A"/>
<path d="M277.875 256.719V221.458" stroke="#38231B" stroke-width="0.647" stroke-miterlimit="10"/>
<path d="M277.875 227.613L281.054 221.955" stroke="#38231B" stroke-width="0.647" stroke-miterlimit="10"/>
<path d="M277.875 235.194L273.416 229.602" stroke="#38231B" stroke-width="0.647" stroke-miterlimit="10"/>
<path d="M277.875 242.117L282.229 235.194" stroke="#38231B" stroke-width="0.647" stroke-miterlimit="10"/>
<path d="M167.548 257.437L146.778 245.446C145.326 244.71 143.72 244.326 142.092 244.326C140.464 244.326 138.858 244.71 137.406 245.446L100.029 267.167C97.46 268.66 97.474 271.103 100.06 272.596L120.83 284.587C122.283 285.324 123.889 285.707 125.517 285.707C127.146 285.707 128.752 285.324 130.205 284.587L167.583 262.866C170.151 261.374 170.137 258.93 167.549 257.435" fill="#E2E8F6"/>
<path d="M155.146 263.806C155.182 263.186 155.302 262.573 155.502 261.985L155.511 261.959C155.852 260.943 156.369 259.995 157.039 259.159C157.621 258.4 158.356 257.772 159.198 257.318C159.78 256.987 160.455 256.858 161.118 256.952L161.156 256.959C161.2 256.969 161.242 256.979 161.284 256.991H161.292H161.301C161.361 257.008 161.418 257.029 161.475 257.052L161.524 257.074C161.573 257.095 161.624 257.117 161.666 257.143L161.712 257.167L158.206 255.129L158.185 255.117L158.16 255.104C158.114 255.08 158.067 255.056 158.018 255.035L157.992 255.021L157.969 255.014C156.512 254.426 154.912 255.607 153.969 256.614C153.343 257.287 152.822 258.052 152.425 258.881L152.411 258.91C151.957 259.821 151.693 260.815 151.636 261.831C151.636 261.902 151.636 261.972 151.636 262.043C151.589 262.517 151.668 262.994 151.865 263.427C152.062 263.861 152.37 264.234 152.758 264.51L156.264 266.547C155.875 266.272 155.567 265.899 155.37 265.465C155.173 265.032 155.094 264.554 155.142 264.08C155.138 263.991 155.141 263.898 155.146 263.806Z" fill="#29141B"/>
<path d="M134.816 274.939C134.852 274.319 134.972 273.706 135.173 273.118L135.181 273.092C135.523 272.076 136.04 271.129 136.71 270.292C137.292 269.534 138.027 268.907 138.868 268.452C139.45 268.121 140.126 267.992 140.789 268.085L140.827 268.093C140.87 268.102 140.913 268.113 140.955 268.125H140.963H140.972C141.032 268.143 141.089 268.164 141.146 268.187L141.195 268.208C141.244 268.229 141.295 268.252 141.337 268.278L141.383 268.302L137.877 266.264L137.855 266.251L137.831 266.239C137.785 266.214 137.738 266.19 137.689 266.169L137.663 266.156L137.64 266.148C136.183 265.561 134.583 266.741 133.64 267.748C133.013 268.421 132.492 269.185 132.096 270.015L132.082 270.044C131.627 270.955 131.363 271.949 131.306 272.965C131.306 273.036 131.306 273.106 131.306 273.176C131.258 273.65 131.336 274.128 131.533 274.562C131.731 274.995 132.039 275.369 132.428 275.644L135.934 277.682C135.546 277.406 135.237 277.033 135.04 276.599C134.843 276.166 134.764 275.688 134.811 275.214C134.809 275.124 134.812 275.032 134.816 274.939Z" fill="#29141B"/>
<path d="M138.645 268.577C140.77 267.35 142.498 268.334 142.505 270.777C142.435 272.108 142.051 273.404 141.384 274.558C140.718 275.712 139.788 276.693 138.67 277.419C136.545 278.645 134.817 277.661 134.81 275.219C134.88 273.888 135.264 272.592 135.931 271.438C136.597 270.284 137.527 269.303 138.645 268.577Z" fill="#543529"/>
<path d="M138.831 270.633C138.228 271.025 137.727 271.554 137.367 272.177C137.008 272.8 136.801 273.499 136.763 274.217C136.763 275.534 137.699 276.066 138.845 275.403C139.448 275.011 139.95 274.482 140.309 273.86C140.669 273.237 140.876 272.538 140.914 271.82C140.914 270.503 139.977 269.971 138.831 270.633" fill="white"/>
<path d="M138.385 274.434C138.274 274.435 138.164 274.407 138.067 274.352C137.947 274.27 137.851 274.158 137.789 274.027C137.726 273.895 137.701 273.75 137.714 273.605C137.734 273.235 137.841 272.875 138.026 272.554C138.211 272.232 138.47 271.96 138.78 271.757C138.894 271.662 139.034 271.603 139.182 271.59C139.33 271.577 139.478 271.609 139.607 271.683C139.736 271.757 139.84 271.868 139.903 272.002C139.967 272.136 139.988 272.286 139.964 272.433C139.944 272.803 139.837 273.164 139.652 273.485C139.467 273.806 139.208 274.079 138.897 274.281C138.743 274.376 138.566 274.429 138.385 274.434ZM139.285 271.823C139.143 271.829 139.005 271.872 138.885 271.948C138.607 272.13 138.375 272.374 138.209 272.662C138.043 272.95 137.947 273.273 137.929 273.605C137.917 273.711 137.933 273.818 137.976 273.915C138.018 274.013 138.086 274.098 138.171 274.161C138.27 274.203 138.379 274.219 138.486 274.207C138.593 274.194 138.695 274.154 138.782 274.09C139.061 273.909 139.293 273.664 139.459 273.377C139.625 273.089 139.721 272.766 139.738 272.434C139.75 272.328 139.734 272.221 139.692 272.123C139.649 272.025 139.582 271.94 139.496 271.876C139.433 271.841 139.362 271.823 139.29 271.823H139.285Z" fill="#FFECCF"/>
<path d="M138.921 272.197C138.88 272.224 138.845 272.26 138.82 272.303C138.795 272.346 138.781 272.394 138.778 272.443C138.778 272.534 138.843 272.571 138.922 272.525C138.964 272.498 138.998 272.461 139.023 272.419C139.047 272.376 139.062 272.327 139.064 272.278C139.064 272.188 139 272.15 138.921 272.197" fill="#FFECCF"/>
<path d="M138.921 273.464C138.88 273.491 138.845 273.527 138.82 273.57C138.795 273.613 138.781 273.661 138.778 273.71C138.778 273.801 138.843 273.838 138.922 273.792C138.964 273.765 138.998 273.728 139.023 273.686C139.047 273.643 139.062 273.594 139.064 273.545C139.064 273.454 139 273.417 138.921 273.464" fill="#FFECCF"/>
<path d="M138.232 273.326C138.191 273.353 138.156 273.39 138.131 273.433C138.106 273.475 138.092 273.524 138.089 273.573C138.089 273.663 138.154 273.701 138.233 273.655C138.275 273.628 138.309 273.591 138.334 273.549C138.359 273.506 138.373 273.458 138.376 273.408C138.376 273.317 138.311 273.28 138.232 273.326Z" fill="#FFECCF"/>
<path d="M139.444 272.426C139.403 272.453 139.368 272.49 139.343 272.532C139.319 272.575 139.305 272.624 139.302 272.673C139.302 272.764 139.366 272.801 139.445 272.754C139.487 272.727 139.521 272.691 139.546 272.648C139.571 272.605 139.585 272.557 139.588 272.508C139.588 272.417 139.523 272.38 139.444 272.426" fill="#FFECCF"/>
<path d="M138.766 271C139.912 270.338 140.844 270.869 140.848 272.186C140.848 272.326 140.838 272.466 140.818 272.604C140.882 272.348 140.916 272.085 140.918 271.821C140.918 270.504 139.981 269.972 138.835 270.634C138.292 270.989 137.831 271.455 137.479 272C137.128 272.545 136.895 273.158 136.796 273.799C137.071 272.648 137.776 271.647 138.766 271V271Z" fill="#FFECCF"/>
<path d="M159.792 250.451L140.153 239.038L145.158 237.889L164.797 249.302L159.792 250.451Z" fill="#A5C86A"/>
<path d="M138.027 255.525L118.391 244.11L136.88 233.436L156.519 244.849L138.027 255.525Z" fill="#ADCE8C"/>
<path d="M131.999 265.561L112.36 254.148L118.388 244.11L138.025 255.523L131.999 265.561Z" fill="#94A54E"/>
<path d="M123.07 279.549L103.431 268.136L103.414 262.274L123.053 273.687L123.07 279.549Z" fill="#94A54E"/>
<path d="M123.054 273.686L103.415 262.274L112.359 254.148L131.998 265.561L123.054 273.686Z" fill="#A5C86A"/>
<path d="M159.792 250.451L156.516 244.851L138.027 255.525L132 265.561L123.056 273.687L123.072 279.55L133.051 273.789C133.296 272.621 133.77 271.514 134.446 270.531C135.123 269.548 135.988 268.709 136.991 268.064C137.585 267.695 138.266 267.491 138.964 267.47C139.465 267.46 139.956 267.605 140.371 267.885C140.786 268.166 141.103 268.568 141.28 269.037L154.218 261.567C154.858 259.613 156.155 257.94 157.889 256.835C158.483 256.467 159.164 256.262 159.862 256.241C160.239 256.231 160.613 256.311 160.952 256.475C161.292 256.638 161.588 256.88 161.815 257.181L163.887 255.981L164.799 249.298L159.792 250.451Z" fill="#75814A"/>
<path d="M140.726 255.836L138.633 257.044L133.597 265.644L138.814 262.554L140.727 255.834" fill="#29141B"/>
<path d="M151.535 249.594L141.678 255.285L139.765 262.005L151.551 255.205L151.535 249.599" fill="#29141B"/>
<path d="M156.424 246.772L152.248 249.183L152.264 254.789L158.75 251.044L156.423 246.772" fill="#29141B"/>
<path d="M118.371 271.955L107.324 265.577V265.712L118.371 272.09V271.955Z" fill="#29141B"/>
<path d="M118.371 272.502L107.324 266.124V266.257L118.371 272.635V272.502Z" fill="#29141B"/>
<path d="M118.371 273.048L107.324 266.67V266.803L118.371 273.181V273.047" fill="#29141B"/>
<path d="M118.371 273.595L107.324 267.217V267.351L118.371 273.729V273.596" fill="#29141B"/>
<path d="M118.371 274.141L107.324 267.763V267.896L118.371 274.274V274.141Z" fill="#29141B"/>
<path d="M118.371 274.687L107.324 268.309V268.442L118.371 274.82V274.686" fill="#29141B"/>
<path d="M118.371 275.234L107.324 268.856V268.99L118.371 275.368V275.235" fill="#29141B"/>
<path d="M118.371 275.78L107.324 269.402V269.535L118.371 275.913V275.779" fill="#29141B"/>
<path d="M120.746 274.29C120.113 273.924 119.598 274.219 119.596 274.946C119.617 275.343 119.731 275.729 119.93 276.073C120.129 276.417 120.406 276.709 120.739 276.925C121.372 277.291 121.887 276.997 121.889 276.27C121.868 275.873 121.754 275.487 121.555 275.143C121.356 274.799 121.079 274.507 120.746 274.29" fill="white"/>
<path d="M105.066 264.956C104.433 264.59 103.918 264.884 103.915 265.611C103.936 266.008 104.05 266.394 104.249 266.738C104.448 267.082 104.725 267.374 105.058 267.591C105.691 267.957 106.206 267.662 106.208 266.935C106.187 266.538 106.073 266.152 105.875 265.808C105.676 265.464 105.399 265.172 105.066 264.956Z" fill="white"/>
<g style="mix-blend-mode:soft-light">
<path d="M138.813 262.555L138.94 262.11L138.286 262.867L138.813 262.555ZM151.534 249.594L147.963 251.656L140.126 260.734L139.764 262.004L142.616 260.358L151.535 250.026L151.534 249.594ZM147.384 257.606L149.543 256.36L151.543 254.038V252.788L147.384 257.606ZM156.545 246.995L152.256 251.964V253.214L156.956 247.765L156.545 246.995ZM152.245 249.183V249.202L152.278 249.164L152.245 249.183Z" fill="white"/>
</g>
<path d="M113.203 253.808L118.448 245.508L137.024 255.78L131.779 264.686L113.203 253.808Z" fill="#29141B"/>
<path d="M134.944 265.44V268.515C135.879 267.578 137.044 266.903 138.322 266.558C138.961 266.389 139.639 266.46 140.229 266.758C140.818 267.056 141.279 267.559 141.522 268.173L151.767 262.335V256.047L134.944 265.44Z" fill="#94A54E"/>
<path d="M152.284 255.802V262.054L153.937 261.173C153.937 261.173 154.901 256.766 159.115 255.803V251.728L152.284 255.802Z" fill="#94A54E"/>
<path d="M158.973 257.443C161.098 256.217 162.826 257.201 162.833 259.643C162.763 260.974 162.379 262.27 161.713 263.424C161.046 264.579 160.116 265.559 158.998 266.285C156.873 267.512 155.145 266.527 155.139 264.085C155.209 262.754 155.593 261.459 156.26 260.304C156.926 259.15 157.856 258.169 158.973 257.443V257.443Z" fill="#543529"/>
<path d="M159.16 259.5C158.557 259.892 158.055 260.42 157.696 261.043C157.336 261.666 157.129 262.365 157.091 263.083C157.091 264.401 158.027 264.933 159.173 264.27C159.776 263.878 160.278 263.349 160.638 262.726C160.997 262.103 161.204 261.404 161.242 260.686C161.242 259.369 160.305 258.838 159.16 259.5" fill="white"/>
<path d="M158.714 263.301C158.602 263.302 158.492 263.274 158.395 263.219C158.275 263.137 158.178 263.025 158.116 262.893C158.054 262.762 158.029 262.616 158.042 262.471C158.062 262.101 158.169 261.74 158.354 261.419C158.539 261.098 158.797 260.825 159.108 260.623C159.228 260.538 159.368 260.487 159.514 260.474C159.661 260.461 159.808 260.488 159.94 260.551C160.06 260.633 160.156 260.745 160.218 260.876C160.28 261.008 160.306 261.153 160.293 261.298C160.273 261.668 160.166 262.029 159.98 262.35C159.795 262.671 159.536 262.944 159.225 263.146C159.071 263.241 158.895 263.295 158.714 263.301V263.301ZM159.214 260.814C158.936 260.996 158.704 261.24 158.538 261.528C158.372 261.816 158.276 262.139 158.258 262.471C158.246 262.577 158.262 262.684 158.305 262.782C158.348 262.88 158.415 262.965 158.501 263.028C158.6 263.07 158.709 263.086 158.816 263.073C158.923 263.061 159.025 263.02 159.112 262.956C159.391 262.775 159.622 262.53 159.788 262.242C159.955 261.954 160.05 261.631 160.068 261.299C160.092 261.192 160.081 261.08 160.037 260.979C159.992 260.879 159.917 260.795 159.821 260.741C159.726 260.687 159.615 260.664 159.506 260.677C159.397 260.691 159.295 260.739 159.215 260.814H159.214Z" fill="#FFECCF"/>
<path d="M159.249 261.063C159.208 261.09 159.173 261.126 159.148 261.169C159.124 261.212 159.11 261.261 159.107 261.31C159.107 261.401 159.171 261.438 159.25 261.391C159.292 261.364 159.326 261.328 159.351 261.285C159.376 261.242 159.39 261.194 159.393 261.144C159.393 261.053 159.328 261.017 159.249 261.063Z" fill="#FFECCF"/>
<path d="M159.249 262.33C159.208 262.357 159.173 262.394 159.148 262.436C159.124 262.479 159.11 262.528 159.107 262.577C159.107 262.667 159.171 262.705 159.25 262.658C159.292 262.631 159.326 262.595 159.351 262.552C159.376 262.509 159.39 262.461 159.393 262.411C159.393 262.321 159.328 262.284 159.249 262.33Z" fill="#FFECCF"/>
<path d="M158.56 262.192C158.519 262.219 158.484 262.255 158.459 262.298C158.435 262.341 158.42 262.389 158.418 262.439C158.418 262.529 158.482 262.567 158.561 262.52C158.603 262.493 158.638 262.457 158.663 262.414C158.687 262.371 158.702 262.323 158.704 262.273C158.704 262.183 158.639 262.146 158.56 262.192Z" fill="#FFECCF"/>
<path d="M159.772 261.297C159.731 261.324 159.696 261.361 159.672 261.403C159.647 261.446 159.633 261.495 159.63 261.544C159.63 261.634 159.694 261.671 159.773 261.625C159.815 261.598 159.849 261.562 159.874 261.519C159.899 261.476 159.914 261.428 159.916 261.378C159.916 261.287 159.852 261.25 159.772 261.297Z" fill="#FFECCF"/>
<path d="M159.094 259.865C160.241 259.204 161.173 259.734 161.177 261.052C161.176 261.192 161.166 261.332 161.146 261.47C161.21 261.214 161.244 260.95 161.246 260.686C161.246 259.369 160.31 258.838 159.164 259.5C158.622 259.855 158.16 260.32 157.808 260.865C157.457 261.41 157.224 262.023 157.125 262.664C157.4 261.514 158.104 260.512 159.094 259.865V259.865Z" fill="#FFECCF"/>
<path d="M112.434 255.324L107.734 263.549L117.722 269.718L130.28 265.605L112.434 255.324Z" fill="#ADCE8C"/>
<path d="M310.634 65.991C310.444 64.0105 309.679 62.1287 308.433 60.5774C307.188 59.0261 305.516 57.8729 303.623 57.26C303.636 57.06 303.653 56.871 303.653 56.673C303.654 55.0584 303.233 53.4716 302.431 52.0697C301.63 50.6679 300.477 49.4996 299.085 48.6806C297.694 47.8616 296.113 47.4203 294.498 47.4004C292.884 47.3804 291.292 47.7826 289.881 48.567C288.492 46.2215 286.316 44.4449 283.74 43.5533C281.165 42.6617 278.356 42.713 275.814 43.698C273.273 44.6831 271.163 46.5381 269.861 48.9327C268.559 51.3273 268.149 54.1063 268.704 56.775C268.623 56.775 268.545 56.763 268.463 56.763C265.927 56.7636 263.482 57.709 261.605 59.4148C259.728 61.1206 258.554 63.4644 258.312 65.989L310.634 65.991Z" fill="#E2E8F6"/>
<path d="M63.0879 107.24C62.8818 105.099 62.0544 103.064 60.7073 101.387C59.3603 99.7099 57.5523 98.4631 55.5059 97.8C55.5189 97.588 55.5379 97.378 55.5379 97.164C55.5387 95.4179 55.0833 93.7018 54.2169 92.1858C53.3505 90.6698 52.1031 89.4064 50.5983 88.5207C49.0935 87.635 47.3834 87.1578 45.6374 87.1362C43.8914 87.1147 42.1701 87.5497 40.6439 88.398C39.1403 85.8647 36.7872 83.9466 34.0029 82.9846C31.2185 82.0226 28.1832 82.0789 25.4365 83.1437C22.6898 84.2084 20.4095 86.2126 19.0011 88.7999C17.5926 91.3872 17.1472 94.3902 17.7439 97.275C17.6569 97.275 17.5719 97.261 17.4839 97.261C14.7408 97.2615 12.0963 98.284 10.0665 100.129C8.0367 101.974 6.76723 104.509 6.50586 107.24H63.0879Z" fill="#E2E8F6"/>
<path d="M99.359 40.418C99.2151 38.918 98.6358 37.4929 97.6923 36.3179C96.7489 35.1429 95.4825 34.2695 94.049 33.805C94.058 33.657 94.072 33.51 94.072 33.361C94.0725 32.138 93.7536 30.936 93.1468 29.8742C92.54 28.8123 91.6663 27.9274 90.6123 27.307C89.5583 26.6866 88.3605 26.3524 87.1375 26.3373C85.9146 26.3222 84.7089 26.6268 83.64 27.221C82.5877 25.4452 80.9396 24.1002 78.9889 23.4254C77.0382 22.7506 74.9113 22.7896 72.9867 23.5356C71.0621 24.2816 69.4645 25.6861 68.4781 27.4994C67.4917 29.3126 67.1806 31.4169 67.6 33.438C67.539 33.438 67.48 33.429 67.418 33.429C65.4968 33.4292 63.6448 34.1454 62.2232 35.4377C60.8017 36.73 59.9128 38.5056 59.73 40.418H99.359Z" fill="#E2E8F6"/>
<path d="M91.6719 149.448C91.6719 149.448 93.7589 146.248 102.798 147.223C109.897 147.89 116.677 150.487 122.406 154.732C126.718 157.932 134.019 158.974 134.853 162.103C135.687 165.232 130.959 165.579 130.959 165.579C130.959 165.579 143.059 172.393 147.369 175.731C151.679 179.069 152.028 181.085 150.15 183.731C151.432 184.846 152.23 186.417 152.375 188.111C152.375 190.611 149.316 191.866 147.925 191.449C146.92 191.077 145.998 190.509 145.213 189.78C145.213 189.78 146.113 194.161 142.849 194.161C139.585 194.161 131.932 189.711 131.932 189.711C131.932 189.711 133.462 192.701 131.862 193.396C130.262 194.091 126.578 193.117 124.005 191.796C119.135 188.947 113.946 186.683 108.545 185.051C98.9959 181.992 86.1088 177.171 78.8778 167.992L64.5999 162.429C63.5828 159.984 63.2107 157.319 63.519 154.69C63.8274 152.06 64.8059 149.553 66.3609 147.41C71.7389 139.9 78.4139 140.92 78.4139 140.92C82.6 144.11 87.0333 146.961 91.6719 149.448V149.448Z" fill="#F7AC82"/>
<g style="mix-blend-mode:multiply">
<path d="M110.755 176.423C112.828 176.946 114.724 178.012 116.249 179.511L116.275 179.539L116.312 179.551C119.037 180.54 121.509 182.118 123.553 184.173L123.576 184.197L123.608 184.208C126.774 185.346 129.599 187.269 131.819 189.796L132.036 189.622C129.789 187.063 126.931 185.114 123.729 183.956C121.667 181.886 119.175 180.294 116.429 179.295C114.87 177.775 112.939 176.691 110.829 176.153L110.755 176.423ZM127.517 179.275C130.1 180.013 132.572 181.093 134.868 182.487C136.311 183.271 137.675 184.01 138.968 184.552C142.368 185.979 145.068 189.818 145.097 189.857L145.325 189.699C145.298 189.659 142.55 185.755 139.076 184.299C137.797 183.762 136.44 183.025 135.002 182.246C132.692 180.845 130.205 179.758 127.608 179.013C127.254 178.746 123.257 175.775 119.929 175.043L119.869 175.314C123.276 176.063 127.422 179.22 127.462 179.252L127.517 179.275ZM130.917 165.716L130.98 165.445C129.154 165.035 127.351 164.527 125.58 163.924C124.863 163.473 124.187 162.958 123.563 162.386C122.153 161.17 120.67 160.042 119.123 159.007C118.471 157.859 117.528 156.903 116.389 156.235L116.255 156.478C117.188 157.026 117.985 157.778 118.586 158.678C117.56 158.029 116.439 157.545 115.263 157.245L115.203 157.516C118.02 158.137 121.248 160.825 123.386 162.605C124.028 163.197 124.725 163.725 125.468 164.183C127.256 164.793 129.077 165.305 130.922 165.716H130.917ZM143.25 178.977C145.617 180.451 147.888 182.074 150.05 183.835L150.14 183.728L150.219 183.613C148.05 181.847 145.772 180.22 143.399 178.742C143.337 178.701 136.899 174.496 133.299 173.585C132.886 173.333 127.616 170.166 124.14 170.029L124.129 170.308C127.598 170.444 133.116 173.8 133.171 173.833L133.21 173.849C136.767 174.743 143.193 178.935 143.255 178.977H143.25Z" fill="#FFB77C"/>
</g>
<g style="mix-blend-mode:multiply">
<path d="M109.346 175.071C118.746 173.412 124.946 166.196 125.004 166.124L124.791 165.944C124.73 166.015 118.591 173.157 109.297 174.797L109.346 175.071Z" fill="#FFB77C"/>
</g>
<g style="mix-blend-mode:multiply">
<path d="M101.616 160.501C105.952 160.564 110.259 159.778 114.293 158.186L114.176 157.934C107.699 160.415 100.634 160.928 93.8668 159.407L93.8088 159.679C96.3753 160.225 98.9919 160.501 101.616 160.501V160.501Z" fill="#FFB77C"/>
</g>
<g style="mix-blend-mode:multiply">
<path d="M99.5598 163.154C100.267 163.167 100.973 163.09 101.66 162.923C105.76 161.828 111.846 162.182 111.907 162.186L111.924 161.908C111.863 161.908 105.735 161.549 101.589 162.654C99.7968 163.133 97.1778 162.754 94.4048 162.345C90.7838 161.817 86.6798 161.218 83.4048 162.379L83.4978 162.641C86.7068 161.502 90.7738 162.095 94.3628 162.619C96.0809 162.916 97.8173 163.094 99.5598 163.154V163.154Z" fill="#FFB77C"/>
</g>
<path d="M41.2538 152.241C38.4248 151.523 36.5698 148.783 36.5538 144.477C36.5328 137.339 41.5538 128.657 47.7538 125.077C51.5608 122.877 54.9288 123.119 56.9718 125.277C57.9898 125.536 92.0608 148.32 92.6398 148.932C94.9008 149.506 96.3838 151.696 96.3938 155.145C96.4098 160.845 92.3938 167.801 87.4318 170.666C84.3878 172.424 81.6948 172.229 80.0598 170.505C79.2518 170.295 41.9778 153.005 41.2538 152.241Z" fill="#F7AC82"/>
<path d="M220.07 38.772C219.87 32.978 217.21 27.344 213.697 22.828C210.147 18.266 203.226 11.687 196.952 15.328L156.352 38.923C156.634 38.7614 156.928 38.6216 157.231 38.505C157.272 38.489 157.312 38.471 157.353 38.455C157.629 38.3558 157.911 38.2746 158.197 38.212C158.251 38.2 158.303 38.179 158.358 38.168C161.492 37.532 164.692 38.959 167.222 40.708L167.303 40.766C167.713 41.0527 168.118 41.3573 168.516 41.68L168.65 41.789C172.713 45.2143 175.802 49.6489 177.607 54.647L177.645 54.747C177.84 55.276 178.019 55.809 178.18 56.347C178.189 56.379 178.198 56.41 178.208 56.447C179.491 60.747 180.165 66.447 177.019 70.139C176.953 70.217 176.883 70.29 176.814 70.364C176.656 70.5351 176.489 70.6977 176.314 70.851C176.243 70.914 176.172 70.979 176.098 71.038C175.853 71.2366 175.594 71.4167 175.323 71.577L215.923 47.982C216.194 47.8219 216.453 47.642 216.698 47.444C216.772 47.384 216.843 47.319 216.915 47.256C217.09 47.1026 217.256 46.9404 217.415 46.77C217.484 46.695 217.553 46.623 217.62 46.544C219.4 44.3619 220.277 41.5806 220.07 38.772V38.772Z" fill="url(#paint0_linear)"/>
<path d="M165.882 39.859C173.275 44.127 179.338 54.566 179.314 63.066C179.29 71.566 173.187 74.907 165.795 70.639C158.403 66.371 152.422 56.018 152.446 47.517C152.47 39.016 158.484 35.587 165.882 39.859Z" fill="url(#paint1_linear)"/>
<path d="M156.643 46.098C162.496 49.478 167.495 57.854 167.475 64.586C167.455 71.318 162.338 73.939 156.486 70.56C150.634 67.181 145.896 58.977 145.912 52.251C145.928 45.525 150.785 42.716 156.643 46.098Z" fill="url(#paint2_linear)"/>
<path d="M176.066 58.956C175.934 53.892 172.694 48.225 169.885 45.027C169.749 44.872 169.611 44.719 169.472 44.569L169.405 44.498C166.845 41.758 162.634 38.55 158.567 39.993C158.552 39.998 158.537 40.008 158.522 40.014C158.241 40.1158 157.968 40.2416 157.709 40.39L149.009 45.446C149.268 45.2967 149.54 45.1709 149.822 45.07C150.034 44.9943 150.25 44.9321 150.47 44.884C150.513 44.873 150.554 44.857 150.598 44.849C150.86 44.7974 151.125 44.7639 151.392 44.749C156.009 44.449 159.93 48.249 162.475 51.686L162.508 51.732C165.927 56.387 169.797 64.978 165.378 70.157C165.326 70.219 165.27 70.277 165.215 70.336C165.088 70.4712 164.955 70.5997 164.815 70.721C164.758 70.771 164.702 70.821 164.643 70.869C164.449 71.0262 164.244 71.169 164.03 71.296L172.73 66.241C172.944 66.1136 173.149 65.9709 173.343 65.814C173.402 65.767 173.458 65.714 173.515 65.666C173.655 65.545 173.788 65.4164 173.915 65.281C173.97 65.222 174.024 65.164 174.078 65.103C175.493 63.3786 176.203 61.1825 176.066 58.956V58.956Z" fill="url(#paint3_linear)"/>
<path d="M109.415 151.107L110.442 150.507C110.425 150.522 110.407 150.536 110.388 150.547L109.361 151.147C109.38 151.136 109.399 151.123 109.415 151.107" fill="#53321C"/>
<path d="M111.401 148.989C111.401 149.064 111.389 149.138 111.366 149.209C111.346 149.268 111.311 149.321 111.266 149.363L109.412 151.108L110.439 150.508L112.293 148.763C112.314 148.743 112.332 148.72 112.348 148.695C112.402 148.602 112.428 148.496 112.424 148.389L111.401 148.989Z" fill="#764A39"/>
<path d="M110.892 146.063L111.919 145.463L112.435 145.763L111.408 146.363L110.892 146.063Z" fill="#764A39"/>
<path d="M111.408 146.36L112.435 145.76L112.428 148.389L111.401 148.989L111.408 146.36Z" fill="#8D5D52"/>
<path d="M110.894 145.036L111.921 144.436V145.462L110.894 146.062V145.036Z" fill="#29141B"/>
<path d="M111.424 142.184L112.45 141.584L112.441 144.736L111.414 145.336L111.424 142.184Z" fill="#8D5D52"/>
<path d="M110.904 141.883L111.931 141.283L112.447 141.583L111.421 142.183L110.904 141.883Z" fill="#764A39"/>
<path d="M110.91 139.507L111.937 138.907L111.93 141.285L110.903 141.885L110.91 139.507Z" fill="#29141B"/>
<path d="M111.432 137.842L112.459 137.242L112.453 139.208L111.426 139.808L111.432 137.842Z" fill="#8D5D52"/>
<path d="M110.917 137.541L111.944 136.941L112.46 137.241L111.433 137.841L110.917 137.541Z" fill="#764A39"/>
<path d="M110.922 135.883L111.949 135.283V136.939L110.922 137.539V135.883Z" fill="#29141B"/>
<path d="M111.442 134.397L112.468 133.797L112.463 135.582L111.436 136.182L111.442 134.397Z" fill="#8D5D52"/>
<path d="M111.031 123.807C110.926 123.827 110.819 123.831 110.713 123.821C110.595 123.81 110.479 123.784 110.367 123.745C110.238 123.701 110.114 123.644 109.996 123.575C109.864 123.498 109.738 123.41 109.62 123.313C109.498 123.214 109.384 123.106 109.277 122.991C109.166 122.872 109.062 122.747 108.966 122.615C108.87 122.485 108.782 122.35 108.701 122.21L108.689 122.189C108.608 122.049 108.536 121.904 108.471 121.756C108.405 121.607 108.349 121.454 108.303 121.298C108.257 121.149 108.222 120.997 108.197 120.843C108.173 120.695 108.162 120.546 108.162 120.396C108.162 120.259 108.175 120.122 108.202 119.987C108.224 119.873 108.26 119.762 108.309 119.656C108.346 119.579 108.393 119.507 108.447 119.441C108.464 119.419 108.481 119.397 108.499 119.378C108.557 119.313 108.624 119.257 108.699 119.212L107.673 119.812C107.598 119.857 107.531 119.913 107.473 119.978C107.234 120.262 107.113 120.627 107.135 120.998C107.158 121.737 107.398 122.453 107.826 123.056C108.291 123.756 109.341 124.856 110.28 124.305L111.306 123.705C111.22 123.754 111.127 123.788 111.031 123.807V123.807Z" fill="#29141B"/>
<path d="M116.9 128.642C116.831 127.076 116.475 125.536 115.849 124.099C115.816 124.019 115.781 123.94 115.749 123.86L115.73 123.817L115.71 123.769C114.985 122.117 113.991 120.596 112.769 119.269L112.723 119.222L112.677 119.173C112.614 119.106 112.55 119.038 112.487 118.973C111.581 118.025 110.513 117.246 109.334 116.673L109.289 116.651L109.236 116.626C109.142 116.585 109.05 116.546 108.959 116.509C108.071 116.123 107.092 116.001 106.137 116.156C106.108 116.161 106.082 116.172 106.054 116.179C105.921 116.208 105.79 116.244 105.661 116.287C105.651 116.292 105.641 116.297 105.631 116.301C105.448 116.368 105.271 116.45 105.102 116.546L104.076 117.146C104.244 117.049 104.421 116.967 104.605 116.901C104.743 116.851 104.885 116.811 105.029 116.779C105.056 116.773 105.081 116.762 105.11 116.756C105.281 116.723 105.454 116.701 105.628 116.691H105.735C107.48 116.747 109.146 117.437 110.422 118.63C110.622 118.793 110.822 118.965 111.01 119.143L111.078 119.206C111.273 119.391 111.465 119.582 111.653 119.781L111.698 119.828C111.898 120.042 112.098 120.262 112.289 120.498C113.669 122.158 114.706 124.075 115.34 126.139L115.355 126.189C115.435 126.453 115.504 126.718 115.567 126.982L115.584 127.057C115.646 127.33 115.701 127.603 115.746 127.884C115.791 128.165 115.821 128.429 115.846 128.697L115.851 128.763C116.022 130.167 115.744 131.59 115.058 132.827C115.042 132.853 115.023 132.875 115.006 132.9C114.926 133.018 114.839 133.132 114.747 133.241C114.713 133.282 114.676 133.321 114.64 133.359C114.558 133.447 114.471 133.53 114.381 133.609C114.344 133.642 114.308 133.676 114.269 133.709C114.143 133.812 114.009 133.905 113.869 133.988L114.896 133.388C115.036 133.305 115.17 133.213 115.296 133.11C115.335 133.079 115.371 133.046 115.408 133.01C116.138 132.326 116.618 131.417 116.772 130.428C116.78 130.385 116.79 130.344 116.797 130.3C116.816 130.191 116.832 130.081 116.847 129.969C116.854 129.908 116.86 129.845 116.866 129.783L116.872 129.72L116.88 129.642C116.889 129.534 116.895 129.425 116.9 129.314C116.905 129.087 116.905 128.863 116.9 128.642Z" fill="#29141B"/>
<path d="M108.989 117.621C110.997 118.925 112.667 120.686 113.864 122.759C115.061 124.832 115.75 127.159 115.876 129.55C115.867 132.921 114.026 134.738 111.442 134.397V136.181L110.925 135.881V137.537L111.442 137.837L111.436 139.803L110.92 139.503L110.914 141.881L111.43 142.181L111.421 145.333L110.905 145.033V146.059L111.422 146.359L111.415 148.988C111.419 149.056 111.41 149.124 111.387 149.189C111.365 149.253 111.329 149.312 111.283 149.362L109.429 151.107C109.353 151.163 109.261 151.193 109.167 151.192C109.073 151.191 108.982 151.159 108.908 151.101C108.682 150.959 108.503 150.753 108.393 150.509L106.55 146.63C106.469 146.467 106.425 146.288 106.422 146.106L106.463 131.514C103.83 128.85 102.267 125.312 102.072 121.572C102.069 117.184 105.172 115.417 108.989 117.621ZM108.97 124.171C109.989 124.759 110.814 124.283 110.818 123.118C110.785 122.48 110.601 121.86 110.282 121.306C109.963 120.753 109.518 120.283 108.983 119.935C107.964 119.347 107.139 119.823 107.135 120.993C107.169 121.63 107.352 122.25 107.671 122.802C107.99 123.355 108.435 123.824 108.97 124.172V124.171Z" fill="#AC7166"/>
<path d="M108.748 134.051C108.534 133.928 108.356 134.028 108.356 134.275L108.32 146.875C108.327 147.01 108.367 147.141 108.434 147.258C108.502 147.375 108.596 147.475 108.709 147.549C108.923 147.672 109.096 147.569 109.096 147.323L109.132 134.723C109.125 134.589 109.086 134.458 109.019 134.342C108.953 134.225 108.859 134.126 108.747 134.052L108.748 134.051Z" fill="#29141B"/>
<path d="M163.422 57.19C163.422 57.19 158.953 47.2 153.169 47.068C151.196 47.277 149.254 47.7184 147.385 48.383C144.359 49.7573 141.182 50.7719 137.92 51.406C133.582 52.063 125.827 49.04 125.827 49.04C123.945 48.8266 122.044 48.8707 120.174 49.171C118.334 49.697 116.099 48.514 114.39 50.88C112.681 53.246 102.822 66.129 101.508 69.02C100.194 71.911 101.903 80.456 101.903 80.456L103.875 89.525C103.875 89.525 104.182 95.265 104.094 96.449C104.006 97.633 107.731 99.209 109.747 93.601C111.302 88.8275 112.589 83.971 113.603 79.054C117.572 77.4826 121.331 75.4267 124.796 72.933C125.771 73.1474 126.771 73.2311 127.769 73.182C126.522 76.7599 126.018 80.5546 126.288 84.334C122.542 85.846 119.588 91.234 119.588 91.234C119.588 91.234 113.607 94.454 109.927 96.887C106.247 99.32 107.561 103.328 110.387 103.853C113.213 104.378 117.687 100.699 122.021 101.093C126.355 101.487 127.936 98.464 129.908 96.229C131.88 93.994 139.898 87.29 142.396 85.186C144.894 83.082 148.049 76.774 151.335 74.145C154.621 71.516 163.166 67.045 163.166 67.045C166.372 64.616 163.422 57.19 163.422 57.19Z" fill="#F7AC82"/>
<g style="mix-blend-mode:multiply" opacity="0.5">
<path d="M118.423 64.069C118.423 64.069 112.266 68.253 109.638 70.444C107.826 72.0349 106.195 73.8203 104.774 75.768L103.393 87.073L103.768 89.028L103.788 89.044C103.788 89.044 104.927 77.739 105.888 75.46C106.849 73.181 118.423 64.069 118.423 64.069Z" fill="#FFB77C"/>
</g>
<g style="mix-blend-mode:multiply" opacity="0.5">
<path d="M115.026 57.168C115.026 57.168 105.299 68.013 104.313 69.195C103.485 70.0439 102.876 71.0818 102.539 72.219C102.316 73.019 101.821 76.247 101.525 78.237C101.642 79.005 101.75 79.631 101.825 80.02L101.886 80.041C101.886 80.041 102.937 72.741 103.463 71.43C103.989 70.119 115.026 57.168 115.026 57.168Z" fill="#FFB77C"/>
</g>
<path d="M110.252 120.905C110.343 121.062 110.425 121.219 110.501 121.381C110.055 121.545 109.584 121.629 109.11 121.63C104.884 121.63 101.448 114.997 101.448 106.842C101.346 102.943 102.262 99.0846 104.105 95.647C104.105 95.832 104.105 95.988 104.095 96.096C104.087 96.2443 104.129 96.3909 104.214 96.513C102.671 99.7334 101.909 103.272 101.99 106.842C101.99 114.699 105.182 121.089 109.111 121.089C109.498 121.087 109.883 121.025 110.252 120.905V120.905Z" fill="#29141B"/>
<path d="M116.778 107.194C116.778 112.475 115.334 117.117 113.169 119.736C113.055 119.607 112.947 119.465 112.828 119.341C114.873 116.83 116.237 112.323 116.237 107.193C116.239 105.603 116.103 104.015 115.832 102.448C115.454 99.779 114.429 97.2431 112.845 95.062C112.131 94.0842 111.11 93.3737 109.945 93.044C110.004 92.876 110.064 92.703 110.118 92.53C111.395 92.9177 112.509 93.7142 113.289 94.797C114.885 97.0019 115.929 99.5568 116.336 102.248C116.634 103.88 116.782 105.535 116.778 107.194V107.194Z" fill="#29141B"/>
<path d="M82.9568 201.703C78.4228 199.085 71.0928 199.087 66.5878 201.703C62.0828 204.319 62.1028 208.566 66.6368 211.184C71.1708 213.802 78.5058 213.802 83.0098 211.184C87.5138 208.566 87.4948 204.321 82.9568 201.7" fill="#E2E8F6"/>
<path d="M76.1769 148.732L64.3049 184.922L76.1769 196.09L88.0459 184.921L76.1769 148.732Z" fill="#A5C86A"/>
<path d="M76.1738 206.857V171.905" stroke="#38231B" stroke-width="0.681" stroke-miterlimit="10"/>
<path d="M76.1738 190.911L80.2838 184.004" stroke="#38231B" stroke-width="0.681" stroke-miterlimit="10"/>
<path d="M76.173 184.186L72.063 178.942" stroke="#38231B" stroke-width="0.681" stroke-miterlimit="10"/>
<path d="M76.1738 176.745L79.6678 172.411" stroke="#38231B" stroke-width="0.681" stroke-miterlimit="10"/>
<path d="M170.188 245.292L170.388 173.41L217.306 200.498L217.106 272.38L170.188 245.292Z" fill="#FFECCF"/>
<path d="M217.31 200.498L170.392 173.41L170.192 245.292L217.11 272.38L217.31 200.498Z" fill="white"/>
<path d="M215.833 269.829L217.139 260.678L215.833 262.222L211.849 266.7L210.849 268.766L215.833 269.829Z" fill="#D2E0FC"/>
<path d="M217.183 260.602C216.15 261.636 214.866 262.383 213.456 262.769C212.047 263.155 210.561 263.166 209.146 262.802C208.983 264.933 209.581 267.052 210.833 268.784C210.833 268.784 215.711 265.878 217.183 260.602Z" fill="#E2E8F6"/>
<path d="M210.259 205.029L177.093 185.88C176.661 185.631 176.307 185.832 176.305 186.329C176.32 186.601 176.398 186.865 176.534 187.1C176.67 187.336 176.86 187.536 177.088 187.684L210.254 206.829C210.686 207.078 211.035 206.875 211.037 206.378C211.023 206.107 210.946 205.843 210.81 205.608C210.675 205.373 210.486 205.173 210.259 205.025" fill="#E2E8F6"/>
<path d="M210.259 210.367L177.093 191.218C176.661 190.969 176.307 191.17 176.305 191.667C176.32 191.939 176.398 192.203 176.534 192.438C176.67 192.674 176.86 192.874 177.088 193.022L210.254 212.171C210.686 212.42 211.035 212.216 211.037 211.719C211.023 211.448 210.946 211.185 210.81 210.95C210.675 210.715 210.486 210.515 210.259 210.367" fill="#E2E8F6"/>
<path d="M210.259 215.704L177.093 196.555C176.661 196.305 176.307 196.507 176.305 197.003C176.32 197.275 176.398 197.539 176.534 197.774C176.67 198.01 176.86 198.21 177.088 198.358L210.254 217.507C210.686 217.757 211.035 217.553 211.037 217.056C211.023 216.785 210.946 216.521 210.81 216.286C210.675 216.051 210.486 215.852 210.259 215.704" fill="#E2E8F6"/>
<path d="M210.259 221.041L177.093 201.888C176.661 201.639 176.307 201.84 176.305 202.337C176.32 202.609 176.398 202.873 176.534 203.108C176.67 203.344 176.86 203.544 177.088 203.692L210.254 222.841C210.686 223.09 211.035 222.887 211.037 222.39C211.023 222.119 210.946 221.855 210.81 221.62C210.675 221.385 210.486 221.185 210.259 221.037" fill="#E2E8F6"/>
<path d="M210.259 226.379L177.093 207.23C176.661 206.981 176.307 207.182 176.305 207.679C176.32 207.951 176.398 208.215 176.534 208.45C176.67 208.686 176.86 208.886 177.088 209.034L210.254 228.183C210.686 228.432 211.035 228.229 211.037 227.732C211.023 227.461 210.946 227.197 210.81 226.962C210.675 226.727 210.486 226.527 210.259 226.379" fill="#E2E8F6"/>
<path d="M210.259 231.717L177.093 212.568C176.661 212.319 176.307 212.52 176.305 213.016C176.32 213.288 176.398 213.552 176.534 213.788C176.67 214.023 176.86 214.224 177.088 214.372L210.254 233.521C210.686 233.77 211.035 233.566 211.037 233.069C211.023 232.798 210.946 232.535 210.81 232.3C210.675 232.065 210.486 231.865 210.259 231.717" fill="#E2E8F6"/>
<path d="M210.259 237.054L177.093 217.905C176.661 217.655 176.307 217.857 176.305 218.353C176.32 218.625 176.398 218.889 176.534 219.124C176.67 219.36 176.86 219.56 177.088 219.708L210.254 238.857C210.686 239.107 211.035 238.903 211.037 238.406C211.023 238.135 210.946 237.872 210.81 237.637C210.675 237.402 210.486 237.202 210.259 237.054" fill="#E2E8F6"/>
<path d="M210.259 242.393L177.093 223.244C176.661 222.995 176.307 223.196 176.305 223.693C176.32 223.965 176.398 224.229 176.534 224.464C176.67 224.7 176.86 224.9 177.088 225.048L210.254 244.197C210.686 244.446 211.035 244.242 211.037 243.746C211.023 243.475 210.946 243.212 210.81 242.977C210.675 242.742 210.486 242.542 210.259 242.394" fill="#E2E8F6"/>
<path d="M199.028 241.337L177.093 228.58C176.661 228.331 176.307 228.532 176.305 229.029C176.32 229.301 176.398 229.565 176.534 229.8C176.67 230.036 176.86 230.236 177.088 230.384L199.023 243.141C199.455 243.39 199.804 243.186 199.806 242.689C199.792 242.418 199.714 242.155 199.579 241.92C199.444 241.685 199.255 241.485 199.028 241.337" fill="#E2E8F6"/>
<path d="M198.905 246.491L177.092 233.918C176.66 233.669 176.306 233.87 176.304 234.366C176.319 234.638 176.397 234.902 176.533 235.138C176.669 235.373 176.859 235.573 177.087 235.722L198.905 248.295C199.337 248.544 199.686 248.341 199.688 247.843C199.674 247.572 199.596 247.309 199.461 247.074C199.326 246.839 199.137 246.639 198.91 246.491" fill="#E2E8F6"/>
<path d="M197.997 251.349L177.097 239.255C176.665 239.005 176.311 239.207 176.309 239.703C176.324 239.975 176.402 240.239 176.538 240.474C176.674 240.71 176.864 240.91 177.092 241.058L197.992 253.152C198.424 253.402 198.773 253.198 198.775 252.701C198.761 252.43 198.684 252.167 198.548 251.932C198.413 251.697 198.224 251.497 197.997 251.349" fill="#E2E8F6"/>
<path d="M205.846 245.687C205.688 245.558 205.487 245.493 205.283 245.505C205.08 245.517 204.888 245.605 204.746 245.752C204.57 245.534 204.358 245.349 204.118 245.205C203.925 245.083 203.699 245.022 203.471 245.031C203.071 245.066 202.837 245.409 202.819 245.897C202.38 245.655 201.956 245.676 201.719 246.008C201.605 246.229 201.544 246.473 201.539 246.722C201.535 246.971 201.587 247.217 201.693 247.442C201.317 247.488 201.064 247.816 201.063 248.358C201.089 248.948 201.301 249.514 201.669 249.976C201.558 250.206 201.502 250.458 201.503 250.714C201.505 250.969 201.565 251.22 201.678 251.449C202.532 252.26 203.131 253.303 203.4 254.449C203.579 254.678 203.798 254.872 204.047 255.022C204.231 255.137 204.442 255.199 204.659 255.201C204.875 255.761 205.264 256.238 205.769 256.562C206.233 256.83 206.641 256.786 206.869 256.497C207.045 256.715 207.257 256.9 207.497 257.045C207.69 257.167 207.916 257.228 208.145 257.219C208.545 257.184 208.78 256.841 208.797 256.354C208.96 256.48 209.165 256.539 209.37 256.518C209.575 256.497 209.763 256.398 209.897 256.241C210.011 256.02 210.072 255.776 210.077 255.527C210.081 255.278 210.029 255.032 209.923 254.807C210.299 254.761 210.552 254.434 210.554 253.892C210.527 253.303 210.315 252.737 209.947 252.275C210.058 252.045 210.114 251.792 210.113 251.537C210.112 251.282 210.052 251.03 209.939 250.801C209.731 250.244 209.354 249.766 208.861 249.433C208.825 248.833 208.599 248.26 208.216 247.797C208.037 247.568 207.818 247.373 207.569 247.223C207.385 247.108 207.174 247.047 206.957 247.045C206.742 246.485 206.353 246.008 205.848 245.683" fill="#FFB77C"/>
<path d="M205.694 252.196L201.994 254.308L203.259 255.616L203.759 257.362L205.692 256.262L203.941 253.229L205.703 252.219L205.691 252.198" fill="#29141B"/>
<path d="M205.719 252.21L205.707 252.217L203.945 253.227L205.696 256.26L207.617 259.587L208.123 258.421L209.391 258.576L205.72 252.211" fill="#29141B"/>
<path d="M205.392 248.966C204.136 248.242 203.117 248.822 203.113 250.266C203.154 251.052 203.381 251.818 203.775 252.5C204.168 253.182 204.718 253.761 205.378 254.19C206.634 254.915 207.655 254.333 207.659 252.89C207.617 252.104 207.39 251.338 206.996 250.656C206.602 249.974 206.053 249.395 205.392 248.966" fill="#704636"/>
<path d="M205.396 248.966C205.122 248.741 204.773 248.627 204.419 248.646C204.065 248.664 203.73 248.814 203.481 249.066C203.729 248.983 203.994 248.96 204.253 248.997C204.512 249.035 204.759 249.132 204.974 249.282C205.635 249.711 206.184 250.29 206.578 250.972C206.972 251.654 207.199 252.419 207.241 253.206C207.262 253.636 207.133 254.06 206.876 254.406C207.144 254.262 207.363 254.04 207.503 253.769C207.644 253.499 207.699 253.193 207.663 252.89C207.621 252.103 207.394 251.338 207 250.656C206.606 249.974 206.057 249.395 205.396 248.966Z" fill="#38231B"/>
<path d="M203.649 249.225C203.649 249.225 202.621 250.325 204.086 252.707C204.086 252.707 202.839 250.497 205.166 249.636C204.725 249.323 204.188 249.178 203.649 249.225V249.225Z" fill="#8D5D52"/>
<path d="M243.046 263.276C238.512 260.658 231.182 260.661 226.677 263.276C222.172 265.891 222.192 270.14 226.726 272.758C231.26 275.376 238.595 275.376 243.099 272.758C247.603 270.14 247.584 265.894 243.046 263.273" fill="#E2E8F6"/>
<path d="M237.414 210.874L225.445 247.374L237.414 258.637L249.383 247.374L237.414 210.874Z" fill="#A5C86A"/>
<path d="M237.414 269.489V234.243" stroke="#38231B" stroke-width="0.687" stroke-miterlimit="10"/>
<path d="M237.414 253.411L241.559 246.445" stroke="#38231B" stroke-width="0.687" stroke-miterlimit="10"/>
<path d="M237.414 246.628L233.269 241.34" stroke="#38231B" stroke-width="0.687" stroke-miterlimit="10"/>
<path d="M237.414 239.124L240.937 234.754" stroke="#38231B" stroke-width="0.687" stroke-miterlimit="10"/>
<path d="M68.7499 239.929C64.2159 237.311 56.886 237.314 52.38 239.929C47.874 242.544 47.8959 246.793 52.4299 249.411C56.9639 252.029 64.299 252.029 68.803 249.411C73.307 246.793 73.2869 242.547 68.7499 239.926" fill="#E2E8F6"/>
<path d="M62.013 234.758C66.9322 234.758 70.92 225.719 70.92 214.569C70.92 203.419 66.9322 194.38 62.013 194.38C57.0938 194.38 53.106 203.419 53.106 214.569C53.106 225.719 57.0938 234.758 62.013 234.758Z" fill="#A5C86A"/>
<path d="M62.0129 244.98V209.719" stroke="#38231B" stroke-width="0.647" stroke-miterlimit="10"/>
<path d="M62.0129 215.874L65.1919 210.216" stroke="#38231B" stroke-width="0.647" stroke-miterlimit="10"/>
<path d="M62.013 223.455L57.554 217.863" stroke="#38231B" stroke-width="0.647" stroke-miterlimit="10"/>
<path d="M62.0129 230.378L66.3669 223.455" stroke="#38231B" stroke-width="0.647" stroke-miterlimit="10"/>
<path d="M97.4824 182.759C97.1034 182.567 96.6844 182.466 96.2594 182.466C95.8343 182.466 95.4153 182.567 95.0363 182.759C94.8979 182.822 94.7786 182.921 94.6908 183.045C94.6029 183.169 94.5496 183.315 94.5363 183.466V183.466L94.4023 253.052C94.4163 253.206 94.471 253.353 94.5608 253.479C94.6506 253.604 94.7723 253.703 94.9134 253.766C94.9941 253.812 95.078 253.852 95.1644 253.886H95.1783C95.1923 253.891 95.2063 253.895 95.2213 253.9C95.2723 253.919 95.3214 253.937 95.3764 253.952C95.4044 253.96 95.4334 253.966 95.4624 253.973L95.5114 253.986L95.5564 253.997C95.6134 254.009 95.6704 254.019 95.7284 254.027L95.7903 254.034H95.8333L95.8964 254.041C95.9534 254.041 96.0104 254.048 96.0674 254.05H96.2433C96.3073 254.05 96.3724 254.044 96.4354 254.037H96.4574L96.5094 254.03C96.5594 254.024 96.6094 254.017 96.6564 254.009C96.6784 254.009 96.6984 253.998 96.7184 253.994C96.7784 253.981 96.8344 253.967 96.8924 253.951C96.9224 253.943 96.9544 253.937 96.9834 253.928C96.9974 253.928 97.0084 253.915 97.0224 253.911C97.1407 253.872 97.2549 253.822 97.3634 253.761L97.3844 253.748C97.4144 253.728 97.4434 253.707 97.4713 253.684C97.5132 253.657 97.5533 253.627 97.5914 253.595L97.6034 253.587C97.6419 253.551 97.6776 253.512 97.7104 253.471C97.7174 253.462 97.7224 253.453 97.7284 253.444L97.7484 253.416C97.7584 253.4 97.7714 253.384 97.7804 253.368C97.7982 253.336 97.8135 253.303 97.8264 253.268V253.253L97.8314 253.234C97.8391 253.214 97.8451 253.193 97.8494 253.171C97.8566 253.138 97.8606 253.105 97.8614 253.071V253.056L97.9964 183.469C97.9934 183.505 97.9874 183.541 97.9784 183.576C97.9946 183.405 97.9551 183.233 97.8658 183.085C97.7764 182.938 97.642 182.824 97.4824 182.759V182.759ZM97.8574 183.859C97.8293 183.894 97.7988 183.928 97.7664 183.959C97.7997 183.928 97.8307 183.895 97.8593 183.859H97.8574ZM97.9054 183.773C97.9264 183.739 97.9444 183.703 97.9594 183.666C97.9445 183.702 97.9264 183.737 97.9054 183.77V183.773ZM97.6053 184.096C97.5693 184.121 97.5394 184.148 97.4984 184.172C97.5344 184.151 97.5664 184.124 97.6034 184.096H97.6053ZM94.5533 183.572C94.5558 183.6 94.5605 183.629 94.5674 183.656C94.5597 183.628 94.5544 183.599 94.5514 183.57L94.5533 183.572ZM94.6244 183.766C94.6359 183.793 94.6489 183.818 94.6634 183.843C94.6487 183.82 94.6354 183.795 94.6234 183.77L94.6244 183.766ZM94.7693 183.959C94.7883 183.978 94.8024 183.999 94.8234 184.018C94.7994 183.999 94.7854 183.978 94.7664 183.959H94.7693Z" fill="#AC7166"/>
<path d="M94.4834 208.489L97.9404 210.489L97.9764 191.958L94.5184 189.958L94.4834 208.489Z" fill="#764A39"/>
<path d="M131.911 217.601L133.272 216.811L127.318 221.811L125.958 222.601L131.911 217.601Z" fill="#AC7166"/>
<path d="M126.005 205.655L131.911 217.601L125.957 222.601L92.1982 203.11L92.2462 186.162L126.005 205.655Z" fill="#F7A866"/>
<path d="M126.005 205.654L127.365 204.864L133.271 216.811L131.911 217.601L126.005 205.654Z" fill="#F7BE74"/>
<path d="M92.2495 186.164L93.6095 185.374L127.366 204.864L126.006 205.654L92.2495 186.164Z" fill="#FFE2B7"/>
<path d="M101.876 200.818C101.385 200.111 100.762 199.506 100.041 199.035C99.5704 198.748 99.1517 198.383 98.8034 197.955C98.6242 197.733 98.5193 197.461 98.5034 197.176C98.5034 196.919 98.6034 196.794 98.8194 196.783C99.175 196.806 99.5179 196.924 99.8124 197.124C100.118 197.294 100.393 197.514 100.626 197.775C100.842 198.028 101.02 198.311 101.153 198.615C101.22 198.773 101.311 198.919 101.424 199.048C101.531 199.174 101.658 199.282 101.8 199.366C101.91 199.437 102.037 199.476 102.167 199.476H102.176C102.219 199.472 102.261 199.46 102.299 199.439C102.337 199.419 102.37 199.391 102.397 199.357C102.423 199.323 102.443 199.284 102.454 199.243C102.465 199.201 102.468 199.158 102.461 199.115C102.451 198.926 102.401 198.741 102.314 198.573C102.056 198.009 101.722 197.483 101.321 197.009C100.911 196.534 100.421 196.132 99.8754 195.821C99.4469 195.559 98.9783 195.37 98.4884 195.26C98.3186 195.214 98.1412 195.202 97.9668 195.226C97.7924 195.249 97.6246 195.308 97.4734 195.398C97.3369 195.51 97.2303 195.654 97.1633 195.817C97.0962 195.98 97.0708 196.158 97.0894 196.333C97.1237 197.055 97.3793 197.749 97.8214 198.321C98.3414 199.04 98.9892 199.657 99.7324 200.142C100.154 200.409 100.522 200.753 100.815 201.156C101.01 201.417 101.123 201.731 101.138 202.056C101.138 202.341 101.022 202.484 100.772 202.505C100.407 202.503 100.05 202.393 99.7474 202.188C99.3907 201.981 99.0677 201.72 98.7894 201.415C98.5613 201.185 98.379 200.913 98.2524 200.615C98.1871 200.433 98.0911 200.264 97.9684 200.115C97.855 199.97 97.716 199.847 97.5584 199.752C97.5109 199.723 97.4602 199.699 97.4074 199.681C97.2851 199.625 97.1458 199.62 97.0194 199.665C96.9634 199.694 96.9175 199.74 96.8877 199.795C96.858 199.851 96.8456 199.914 96.8524 199.977C96.8574 200.085 96.8793 200.191 96.9174 200.291C97.162 200.958 97.5358 201.569 98.0174 202.091C98.5121 202.657 99.0953 203.14 99.7444 203.519C100.162 203.772 100.619 203.951 101.096 204.05C101.274 204.096 101.459 204.104 101.639 204.073C101.82 204.043 101.992 203.975 102.144 203.874C102.289 203.745 102.401 203.584 102.47 203.403C102.54 203.222 102.565 203.028 102.544 202.835C102.527 202.111 102.295 201.409 101.876 200.818V200.818Z" fill="white"/>
<path d="M109.051 201.603C108.482 200.949 107.808 200.392 107.058 199.956C106.458 199.572 105.77 199.345 105.058 199.296C104.798 199.28 104.538 199.326 104.299 199.43C104.06 199.534 103.849 199.694 103.684 199.896C103.331 200.399 103.159 201.007 103.198 201.62C103.208 202.408 103.373 203.186 103.684 203.909C104.368 205.519 105.552 206.866 107.061 207.749C107.662 208.134 108.35 208.36 109.061 208.406C109.321 208.422 109.581 208.375 109.82 208.271C110.059 208.167 110.27 208.007 110.435 207.806C110.792 207.304 110.965 206.695 110.926 206.08C110.917 205.292 110.75 204.514 110.435 203.791C110.095 202.992 109.628 202.253 109.051 201.603ZM107.058 206.403C106.576 206.122 106.146 205.76 105.786 205.333C105.421 204.908 105.124 204.428 104.908 203.91C104.706 203.439 104.598 202.932 104.591 202.419C104.567 202.019 104.679 201.623 104.908 201.294C105.012 201.164 105.145 201.059 105.297 200.988C105.448 200.918 105.614 200.884 105.781 200.888C106.235 200.908 106.676 201.048 107.058 201.294C107.542 201.575 107.973 201.936 108.335 202.362C108.699 202.785 108.994 203.262 109.208 203.777C109.411 204.249 109.518 204.755 109.525 205.268C109.549 205.668 109.437 206.064 109.208 206.392C109.103 206.523 108.97 206.629 108.817 206.7C108.665 206.771 108.498 206.805 108.33 206.801C107.879 206.785 107.441 206.648 107.06 206.405L107.058 206.403Z" fill="white"/>
<path d="M116.408 211.62L113.348 209.853V204.394C113.34 204.17 113.268 203.952 113.141 203.766C113.015 203.561 112.84 203.39 112.633 203.266C112.562 203.215 112.48 203.181 112.393 203.167C112.306 203.153 112.217 203.159 112.133 203.185C112.063 203.22 112.005 203.277 111.968 203.346C111.931 203.416 111.916 203.495 111.926 203.573V209.747C111.934 209.969 112.004 210.184 112.126 210.368C112.252 210.574 112.425 210.745 112.632 210.868L116.408 213.048C116.481 213.101 116.564 213.136 116.652 213.151C116.74 213.166 116.831 213.16 116.916 213.134C116.987 213.099 117.045 213.043 117.082 212.973C117.12 212.904 117.134 212.824 117.124 212.746C117.116 212.522 117.044 212.304 116.917 212.118C116.79 211.914 116.616 211.743 116.408 211.62V211.62Z" fill="white"/>
<path d="M123.439 211.35C123.109 210.573 122.657 209.854 122.098 209.22C121.541 208.577 120.881 208.03 120.145 207.602L118.494 206.649C118.422 206.597 118.34 206.562 118.252 206.546C118.165 206.53 118.075 206.534 117.989 206.557C117.917 206.592 117.858 206.649 117.82 206.72C117.782 206.791 117.768 206.872 117.779 206.951V213.125C117.789 213.35 117.861 213.567 117.987 213.753C118.114 213.958 118.288 214.13 118.495 214.253L120.146 215.206C120.732 215.581 121.404 215.802 122.098 215.846C122.352 215.861 122.606 215.816 122.84 215.714C123.073 215.612 123.279 215.457 123.44 215.26C123.787 214.77 123.955 214.176 123.917 213.577C123.908 212.81 123.745 212.053 123.439 211.35V211.35ZM121.378 214.287C120.94 214.263 120.515 214.125 120.145 213.887L119.21 213.347V208.385L120.145 208.925C120.611 209.196 121.028 209.542 121.378 209.951C121.73 210.355 122.013 210.813 122.217 211.307C122.412 211.772 122.514 212.27 122.517 212.773C122.543 213.169 122.438 213.563 122.217 213.893C122.119 214.021 121.992 214.123 121.846 214.191C121.7 214.259 121.54 214.292 121.379 214.285L121.378 214.287Z" fill="white"/>
</g>
<defs>
<linearGradient id="paint0_linear" x1="188.226" y1="14.2717" x2="188.226" y2="71.577" gradientUnits="userSpaceOnUse">
<stop stop-color="#41E58B"/>
<stop offset="1" stop-color="#07C55D"/>
</linearGradient>
<linearGradient id="paint1_linear" x1="165.88" y1="38.0211" x2="165.88" y2="72.4926" gradientUnits="userSpaceOnUse">
<stop stop-color="#41E58B"/>
<stop offset="1" stop-color="#07C55D"/>
</linearGradient>
<linearGradient id="paint2_linear" x1="156.693" y1="44.6621" x2="156.693" y2="72.0324" gradientUnits="userSpaceOnUse">
<stop stop-color="#41E58B"/>
<stop offset="1" stop-color="#07C55D"/>
</linearGradient>
<linearGradient id="paint3_linear" x1="162.546" y1="39.6351" x2="162.546" y2="71.296" gradientUnits="userSpaceOnUse">
<stop stop-color="#41E58B"/>
<stop offset="1" stop-color="#07C55D"/>
</linearGradient>
<clipPath id="clip0">
<rect width="343" height="308" fill="white"/>
</clipPath>
</defs>
</svg>
