<svg width="23" height="23" viewBox="0 0 23 23" fill="none" xmlns="http://www.w3.org/2000/svg">
<path d="M11.5 23C17.8513 23 23 17.8513 23 11.5C23 5.14873 17.8513 0 11.5 0C5.14873 0 0 5.14873 0 11.5C0 17.8513 5.14873 23 11.5 23Z" fill="#13B85E"/>
<path d="M17.75 9.828H17.738C17.5652 9.82827 17.3995 9.89704 17.2773 10.0193C17.1551 10.1415 17.0863 10.3072 17.086 10.48C17.086 10.4975 17.0791 10.5143 17.0667 10.5267C17.0543 10.539 17.0376 10.546 17.02 10.546H6.38205C6.36454 10.546 6.34776 10.539 6.33538 10.5267C6.323 10.5143 6.31605 10.4975 6.31605 10.48C6.31578 10.3072 6.247 10.1415 6.12479 10.0193C6.00257 9.89704 5.83689 9.82827 5.66405 9.828H5.65005C5.47721 9.82827 5.31152 9.89704 5.18931 10.0193C5.06709 10.1415 4.99831 10.3072 4.99805 10.48V15.875C4.99831 16.0478 5.06709 16.2135 5.18931 16.3357C5.31152 16.458 5.47721 16.5267 5.65005 16.527H5.66205C5.83489 16.5267 6.00057 16.458 6.12279 16.3357C6.245 16.2135 6.31378 16.0478 6.31405 15.875V15.69C6.31405 15.6582 6.32669 15.6277 6.34919 15.6052C6.3717 15.5826 6.40222 15.57 6.43405 15.57H16.962C16.9939 15.57 17.0244 15.5826 17.0469 15.6052C17.0694 15.6277 17.082 15.6582 17.082 15.69V15.875C17.0823 16.0478 17.1511 16.2135 17.2733 16.3357C17.3955 16.458 17.5612 16.5267 17.734 16.527H17.75C17.9229 16.5267 18.0886 16.458 18.2108 16.3357C18.333 16.2135 18.4018 16.0478 18.402 15.875V10.48C18.4018 10.3072 18.333 10.1415 18.2108 10.0193C18.0886 9.89704 17.9229 9.82827 17.75 9.828V9.828Z" stroke="white"/>
<path d="M6.55494 10.007H7.22794C7.25977 10.007 7.29029 9.99436 7.31279 9.97185C7.3353 9.94935 7.34794 9.91883 7.34794 9.887V9.499C7.34847 9.37239 7.399 9.25111 7.48853 9.16158C7.57805 9.07206 7.69933 9.02153 7.82594 9.021H10.7419C10.8686 9.02153 10.9898 9.07206 11.0794 9.16158C11.1689 9.25111 11.2194 9.37239 11.2199 9.499V9.888C11.2199 9.91983 11.2326 9.95035 11.2551 9.97285C11.2776 9.99536 11.3081 10.008 11.3399 10.008H12.0579C12.0898 10.008 12.1203 9.99536 12.1428 9.97285C12.1653 9.95035 12.1779 9.91983 12.1779 9.888V9.499C12.1785 9.37239 12.229 9.25111 12.3185 9.16158C12.4081 9.07206 12.5293 9.02153 12.6559 9.021H15.5719C15.6986 9.02153 15.8198 9.07206 15.9094 9.16158C15.9989 9.25111 16.0494 9.37239 16.0499 9.499V9.888C16.0499 9.91983 16.0626 9.95035 16.0851 9.97285C16.1076 9.99536 16.1381 10.008 16.1699 10.008H16.8429C16.9062 10.0077 16.9669 9.98247 17.0116 9.93771C17.0564 9.89294 17.0817 9.83231 17.0819 9.769V6.957C17.0812 6.70343 16.9801 6.46047 16.8008 6.28117C16.6215 6.10187 16.3785 6.00079 16.1249 6H7.27194C7.01837 6.00079 6.77542 6.10187 6.59611 6.28117C6.41681 6.46047 6.31573 6.70343 6.31494 6.957V9.768C6.31521 9.83148 6.34061 9.89227 6.38559 9.93706C6.43057 9.98185 6.49146 10.007 6.55494 10.007V10.007Z" stroke="white"/>
</svg>
