<svg width="649" height="835" viewBox="0 0 649 835" fill="none" xmlns="http://www.w3.org/2000/svg">
<g clip-path="url(#clip0)">
<g filter="url(#filter0_d)">
<rect x="14" y="16" width="617" height="368" rx="19.2174" fill="white"/>
</g>
<path d="M122.102 58.1V61.664H116.999V77H113.273V61.664H108.197V58.1H122.102ZM125.789 65.822C126.113 64.958 126.644 64.31 127.382 63.878C128.138 63.446 128.975 63.23 129.893 63.23V67.118C128.831 66.992 127.877 67.208 127.031 67.766C126.203 68.324 125.789 69.251 125.789 70.547V77H122.306V63.5H125.789V65.822ZM141.689 63.5H145.172V77H141.689V75.407C140.645 76.721 139.178 77.378 137.288 77.378C135.488 77.378 133.94 76.694 132.644 75.326C131.366 73.94 130.727 72.248 130.727 70.25C130.727 68.252 131.366 66.569 132.644 65.201C133.94 63.815 135.488 63.122 137.288 63.122C139.178 63.122 140.645 63.779 141.689 65.093V63.5ZM135.263 73.004C135.965 73.706 136.856 74.057 137.936 74.057C139.016 74.057 139.907 73.706 140.609 73.004C141.329 72.284 141.689 71.366 141.689 70.25C141.689 69.134 141.329 68.225 140.609 67.523C139.907 66.803 139.016 66.443 137.936 66.443C136.856 66.443 135.965 66.803 135.263 67.523C134.561 68.225 134.21 69.134 134.21 70.25C134.21 71.366 134.561 72.284 135.263 73.004ZM158.563 58.1H162.046V77H158.563V75.407C157.537 76.721 156.079 77.378 154.189 77.378C152.371 77.378 150.814 76.694 149.518 75.326C148.24 73.94 147.601 72.248 147.601 70.25C147.601 68.252 148.24 66.569 149.518 65.201C150.814 63.815 152.371 63.122 154.189 63.122C156.079 63.122 157.537 63.779 158.563 65.093V58.1ZM152.137 73.004C152.857 73.706 153.757 74.057 154.837 74.057C155.917 74.057 156.808 73.706 157.51 73.004C158.212 72.284 158.563 71.366 158.563 70.25C158.563 69.134 158.212 68.225 157.51 67.523C156.808 66.803 155.917 66.443 154.837 66.443C153.757 66.443 152.857 66.803 152.137 67.523C151.435 68.225 151.084 69.134 151.084 70.25C151.084 71.366 151.435 72.284 152.137 73.004ZM166.96 61.88C166.384 61.88 165.88 61.673 165.448 61.259C165.034 60.827 164.827 60.323 164.827 59.747C164.827 59.171 165.034 58.667 165.448 58.235C165.88 57.803 166.384 57.587 166.96 57.587C167.554 57.587 168.058 57.803 168.472 58.235C168.904 58.667 169.12 59.171 169.12 59.747C169.12 60.323 168.904 60.827 168.472 61.259C168.058 61.673 167.554 61.88 166.96 61.88ZM165.232 77V63.5H168.715V77H165.232ZM179.625 66.848H176.574V72.464C176.574 72.932 176.691 73.274 176.925 73.49C177.159 73.706 177.501 73.832 177.951 73.868C178.401 73.886 178.959 73.877 179.625 73.841V77C177.231 77.27 175.539 77.045 174.549 76.325C173.577 75.605 173.091 74.318 173.091 72.464V66.848H170.742V63.5H173.091V60.773L176.574 59.72V63.5H179.625V66.848ZM183.808 61.88C183.232 61.88 182.728 61.673 182.296 61.259C181.882 60.827 181.675 60.323 181.675 59.747C181.675 59.171 181.882 58.667 182.296 58.235C182.728 57.803 183.232 57.587 183.808 57.587C184.402 57.587 184.906 57.803 185.32 58.235C185.752 58.667 185.968 59.171 185.968 59.747C185.968 60.323 185.752 60.827 185.32 61.259C184.906 61.673 184.402 61.88 183.808 61.88ZM182.08 77V63.5H185.563V77H182.08ZM200.253 75.326C198.867 76.694 197.175 77.378 195.177 77.378C193.179 77.378 191.487 76.694 190.101 75.326C188.733 73.94 188.049 72.248 188.049 70.25C188.049 68.252 188.733 66.569 190.101 65.201C191.487 63.815 193.179 63.122 195.177 63.122C197.175 63.122 198.867 63.815 200.253 65.201C201.639 66.569 202.332 68.252 202.332 70.25C202.332 72.248 201.639 73.94 200.253 75.326ZM192.558 72.923C193.26 73.625 194.133 73.976 195.177 73.976C196.221 73.976 197.094 73.625 197.796 72.923C198.498 72.221 198.849 71.33 198.849 70.25C198.849 69.17 198.498 68.279 197.796 67.577C197.094 66.875 196.221 66.524 195.177 66.524C194.133 66.524 193.26 66.875 192.558 67.577C191.874 68.279 191.532 69.17 191.532 70.25C191.532 71.33 191.874 72.221 192.558 72.923ZM212.288 63.122C213.764 63.122 214.979 63.617 215.933 64.607C216.905 65.597 217.391 66.965 217.391 68.711V77H213.908V69.143C213.908 68.243 213.665 67.559 213.179 67.091C212.693 66.605 212.045 66.362 211.235 66.362C210.335 66.362 209.615 66.641 209.075 67.199C208.535 67.757 208.265 68.594 208.265 69.71V77H204.782V63.5H208.265V65.012C209.111 63.752 210.452 63.122 212.288 63.122ZM230.625 63.5H234.108V77H230.625V75.407C229.581 76.721 228.114 77.378 226.224 77.378C224.424 77.378 222.876 76.694 221.58 75.326C220.302 73.94 219.663 72.248 219.663 70.25C219.663 68.252 220.302 66.569 221.58 65.201C222.876 63.815 224.424 63.122 226.224 63.122C228.114 63.122 229.581 63.779 230.625 65.093V63.5ZM224.199 73.004C224.901 73.706 225.792 74.057 226.872 74.057C227.952 74.057 228.843 73.706 229.545 73.004C230.265 72.284 230.625 71.366 230.625 70.25C230.625 69.134 230.265 68.225 229.545 67.523C228.843 66.803 227.952 66.443 226.872 66.443C225.792 66.443 224.901 66.803 224.199 67.523C223.497 68.225 223.146 69.134 223.146 70.25C223.146 71.366 223.497 72.284 224.199 73.004ZM237.267 77V57.29H240.75V77H237.267ZM262.271 67.199C263.927 68.153 264.755 69.593 264.755 71.519C264.755 73.121 264.188 74.435 263.054 75.461C261.92 76.487 260.525 77 258.869 77H250.85V58.1H258.302C259.922 58.1 261.281 58.604 262.379 59.612C263.495 60.602 264.053 61.871 264.053 63.419C264.053 64.985 263.459 66.245 262.271 67.199ZM258.302 61.583H254.576V65.741H258.302C258.878 65.741 259.355 65.543 259.733 65.147C260.129 64.751 260.327 64.256 260.327 63.662C260.327 63.068 260.138 62.573 259.76 62.177C259.382 61.781 258.896 61.583 258.302 61.583ZM258.869 73.517C259.499 73.517 260.021 73.31 260.435 72.896C260.849 72.464 261.056 71.924 261.056 71.276C261.056 70.646 260.849 70.124 260.435 69.71C260.021 69.278 259.499 69.062 258.869 69.062H254.576V73.517H258.869ZM270.518 65.822C270.842 64.958 271.373 64.31 272.111 63.878C272.867 63.446 273.704 63.23 274.622 63.23V67.118C273.56 66.992 272.606 67.208 271.76 67.766C270.932 68.324 270.518 69.251 270.518 70.547V77H267.035V63.5H270.518V65.822ZM287.66 75.326C286.274 76.694 284.582 77.378 282.584 77.378C280.586 77.378 278.894 76.694 277.508 75.326C276.14 73.94 275.456 72.248 275.456 70.25C275.456 68.252 276.14 66.569 277.508 65.201C278.894 63.815 280.586 63.122 282.584 63.122C284.582 63.122 286.274 63.815 287.66 65.201C289.046 66.569 289.739 68.252 289.739 70.25C289.739 72.248 289.046 73.94 287.66 75.326ZM279.965 72.923C280.667 73.625 281.54 73.976 282.584 73.976C283.628 73.976 284.501 73.625 285.203 72.923C285.905 72.221 286.256 71.33 286.256 70.25C286.256 69.17 285.905 68.279 285.203 67.577C284.501 66.875 283.628 66.524 282.584 66.524C281.54 66.524 280.667 66.875 279.965 67.577C279.281 68.279 278.939 69.17 278.939 70.25C278.939 71.33 279.281 72.221 279.965 72.923ZM304.637 77H300.587L295.673 70.871V77H292.19V58.1H295.673V69.44L300.317 63.5H304.475L299.048 70.169L304.637 77ZM308.343 71.681C308.811 73.373 310.08 74.219 312.15 74.219C313.482 74.219 314.49 73.769 315.174 72.869L317.982 74.489C316.65 76.415 314.688 77.378 312.096 77.378C309.864 77.378 308.073 76.703 306.723 75.353C305.373 74.003 304.698 72.302 304.698 70.25C304.698 68.216 305.364 66.524 306.696 65.174C308.028 63.806 309.738 63.122 311.826 63.122C313.806 63.122 315.435 63.806 316.713 65.174C318.009 66.542 318.657 68.234 318.657 70.25C318.657 70.7 318.612 71.177 318.522 71.681H308.343ZM308.289 68.981H315.174C314.976 68.063 314.562 67.379 313.932 66.929C313.32 66.479 312.618 66.254 311.826 66.254C310.89 66.254 310.116 66.497 309.504 66.983C308.892 67.451 308.487 68.117 308.289 68.981ZM324.571 65.822C324.895 64.958 325.426 64.31 326.164 63.878C326.92 63.446 327.757 63.23 328.675 63.23V67.118C327.613 66.992 326.659 67.208 325.813 67.766C324.985 68.324 324.571 69.251 324.571 70.547V77H321.088V63.5H324.571V65.822ZM340.471 63.5H343.954V77H340.471V75.407C339.427 76.721 337.96 77.378 336.07 77.378C334.27 77.378 332.722 76.694 331.426 75.326C330.148 73.94 329.509 72.248 329.509 70.25C329.509 68.252 330.148 66.569 331.426 65.201C332.722 63.815 334.27 63.122 336.07 63.122C337.96 63.122 339.427 63.779 340.471 65.093V63.5ZM334.045 73.004C334.747 73.706 335.638 74.057 336.718 74.057C337.798 74.057 338.689 73.706 339.391 73.004C340.111 72.284 340.471 71.366 340.471 70.25C340.471 69.134 340.111 68.225 339.391 67.523C338.689 66.803 337.798 66.443 336.718 66.443C335.638 66.443 334.747 66.803 334.045 67.523C333.343 68.225 332.992 69.134 332.992 70.25C332.992 71.366 333.343 72.284 334.045 73.004ZM357.454 63.5H360.856V76.352C360.856 78.44 360.163 80.033 358.777 81.131C357.409 82.229 355.753 82.778 353.809 82.778C352.351 82.778 351.064 82.499 349.948 81.941C348.85 81.383 348.004 80.564 347.41 79.484L350.38 77.783C351.064 79.043 352.243 79.673 353.917 79.673C355.015 79.673 355.879 79.385 356.509 78.809C357.139 78.233 357.454 77.414 357.454 76.352V74.894C356.428 76.262 354.988 76.946 353.134 76.946C351.226 76.946 349.624 76.28 348.328 74.948C347.05 73.598 346.411 71.96 346.411 70.034C346.411 68.126 347.059 66.497 348.355 65.147C349.651 63.797 351.244 63.122 353.134 63.122C354.988 63.122 356.428 63.806 357.454 65.174V63.5ZM350.947 72.707C351.667 73.391 352.576 73.733 353.674 73.733C354.772 73.733 355.672 73.391 356.374 72.707C357.094 72.005 357.454 71.114 357.454 70.034C357.454 68.972 357.094 68.099 356.374 67.415C355.672 66.713 354.772 66.362 353.674 66.362C352.576 66.362 351.667 66.713 350.947 67.415C350.245 68.099 349.894 68.972 349.894 70.034C349.894 71.114 350.245 72.005 350.947 72.707ZM366.957 71.681C367.425 73.373 368.694 74.219 370.764 74.219C372.096 74.219 373.104 73.769 373.788 72.869L376.596 74.489C375.264 76.415 373.302 77.378 370.71 77.378C368.478 77.378 366.687 76.703 365.337 75.353C363.987 74.003 363.312 72.302 363.312 70.25C363.312 68.216 363.978 66.524 365.31 65.174C366.642 63.806 368.352 63.122 370.44 63.122C372.42 63.122 374.049 63.806 375.327 65.174C376.623 66.542 377.271 68.234 377.271 70.25C377.271 70.7 377.226 71.177 377.136 71.681H366.957ZM366.903 68.981H373.788C373.59 68.063 373.176 67.379 372.546 66.929C371.934 66.479 371.232 66.254 370.44 66.254C369.504 66.254 368.73 66.497 368.118 66.983C367.506 67.451 367.101 68.117 366.903 68.981ZM395.578 77.378C392.734 77.378 390.385 76.433 388.531 74.543C386.677 72.653 385.75 70.322 385.75 67.55C385.75 64.76 386.677 62.429 388.531 60.557C390.385 58.667 392.734 57.722 395.578 57.722C397.288 57.722 398.863 58.127 400.303 58.937C401.761 59.729 402.895 60.809 403.705 62.177L400.492 64.04C400.024 63.194 399.358 62.537 398.494 62.069C397.63 61.583 396.658 61.34 395.578 61.34C393.742 61.34 392.257 61.916 391.123 63.068C390.007 64.22 389.449 65.714 389.449 67.55C389.449 69.368 390.007 70.853 391.123 72.005C392.257 73.157 393.742 73.733 395.578 73.733C396.658 73.733 397.63 73.499 398.494 73.031C399.376 72.545 400.042 71.888 400.492 71.06L403.705 72.923C402.895 74.291 401.77 75.38 400.33 76.19C398.89 76.982 397.306 77.378 395.578 77.378ZM417.413 75.326C416.027 76.694 414.335 77.378 412.337 77.378C410.339 77.378 408.647 76.694 407.261 75.326C405.893 73.94 405.209 72.248 405.209 70.25C405.209 68.252 405.893 66.569 407.261 65.201C408.647 63.815 410.339 63.122 412.337 63.122C414.335 63.122 416.027 63.815 417.413 65.201C418.799 66.569 419.492 68.252 419.492 70.25C419.492 72.248 418.799 73.94 417.413 75.326ZM409.718 72.923C410.42 73.625 411.293 73.976 412.337 73.976C413.381 73.976 414.254 73.625 414.956 72.923C415.658 72.221 416.009 71.33 416.009 70.25C416.009 69.17 415.658 68.279 414.956 67.577C414.254 66.875 413.381 66.524 412.337 66.524C411.293 66.524 410.42 66.875 409.718 67.577C409.034 68.279 408.692 69.17 408.692 70.25C408.692 71.33 409.034 72.221 409.718 72.923ZM436.874 63.122C438.422 63.122 439.655 63.626 440.573 64.634C441.509 65.642 441.977 66.992 441.977 68.684V77H438.494V68.927C438.494 68.117 438.296 67.487 437.9 67.037C437.504 66.587 436.946 66.362 436.226 66.362C435.434 66.362 434.813 66.623 434.363 67.145C433.931 67.667 433.715 68.423 433.715 69.413V77H430.232V68.927C430.232 68.117 430.034 67.487 429.638 67.037C429.242 66.587 428.684 66.362 427.964 66.362C427.19 66.362 426.569 66.623 426.101 67.145C425.651 67.667 425.426 68.423 425.426 69.413V77H421.943V63.5H425.426V64.931C426.236 63.725 427.487 63.122 429.179 63.122C430.835 63.122 432.059 63.77 432.851 65.066C433.751 63.77 435.092 63.122 436.874 63.122ZM459.866 63.122C461.414 63.122 462.647 63.626 463.565 64.634C464.501 65.642 464.969 66.992 464.969 68.684V77H461.486V68.927C461.486 68.117 461.288 67.487 460.892 67.037C460.496 66.587 459.938 66.362 459.218 66.362C458.426 66.362 457.805 66.623 457.355 67.145C456.923 67.667 456.707 68.423 456.707 69.413V77H453.224V68.927C453.224 68.117 453.026 67.487 452.63 67.037C452.234 66.587 451.676 66.362 450.956 66.362C450.182 66.362 449.561 66.623 449.093 67.145C448.643 67.667 448.418 68.423 448.418 69.413V77H444.935V63.5H448.418V64.931C449.228 63.725 450.479 63.122 452.171 63.122C453.827 63.122 455.051 63.77 455.843 65.066C456.743 63.77 458.084 63.122 459.866 63.122ZM469.655 61.88C469.079 61.88 468.575 61.673 468.143 61.259C467.729 60.827 467.522 60.323 467.522 59.747C467.522 59.171 467.729 58.667 468.143 58.235C468.575 57.803 469.079 57.587 469.655 57.587C470.249 57.587 470.753 57.803 471.167 58.235C471.599 58.667 471.815 59.171 471.815 59.747C471.815 60.323 471.599 60.827 471.167 61.259C470.753 61.673 470.249 61.88 469.655 61.88ZM467.927 77V63.5H471.41V77H467.927ZM477.705 67.334C477.705 67.694 477.939 67.991 478.407 68.225C478.893 68.441 479.478 68.639 480.162 68.819C480.846 68.981 481.53 69.197 482.214 69.467C482.898 69.719 483.474 70.151 483.942 70.763C484.428 71.375 484.671 72.14 484.671 73.058C484.671 74.444 484.149 75.515 483.105 76.271C482.079 77.009 480.792 77.378 479.244 77.378C476.472 77.378 474.582 76.307 473.574 74.165L476.598 72.464C476.994 73.634 477.876 74.219 479.244 74.219C480.486 74.219 481.107 73.832 481.107 73.058C481.107 72.698 480.864 72.41 480.378 72.194C479.91 71.96 479.334 71.753 478.65 71.573C477.966 71.393 477.282 71.168 476.598 70.898C475.914 70.628 475.329 70.205 474.843 69.629C474.375 69.035 474.141 68.297 474.141 67.415C474.141 66.083 474.627 65.039 475.599 64.283C476.589 63.509 477.813 63.122 479.271 63.122C480.369 63.122 481.368 63.374 482.268 63.878C483.168 64.364 483.879 65.066 484.401 65.984L481.431 67.604C480.999 66.686 480.279 66.227 479.271 66.227C478.821 66.227 478.443 66.326 478.137 66.524C477.849 66.722 477.705 66.992 477.705 67.334ZM488.639 61.88C488.063 61.88 487.559 61.673 487.127 61.259C486.713 60.827 486.506 60.323 486.506 59.747C486.506 59.171 486.713 58.667 487.127 58.235C487.559 57.803 488.063 57.587 488.639 57.587C489.233 57.587 489.737 57.803 490.151 58.235C490.583 58.667 490.799 59.171 490.799 59.747C490.799 60.323 490.583 60.827 490.151 61.259C489.737 61.673 489.233 61.88 488.639 61.88ZM486.911 77V63.5H490.394V77H486.911ZM505.084 75.326C503.698 76.694 502.006 77.378 500.008 77.378C498.01 77.378 496.318 76.694 494.932 75.326C493.564 73.94 492.88 72.248 492.88 70.25C492.88 68.252 493.564 66.569 494.932 65.201C496.318 63.815 498.01 63.122 500.008 63.122C502.006 63.122 503.698 63.815 505.084 65.201C506.47 66.569 507.163 68.252 507.163 70.25C507.163 72.248 506.47 73.94 505.084 75.326ZM497.389 72.923C498.091 73.625 498.964 73.976 500.008 73.976C501.052 73.976 501.925 73.625 502.627 72.923C503.329 72.221 503.68 71.33 503.68 70.25C503.68 69.17 503.329 68.279 502.627 67.577C501.925 66.875 501.052 66.524 500.008 66.524C498.964 66.524 498.091 66.875 497.389 67.577C496.705 68.279 496.363 69.17 496.363 70.25C496.363 71.33 496.705 72.221 497.389 72.923ZM517.12 63.122C518.596 63.122 519.811 63.617 520.765 64.607C521.737 65.597 522.223 66.965 522.223 68.711V77H518.74V69.143C518.74 68.243 518.497 67.559 518.011 67.091C517.525 66.605 516.877 66.362 516.067 66.362C515.167 66.362 514.447 66.641 513.907 67.199C513.367 67.757 513.097 68.594 513.097 69.71V77H509.614V63.5H513.097V65.012C513.943 63.752 515.284 63.122 517.12 63.122ZM528.41 67.334C528.41 67.694 528.644 67.991 529.112 68.225C529.598 68.441 530.183 68.639 530.867 68.819C531.551 68.981 532.235 69.197 532.919 69.467C533.603 69.719 534.179 70.151 534.647 70.763C535.133 71.375 535.376 72.14 535.376 73.058C535.376 74.444 534.854 75.515 533.81 76.271C532.784 77.009 531.497 77.378 529.949 77.378C527.177 77.378 525.287 76.307 524.279 74.165L527.303 72.464C527.699 73.634 528.581 74.219 529.949 74.219C531.191 74.219 531.812 73.832 531.812 73.058C531.812 72.698 531.569 72.41 531.083 72.194C530.615 71.96 530.039 71.753 529.355 71.573C528.671 71.393 527.987 71.168 527.303 70.898C526.619 70.628 526.034 70.205 525.548 69.629C525.08 69.035 524.846 68.297 524.846 67.415C524.846 66.083 525.332 65.039 526.304 64.283C527.294 63.509 528.518 63.122 529.976 63.122C531.074 63.122 532.073 63.374 532.973 63.878C533.873 64.364 534.584 65.066 535.106 65.984L532.136 67.604C531.704 66.686 530.984 66.227 529.976 66.227C529.526 66.227 529.148 66.326 528.842 66.524C528.554 66.722 528.41 66.992 528.41 67.334Z" fill="#656565"/>
<path d="M175.435 329.965V332.8H171.375V345H168.411V332.8H164.373V329.965H175.435ZM182.431 334.261H185.395L181.486 345C180.928 346.546 180.183 347.663 179.252 348.351C178.336 349.052 177.19 349.367 175.816 349.296V346.718C176.56 346.733 177.147 346.575 177.577 346.246C178.021 345.916 178.372 345.387 178.629 344.656L174.226 334.261H177.255L180.047 341.478L182.431 334.261ZM192.964 333.96C194.41 333.96 195.641 334.511 196.658 335.614C197.689 336.702 198.205 338.041 198.205 339.63C198.205 341.22 197.689 342.566 196.658 343.668C195.641 344.757 194.41 345.301 192.964 345.301C191.46 345.301 190.301 344.778 189.484 343.733V349.296H186.714V334.261H189.484V335.528C190.301 334.483 191.46 333.96 192.964 333.96ZM190.322 341.821C190.88 342.38 191.589 342.659 192.448 342.659C193.307 342.659 194.016 342.38 194.575 341.821C195.147 341.248 195.434 340.518 195.434 339.63C195.434 338.743 195.147 338.02 194.575 337.461C194.016 336.888 193.307 336.602 192.448 336.602C191.589 336.602 190.88 336.888 190.322 337.461C189.764 338.02 189.484 338.743 189.484 339.63C189.484 340.518 189.764 341.248 190.322 341.821ZM201.533 332.972C201.075 332.972 200.674 332.808 200.33 332.478C200.001 332.135 199.836 331.734 199.836 331.275C199.836 330.817 200.001 330.416 200.33 330.073C200.674 329.729 201.075 329.557 201.533 329.557C202.006 329.557 202.407 329.729 202.736 330.073C203.08 330.416 203.251 330.817 203.251 331.275C203.251 331.734 203.08 332.135 202.736 332.478C202.407 332.808 202.006 332.972 201.533 332.972ZM200.159 345V334.261H202.929V345H200.159ZM210.577 345.301C208.959 345.301 207.606 344.757 206.518 343.668C205.444 342.58 204.907 341.234 204.907 339.63C204.907 338.027 205.444 336.681 206.518 335.593C207.606 334.504 208.959 333.96 210.577 333.96C211.622 333.96 212.574 334.211 213.434 334.712C214.293 335.213 214.944 335.886 215.388 336.731L213.004 338.127C212.789 337.683 212.46 337.332 212.016 337.075C211.586 336.817 211.1 336.688 210.556 336.688C209.725 336.688 209.038 336.967 208.494 337.526C207.95 338.07 207.677 338.771 207.677 339.63C207.677 340.475 207.95 341.177 208.494 341.735C209.038 342.279 209.725 342.551 210.556 342.551C211.114 342.551 211.608 342.43 212.038 342.186C212.481 341.929 212.811 341.578 213.026 341.134L215.431 342.509C214.959 343.353 214.293 344.033 213.434 344.549C212.574 345.05 211.622 345.301 210.577 345.301ZM224.89 334.261H227.661V345H224.89V343.733C224.06 344.778 222.893 345.301 221.389 345.301C219.958 345.301 218.726 344.757 217.695 343.668C216.679 342.566 216.17 341.22 216.17 339.63C216.17 338.041 216.679 336.702 217.695 335.614C218.726 334.511 219.958 333.96 221.389 333.96C222.893 333.96 224.06 334.483 224.89 335.528V334.261ZM219.779 341.821C220.337 342.38 221.046 342.659 221.905 342.659C222.764 342.659 223.473 342.38 224.031 341.821C224.604 341.248 224.89 340.518 224.89 339.63C224.89 338.743 224.604 338.02 224.031 337.461C223.473 336.888 222.764 336.602 221.905 336.602C221.046 336.602 220.337 336.888 219.779 337.461C219.22 338.02 218.941 338.743 218.941 339.63C218.941 340.518 219.22 341.248 219.779 341.821ZM230.174 345V329.321H232.944V345H230.174ZM235.48 345V329.321H238.251V345H235.48ZM247.789 334.261H250.753L246.844 345C246.285 346.546 245.541 347.663 244.61 348.351C243.694 349.052 242.548 349.367 241.173 349.296V346.718C241.918 346.733 242.505 346.575 242.935 346.246C243.379 345.916 243.729 345.387 243.987 344.656L239.584 334.261H242.612L245.405 341.478L247.789 334.261ZM266.268 329.965H269.232V345H266.977L260.534 335.807V345H257.57V329.965H259.825L266.268 339.136V329.965ZM281.042 343.668C279.94 344.757 278.594 345.301 277.004 345.301C275.415 345.301 274.069 344.757 272.966 343.668C271.878 342.566 271.334 341.22 271.334 339.63C271.334 338.041 271.878 336.702 272.966 335.614C274.069 334.511 275.415 333.96 277.004 333.96C278.594 333.96 279.94 334.511 281.042 335.614C282.145 336.702 282.696 338.041 282.696 339.63C282.696 341.22 282.145 342.566 281.042 343.668ZM274.921 341.757C275.479 342.315 276.174 342.594 277.004 342.594C277.835 342.594 278.529 342.315 279.088 341.757C279.646 341.198 279.925 340.49 279.925 339.63C279.925 338.771 279.646 338.063 279.088 337.504C278.529 336.946 277.835 336.666 277.004 336.666C276.174 336.666 275.479 336.946 274.921 337.504C274.377 338.063 274.105 338.771 274.105 339.63C274.105 340.49 274.377 341.198 274.921 341.757ZM299.809 345L298.907 342.294H292.914L292.012 345H288.812L294.074 329.965H297.747L303.031 345H299.809ZM293.859 339.523H297.983L295.921 333.38L293.859 339.523ZM312.208 329.965H314.979V345H312.208V343.733C311.392 344.778 310.232 345.301 308.729 345.301C307.283 345.301 306.044 344.757 305.013 343.668C303.996 342.566 303.488 341.22 303.488 339.63C303.488 338.041 303.996 336.702 305.013 335.614C306.044 334.511 307.283 333.96 308.729 333.96C310.232 333.96 311.392 334.483 312.208 335.528V329.965ZM307.096 341.821C307.669 342.38 308.385 342.659 309.244 342.659C310.103 342.659 310.812 342.38 311.371 341.821C311.929 341.248 312.208 340.518 312.208 339.63C312.208 338.743 311.929 338.02 311.371 337.461C310.812 336.888 310.103 336.602 309.244 336.602C308.385 336.602 307.669 336.888 307.096 337.461C306.538 338.02 306.259 338.743 306.259 339.63C306.259 340.518 306.538 341.248 307.096 341.821ZM325.653 329.965H328.424V345H325.653V343.733C324.837 344.778 323.677 345.301 322.174 345.301C320.727 345.301 319.489 344.757 318.458 343.668C317.441 342.566 316.933 341.22 316.933 339.63C316.933 338.041 317.441 336.702 318.458 335.614C319.489 334.511 320.727 333.96 322.174 333.96C323.677 333.96 324.837 334.483 325.653 335.528V329.965ZM320.541 341.821C321.114 342.38 321.83 342.659 322.689 342.659C323.548 342.659 324.257 342.38 324.816 341.821C325.374 341.248 325.653 340.518 325.653 339.63C325.653 338.743 325.374 338.02 324.816 337.461C324.257 336.888 323.548 336.602 322.689 336.602C321.83 336.602 321.114 336.888 320.541 337.461C319.983 338.02 319.704 338.743 319.704 339.63C319.704 340.518 319.983 341.248 320.541 341.821ZM332.332 332.972C331.874 332.972 331.473 332.808 331.13 332.478C330.8 332.135 330.636 331.734 330.636 331.275C330.636 330.817 330.8 330.416 331.13 330.073C331.473 329.729 331.874 329.557 332.332 329.557C332.805 329.557 333.206 329.729 333.535 330.073C333.879 330.416 334.051 330.817 334.051 331.275C334.051 331.734 333.879 332.135 333.535 332.478C333.206 332.808 332.805 332.972 332.332 332.972ZM330.958 345V334.261H333.728V345H330.958ZM342.407 336.924H339.98V341.392C339.98 341.764 340.073 342.036 340.259 342.208C340.446 342.38 340.718 342.48 341.076 342.509C341.434 342.523 341.877 342.516 342.407 342.487V345C340.503 345.215 339.157 345.036 338.369 344.463C337.596 343.89 337.209 342.866 337.209 341.392V336.924H335.341V334.261H337.209V332.092L339.98 331.254V334.261H342.407V336.924ZM345.735 332.972C345.277 332.972 344.876 332.808 344.533 332.478C344.203 332.135 344.039 331.734 344.039 331.275C344.039 330.817 344.203 330.416 344.533 330.073C344.876 329.729 345.277 329.557 345.735 329.557C346.208 329.557 346.609 329.729 346.938 330.073C347.282 330.416 347.454 330.817 347.454 331.275C347.454 331.734 347.282 332.135 346.938 332.478C346.609 332.808 346.208 332.972 345.735 332.972ZM344.361 345V334.261H347.131V345H344.361ZM358.817 343.668C357.715 344.757 356.369 345.301 354.779 345.301C353.19 345.301 351.844 344.757 350.741 343.668C349.653 342.566 349.109 341.22 349.109 339.63C349.109 338.041 349.653 336.702 350.741 335.614C351.844 334.511 353.19 333.96 354.779 333.96C356.369 333.96 357.715 334.511 358.817 335.614C359.92 336.702 360.471 338.041 360.471 339.63C360.471 341.22 359.92 342.566 358.817 343.668ZM352.696 341.757C353.254 342.315 353.949 342.594 354.779 342.594C355.61 342.594 356.304 342.315 356.863 341.757C357.421 341.198 357.7 340.49 357.7 339.63C357.7 338.771 357.421 338.063 356.863 337.504C356.304 336.946 355.61 336.666 354.779 336.666C353.949 336.666 353.254 336.946 352.696 337.504C352.152 338.063 351.88 338.771 351.88 339.63C351.88 340.49 352.152 341.198 352.696 341.757ZM368.391 333.96C369.565 333.96 370.532 334.354 371.291 335.141C372.064 335.929 372.45 337.017 372.45 338.406V345H369.68V338.75C369.68 338.034 369.486 337.49 369.1 337.117C368.713 336.731 368.198 336.538 367.553 336.538C366.837 336.538 366.265 336.76 365.835 337.203C365.406 337.647 365.191 338.313 365.191 339.201V345H362.42V334.261H365.191V335.464C365.864 334.461 366.931 333.96 368.391 333.96ZM382.978 334.261H385.749V345H382.978V343.733C382.147 344.778 380.98 345.301 379.477 345.301C378.045 345.301 376.814 344.757 375.783 343.668C374.766 342.566 374.258 341.22 374.258 339.63C374.258 338.041 374.766 336.702 375.783 335.614C376.814 334.511 378.045 333.96 379.477 333.96C380.98 333.96 382.147 334.483 382.978 335.528V334.261ZM377.866 341.821C378.425 342.38 379.133 342.659 379.992 342.659C380.852 342.659 381.56 342.38 382.119 341.821C382.692 341.248 382.978 340.518 382.978 339.63C382.978 338.743 382.692 338.02 382.119 337.461C381.56 336.888 380.852 336.602 379.992 336.602C379.133 336.602 378.425 336.888 377.866 337.461C377.308 338.02 377.028 338.743 377.028 339.63C377.028 340.518 377.308 341.248 377.866 341.821ZM388.261 345V329.321H391.032V345H388.261ZM404.199 345.301C402.71 345.301 401.457 344.971 400.441 344.313C399.424 343.64 398.708 342.73 398.293 341.585L400.827 340.103C401.414 341.635 402.567 342.401 404.285 342.401C405.116 342.401 405.724 342.251 406.111 341.95C406.498 341.649 406.691 341.27 406.691 340.812C406.691 340.282 406.455 339.874 405.982 339.587C405.51 339.287 404.665 338.965 403.448 338.621C402.775 338.42 402.202 338.22 401.729 338.02C401.271 337.819 400.806 337.554 400.333 337.225C399.875 336.881 399.524 336.452 399.281 335.936C399.038 335.421 398.916 334.819 398.916 334.132C398.916 332.772 399.396 331.691 400.355 330.889C401.329 330.073 402.496 329.665 403.856 329.665C405.073 329.665 406.14 329.965 407.056 330.567C407.987 331.154 408.71 331.977 409.225 333.037L406.734 334.476C406.133 333.187 405.173 332.543 403.856 332.543C403.24 332.543 402.753 332.686 402.395 332.972C402.052 333.244 401.88 333.602 401.88 334.046C401.88 334.519 402.073 334.905 402.46 335.206C402.861 335.492 403.62 335.807 404.736 336.151C405.195 336.294 405.538 336.409 405.767 336.495C406.011 336.566 406.333 336.688 406.734 336.86C407.149 337.017 407.464 337.168 407.679 337.311C407.908 337.454 408.166 337.647 408.452 337.891C408.739 338.134 408.953 338.385 409.097 338.642C409.254 338.9 409.383 339.215 409.483 339.587C409.598 339.945 409.655 340.339 409.655 340.769C409.655 342.158 409.147 343.26 408.13 344.076C407.128 344.893 405.818 345.301 404.199 345.301ZM414.094 340.769C414.466 342.115 415.476 342.788 417.123 342.788C418.182 342.788 418.984 342.43 419.528 341.714L421.762 343.003C420.702 344.535 419.141 345.301 417.08 345.301C415.304 345.301 413.879 344.764 412.805 343.69C411.731 342.616 411.195 341.263 411.195 339.63C411.195 338.012 411.724 336.666 412.784 335.593C413.844 334.504 415.204 333.96 416.865 333.96C418.44 333.96 419.736 334.504 420.752 335.593C421.783 336.681 422.299 338.027 422.299 339.63C422.299 339.988 422.263 340.368 422.191 340.769H414.094ZM414.051 338.621H419.528C419.371 337.891 419.041 337.347 418.54 336.989C418.053 336.631 417.495 336.452 416.865 336.452C416.12 336.452 415.505 336.645 415.018 337.032C414.531 337.404 414.209 337.934 414.051 338.621ZM427.004 336.108C427.261 335.421 427.684 334.905 428.271 334.562C428.872 334.218 429.538 334.046 430.268 334.046V337.139C429.424 337.039 428.665 337.211 427.992 337.654C427.333 338.098 427.004 338.836 427.004 339.867V345H424.233V334.261H427.004V336.108ZM438.955 334.261H442.005L437.924 345H434.767L430.686 334.261H433.736L436.335 341.778L438.955 334.261ZM444.716 332.972C444.258 332.972 443.857 332.808 443.513 332.478C443.184 332.135 443.019 331.734 443.019 331.275C443.019 330.817 443.184 330.416 443.513 330.073C443.857 329.729 444.258 329.557 444.716 329.557C445.188 329.557 445.589 329.729 445.918 330.073C446.262 330.416 446.434 330.817 446.434 331.275C446.434 331.734 446.262 332.135 445.918 332.478C445.589 332.808 445.188 332.972 444.716 332.972ZM443.341 345V334.261H446.112V345H443.341ZM453.76 345.301C452.142 345.301 450.788 344.757 449.7 343.668C448.626 342.58 448.089 341.234 448.089 339.63C448.089 338.027 448.626 336.681 449.7 335.593C450.788 334.504 452.142 333.96 453.76 333.96C454.805 333.96 455.757 334.211 456.616 334.712C457.475 335.213 458.127 335.886 458.571 336.731L456.187 338.127C455.972 337.683 455.642 337.332 455.199 337.075C454.769 336.817 454.282 336.688 453.738 336.688C452.908 336.688 452.22 336.967 451.676 337.526C451.132 338.07 450.86 338.771 450.86 339.63C450.86 340.475 451.132 341.177 451.676 341.735C452.22 342.279 452.908 342.551 453.738 342.551C454.297 342.551 454.791 342.43 455.22 342.186C455.664 341.929 455.993 341.578 456.208 341.134L458.614 342.509C458.141 343.353 457.475 344.033 456.616 344.549C455.757 345.05 454.805 345.301 453.76 345.301ZM462.252 340.769C462.625 342.115 463.634 342.788 465.281 342.788C466.34 342.788 467.142 342.43 467.686 341.714L469.92 343.003C468.861 344.535 467.3 345.301 465.238 345.301C463.462 345.301 462.038 344.764 460.964 343.69C459.89 342.616 459.353 341.263 459.353 339.63C459.353 338.012 459.883 336.666 460.942 335.593C462.002 334.504 463.362 333.96 465.023 333.96C466.598 333.96 467.894 334.504 468.911 335.593C469.942 336.681 470.457 338.027 470.457 339.63C470.457 339.988 470.421 340.368 470.35 340.769H462.252ZM462.209 338.621H467.686C467.529 337.891 467.2 337.347 466.698 336.989C466.212 336.631 465.653 336.452 465.023 336.452C464.279 336.452 463.663 336.645 463.176 337.032C462.689 337.404 462.367 337.934 462.209 338.621ZM474.528 337.311C474.528 337.597 474.714 337.833 475.086 338.02C475.473 338.191 475.938 338.349 476.482 338.492C477.026 338.621 477.57 338.793 478.115 339.008C478.659 339.208 479.117 339.552 479.489 340.039C479.876 340.525 480.069 341.134 480.069 341.864C480.069 342.967 479.654 343.819 478.823 344.42C478.007 345.007 476.983 345.301 475.752 345.301C473.547 345.301 472.043 344.449 471.242 342.745L473.647 341.392C473.962 342.322 474.664 342.788 475.752 342.788C476.74 342.788 477.234 342.48 477.234 341.864C477.234 341.578 477.041 341.349 476.654 341.177C476.282 340.991 475.824 340.826 475.279 340.683C474.735 340.54 474.191 340.361 473.647 340.146C473.103 339.931 472.638 339.595 472.251 339.136C471.879 338.664 471.693 338.077 471.693 337.375C471.693 336.316 472.079 335.485 472.852 334.884C473.64 334.268 474.614 333.96 475.773 333.96C476.647 333.96 477.442 334.161 478.158 334.562C478.873 334.948 479.439 335.507 479.854 336.237L477.492 337.526C477.148 336.795 476.575 336.43 475.773 336.43C475.415 336.43 475.115 336.509 474.871 336.666C474.642 336.824 474.528 337.039 474.528 337.311Z" fill="#656565"/>
<path d="M148.196 211V204.014L164.407 187.329C168.024 183.53 169.833 180.365 169.833 177.833C169.833 175.979 169.245 174.487 168.069 173.357C166.939 172.226 165.469 171.661 163.661 171.661C160.089 171.661 157.443 173.515 155.725 177.223L147.857 172.61C149.349 169.355 151.497 166.868 154.301 165.15C157.104 163.431 160.179 162.572 163.525 162.572C167.821 162.572 171.506 163.929 174.581 166.642C177.656 169.31 179.193 172.927 179.193 177.494C179.193 182.423 176.593 187.487 171.393 192.687L162.101 201.979H179.939V211H148.196ZM195.556 210.186C194.426 211.317 193.069 211.882 191.486 211.882C189.904 211.882 188.547 211.317 187.417 210.186C186.286 209.056 185.721 207.699 185.721 206.117C185.721 204.534 186.286 203.177 187.417 202.047C188.547 200.917 189.904 200.351 191.486 200.351C193.069 200.351 194.426 200.917 195.556 202.047C196.686 203.177 197.252 204.534 197.252 206.117C197.252 207.699 196.686 209.056 195.556 210.186ZM219.538 180.817C224.105 180.817 227.948 182.197 231.068 184.955C234.188 187.668 235.748 191.466 235.748 196.35C235.748 201.233 234.098 205.054 230.797 207.812C227.541 210.57 223.54 211.95 218.792 211.95C214.948 211.95 211.557 211.09 208.618 209.372C205.679 207.654 203.553 205.122 202.242 201.776L210.246 197.096C211.421 200.894 214.27 202.793 218.792 202.793C221.188 202.793 223.042 202.228 224.353 201.097C225.71 199.922 226.388 198.339 226.388 196.35C226.388 194.405 225.733 192.845 224.421 191.67C223.11 190.494 221.324 189.906 219.063 189.906H204.684L206.583 163.522H233.51V172.271H215.265L214.654 180.817H219.538ZM259.034 181.767C256.864 183.892 254.151 184.955 250.895 184.955C247.64 184.955 244.904 183.87 242.688 181.699C240.518 179.529 239.433 176.883 239.433 173.763C239.433 170.643 240.518 167.998 242.688 165.828C244.904 163.657 247.64 162.572 250.895 162.572C254.151 162.572 256.864 163.657 259.034 165.828C261.205 167.953 262.29 170.598 262.29 173.763C262.29 176.929 261.205 179.597 259.034 181.767ZM244.248 203.81L275.177 169.423L279.314 171.729L248.318 206.184L244.248 203.81ZM247.775 176.883C248.589 177.697 249.607 178.104 250.827 178.104C252.048 178.104 253.066 177.697 253.88 176.883C254.693 176.024 255.1 174.984 255.1 173.763C255.1 172.543 254.693 171.525 253.88 170.711C253.066 169.897 252.048 169.49 250.827 169.49C249.607 169.49 248.589 169.897 247.775 170.711C247.007 171.525 246.622 172.543 246.622 173.763C246.622 174.984 247.007 176.024 247.775 176.883ZM281.96 208.558C279.789 210.729 277.076 211.814 273.82 211.814C270.565 211.814 267.852 210.729 265.681 208.558C263.511 206.388 262.426 203.743 262.426 200.623C262.426 197.503 263.511 194.857 265.681 192.687C267.852 190.517 270.565 189.431 273.82 189.431C277.076 189.431 279.789 190.517 281.96 192.687C284.13 194.857 285.215 197.503 285.215 200.623C285.215 203.743 284.13 206.388 281.96 208.558ZM270.768 203.743C271.582 204.557 272.6 204.963 273.82 204.963C275.041 204.963 276.036 204.534 276.805 203.675C277.619 202.816 278.026 201.798 278.026 200.623C278.026 199.402 277.619 198.384 276.805 197.57C276.036 196.711 275.041 196.282 273.82 196.282C272.6 196.282 271.582 196.711 270.768 197.57C270 198.384 269.615 199.402 269.615 200.623C269.615 201.843 270 202.883 270.768 203.743Z" fill="#656565"/>
<path d="M420.343 212.297C414.42 212.297 409.763 210.059 406.371 205.583C403.025 201.061 401.352 195.07 401.352 187.609C401.352 180.148 403.025 174.179 406.371 169.703C409.763 165.181 414.42 162.92 420.343 162.92C426.312 162.92 430.97 165.181 434.316 169.703C437.662 174.179 439.335 180.148 439.335 187.609C439.335 195.07 437.662 201.061 434.316 205.583C430.97 210.059 426.312 212.297 420.343 212.297ZM413.154 199.207C414.782 201.83 417.178 203.141 420.343 203.141C423.509 203.141 425.905 201.807 427.533 199.139C429.206 196.471 430.043 192.628 430.043 187.609C430.043 182.544 429.206 178.678 427.533 176.01C425.905 173.343 423.509 172.009 420.343 172.009C417.178 172.009 414.782 173.343 413.154 176.01C411.526 178.678 410.712 182.544 410.712 187.609C410.712 192.673 411.526 196.539 413.154 199.207ZM463.03 182.115C460.859 184.24 458.146 185.303 454.891 185.303C451.635 185.303 448.899 184.217 446.684 182.047C444.513 179.877 443.428 177.231 443.428 174.111C443.428 170.991 444.513 168.346 446.684 166.176C448.899 164.005 451.635 162.92 454.891 162.92C458.146 162.92 460.859 164.005 463.03 166.176C465.2 168.301 466.286 170.946 466.286 174.111C466.286 177.277 465.2 179.944 463.03 182.115ZM448.244 204.158L479.173 169.77L483.31 172.077L452.313 206.532L448.244 204.158ZM451.771 177.231C452.585 178.045 453.602 178.452 454.823 178.452C456.044 178.452 457.061 178.045 457.875 177.231C458.689 176.372 459.096 175.332 459.096 174.111C459.096 172.89 458.689 171.873 457.875 171.059C457.061 170.245 456.044 169.838 454.823 169.838C453.602 169.838 452.585 170.245 451.771 171.059C451.002 171.873 450.618 172.89 450.618 174.111C450.618 175.332 451.002 176.372 451.771 177.231ZM485.955 208.906C483.785 211.077 481.072 212.162 477.816 212.162C474.56 212.162 471.847 211.077 469.677 208.906C467.506 206.736 466.421 204.09 466.421 200.97C466.421 197.85 467.506 195.205 469.677 193.035C471.847 190.864 474.56 189.779 477.816 189.779C481.072 189.779 483.785 190.864 485.955 193.035C488.126 195.205 489.211 197.85 489.211 200.97C489.211 204.09 488.126 206.736 485.955 208.906ZM474.764 204.09C475.578 204.904 476.595 205.311 477.816 205.311C479.037 205.311 480.032 204.882 480.8 204.023C481.614 203.163 482.021 202.146 482.021 200.97C482.021 199.75 481.614 198.732 480.8 197.918C480.032 197.059 479.037 196.63 477.816 196.63C476.595 196.63 475.578 197.059 474.764 197.918C473.995 198.732 473.611 199.75 473.611 200.97C473.611 202.191 473.995 203.231 474.764 204.09Z" fill="#656565"/>
<path d="M414.961 235.196L408.856 246.056V253H405.372V246.056L399.293 235.196H403.261L407.127 242.623L410.993 235.196H414.961ZM424.816 251.423C423.51 252.712 421.917 253.356 420.034 253.356C418.152 253.356 416.558 252.712 415.253 251.423C413.964 250.117 413.32 248.523 413.32 246.641C413.32 244.759 413.964 243.174 415.253 241.885C416.558 240.579 418.152 239.927 420.034 239.927C421.917 239.927 423.51 240.579 424.816 241.885C426.122 243.174 426.775 244.759 426.775 246.641C426.775 248.523 426.122 250.117 424.816 251.423ZM417.567 249.159C418.228 249.821 419.051 250.151 420.034 250.151C421.018 250.151 421.84 249.821 422.502 249.159C423.163 248.498 423.493 247.659 423.493 246.641C423.493 245.624 423.163 244.785 422.502 244.123C421.84 243.462 421.018 243.131 420.034 243.131C419.051 243.131 418.228 243.462 417.567 244.123C416.923 244.785 416.601 245.624 416.601 246.641C416.601 247.659 416.923 248.498 417.567 249.159ZM437.476 240.283H440.757V253H437.476V251.576C436.679 252.763 435.416 253.356 433.686 253.356C432.296 253.356 431.143 252.89 430.227 251.957C429.329 251.025 428.879 249.736 428.879 248.091V240.283H432.16V247.684C432.16 248.532 432.389 249.185 432.847 249.643C433.305 250.083 433.915 250.304 434.678 250.304C435.526 250.304 436.205 250.041 436.713 249.515C437.222 248.99 437.476 248.201 437.476 247.15V240.283ZM467.747 243.437V244.81C467.747 247.353 466.934 249.414 465.306 250.991C463.678 252.568 461.575 253.356 458.998 253.356C456.251 253.356 453.97 252.466 452.156 250.685C450.359 248.888 449.46 246.701 449.46 244.123C449.46 241.529 450.35 239.333 452.13 237.536C453.928 235.738 456.149 234.84 458.794 234.84C460.456 234.84 461.974 235.221 463.347 235.984C464.721 236.73 465.789 237.731 466.552 238.985L463.551 240.715C463.127 239.986 462.482 239.392 461.618 238.935C460.77 238.477 459.82 238.248 458.769 238.248C457.073 238.248 455.674 238.807 454.572 239.927C453.487 241.029 452.944 242.428 452.944 244.123C452.944 245.802 453.495 247.192 454.598 248.295C455.717 249.38 457.192 249.922 459.023 249.922C460.38 249.922 461.499 249.626 462.381 249.032C463.279 248.422 463.89 247.591 464.212 246.54H458.82V243.437H467.747ZM472.864 247.989C473.305 249.583 474.5 250.38 476.45 250.38C477.705 250.38 478.654 249.956 479.299 249.108L481.944 250.635C480.689 252.449 478.841 253.356 476.399 253.356C474.297 253.356 472.609 252.72 471.338 251.448C470.066 250.177 469.43 248.574 469.43 246.641C469.43 244.725 470.057 243.131 471.312 241.86C472.567 240.571 474.178 239.927 476.145 239.927C478.01 239.927 479.545 240.571 480.749 241.86C481.969 243.148 482.58 244.742 482.58 246.641C482.58 247.065 482.537 247.515 482.453 247.989H472.864ZM472.813 245.446H479.299C479.112 244.581 478.722 243.937 478.129 243.513C477.552 243.089 476.891 242.877 476.145 242.877C475.263 242.877 474.534 243.106 473.957 243.564C473.381 244.005 472.999 244.632 472.813 245.446ZM491.772 243.437H488.898V248.727C488.898 249.168 489.008 249.49 489.229 249.693C489.449 249.897 489.771 250.016 490.195 250.05C490.619 250.067 491.145 250.058 491.772 250.024V253C489.517 253.254 487.923 253.042 486.99 252.364C486.075 251.686 485.617 250.473 485.617 248.727V243.437H483.404V240.283H485.617V237.714L488.898 236.722V240.283H491.772V243.437Z" fill="#656565"/>
<path d="M147.132 235.196V238.553H142.325V253H138.815V238.553H134.034V235.196H147.132ZM155.418 240.283H158.928L154.299 253C153.637 254.831 152.756 256.154 151.654 256.968C150.568 257.799 149.212 258.172 147.584 258.087V255.035C148.466 255.052 149.161 254.865 149.67 254.475C150.195 254.085 150.611 253.458 150.916 252.593L145.702 240.283H149.288L152.595 248.829L155.418 240.283ZM167.891 239.927C169.603 239.927 171.062 240.579 172.266 241.885C173.486 243.174 174.097 244.759 174.097 246.641C174.097 248.523 173.486 250.117 172.266 251.423C171.062 252.712 169.603 253.356 167.891 253.356C166.11 253.356 164.737 252.737 163.77 251.499V258.087H160.489V240.283H163.77V241.783C164.737 240.545 166.11 239.927 167.891 239.927ZM164.762 249.236C165.424 249.897 166.263 250.228 167.28 250.228C168.298 250.228 169.137 249.897 169.798 249.236C170.477 248.557 170.816 247.693 170.816 246.641C170.816 245.59 170.477 244.734 169.798 244.072C169.137 243.394 168.298 243.055 167.28 243.055C166.263 243.055 165.424 243.394 164.762 244.072C164.101 244.734 163.77 245.59 163.77 246.641C163.77 247.693 164.101 248.557 164.762 249.236ZM178.039 238.757C177.496 238.757 177.021 238.562 176.614 238.172C176.224 237.765 176.029 237.29 176.029 236.747C176.029 236.205 176.224 235.73 176.614 235.323C177.021 234.916 177.496 234.712 178.039 234.712C178.598 234.712 179.073 234.916 179.463 235.323C179.87 235.73 180.073 236.205 180.073 236.747C180.073 237.29 179.87 237.765 179.463 238.172C179.073 238.562 178.598 238.757 178.039 238.757ZM176.411 253V240.283H179.692V253H176.411ZM188.749 253.356C186.832 253.356 185.23 252.712 183.941 251.423C182.67 250.134 182.034 248.54 182.034 246.641C182.034 244.742 182.67 243.148 183.941 241.86C185.23 240.571 186.832 239.927 188.749 239.927C189.986 239.927 191.114 240.223 192.131 240.817C193.149 241.41 193.92 242.207 194.446 243.208L191.623 244.861C191.368 244.335 190.978 243.92 190.453 243.615C189.944 243.309 189.367 243.157 188.723 243.157C187.74 243.157 186.926 243.487 186.281 244.149C185.637 244.793 185.315 245.624 185.315 246.641C185.315 247.642 185.637 248.473 186.281 249.134C186.926 249.778 187.74 250.1 188.723 250.1C189.384 250.1 189.969 249.956 190.478 249.668C191.004 249.363 191.394 248.947 191.648 248.422L194.497 250.05C193.937 251.05 193.149 251.855 192.131 252.466C191.114 253.059 189.986 253.356 188.749 253.356ZM205.699 240.283H208.98V253H205.699V251.499C204.715 252.737 203.333 253.356 201.553 253.356C199.857 253.356 198.399 252.712 197.178 251.423C195.974 250.117 195.372 248.523 195.372 246.641C195.372 244.759 195.974 243.174 197.178 241.885C198.399 240.579 199.857 239.927 201.553 239.927C203.333 239.927 204.715 240.545 205.699 241.783V240.283ZM199.645 249.236C200.306 249.897 201.146 250.228 202.163 250.228C203.181 250.228 204.02 249.897 204.681 249.236C205.36 248.557 205.699 247.693 205.699 246.641C205.699 245.59 205.36 244.734 204.681 244.072C204.02 243.394 203.181 243.055 202.163 243.055C201.146 243.055 200.306 243.394 199.645 244.072C198.984 244.734 198.653 245.59 198.653 246.641C198.653 247.693 198.984 248.557 199.645 249.236ZM211.955 253V234.433H215.236V253H211.955ZM236.196 253L235.128 249.795H228.032L226.963 253H223.174L229.405 235.196H233.754L240.011 253H236.196ZM229.151 246.514H234.034L231.592 239.24L229.151 246.514ZM250.981 240.283H254.186V252.39C254.186 254.357 253.533 255.857 252.228 256.892C250.939 257.926 249.379 258.443 247.548 258.443C246.174 258.443 244.962 258.18 243.91 257.655C242.876 257.129 242.079 256.357 241.52 255.34L244.317 253.738C244.962 254.925 246.072 255.518 247.649 255.518C248.684 255.518 249.498 255.247 250.091 254.704C250.685 254.162 250.981 253.39 250.981 252.39V251.016C250.015 252.305 248.658 252.949 246.912 252.949C245.114 252.949 243.605 252.322 242.384 251.067C241.18 249.795 240.578 248.252 240.578 246.438C240.578 244.64 241.189 243.106 242.41 241.834C243.631 240.562 245.131 239.927 246.912 239.927C248.658 239.927 250.015 240.571 250.981 241.86V240.283ZM244.852 248.956C245.53 249.6 246.386 249.922 247.42 249.922C248.455 249.922 249.303 249.6 249.964 248.956C250.642 248.295 250.981 247.455 250.981 246.438C250.981 245.437 250.642 244.615 249.964 243.971C249.303 243.309 248.455 242.979 247.42 242.979C246.386 242.979 245.53 243.309 244.852 243.971C244.19 244.615 243.86 245.437 243.86 246.438C243.86 247.455 244.19 248.295 244.852 248.956ZM259.934 247.989C260.375 249.583 261.57 250.38 263.52 250.38C264.775 250.38 265.724 249.956 266.369 249.108L269.014 250.635C267.759 252.449 265.911 253.356 263.469 253.356C261.367 253.356 259.679 252.72 258.408 251.448C257.136 250.177 256.5 248.574 256.5 246.641C256.5 244.725 257.127 243.131 258.382 241.86C259.637 240.571 261.248 239.927 263.215 239.927C265.08 239.927 266.615 240.571 267.819 241.86C269.039 243.148 269.65 244.742 269.65 246.641C269.65 247.065 269.607 247.515 269.523 247.989H259.934ZM259.883 245.446H266.369C266.182 244.581 265.792 243.937 265.199 243.513C264.622 243.089 263.961 242.877 263.215 242.877C262.333 242.877 261.604 243.106 261.027 243.564C260.451 244.005 260.069 244.632 259.883 245.446ZM279.011 239.927C280.402 239.927 281.546 240.393 282.445 241.325C283.361 242.258 283.818 243.547 283.818 245.192V253H280.537V245.598C280.537 244.751 280.308 244.106 279.851 243.665C279.393 243.208 278.782 242.979 278.019 242.979C277.171 242.979 276.493 243.242 275.984 243.767C275.476 244.293 275.221 245.081 275.221 246.133V253H271.94V240.283H275.221V241.707C276.018 240.52 277.282 239.927 279.011 239.927ZM293.894 243.437H291.02V248.727C291.02 249.168 291.13 249.49 291.351 249.693C291.571 249.897 291.893 250.016 292.317 250.05C292.741 250.067 293.267 250.058 293.894 250.024V253C291.639 253.254 290.045 253.042 289.113 252.364C288.197 251.686 287.739 250.473 287.739 248.727V243.437H285.526V240.283H287.739V237.714L291.02 236.722V240.283H293.894V243.437Z" fill="#656565"/>
<g filter="url(#filter1_d)">
<rect x="14" y="435" width="617" height="368" rx="19.2174" fill="white"/>
</g>
<path d="M213.595 757.288C215.068 758.136 215.804 759.416 215.804 761.128C215.804 762.552 215.299 763.72 214.291 764.632C213.283 765.544 212.043 766 210.571 766H203.443V749.2H210.067C211.507 749.2 212.715 749.648 213.691 750.544C214.683 751.424 215.179 752.552 215.179 753.928C215.179 755.32 214.651 756.44 213.595 757.288ZM210.067 752.296H206.755V755.992H210.067C210.579 755.992 211.003 755.816 211.339 755.464C211.691 755.112 211.867 754.672 211.867 754.144C211.867 753.616 211.699 753.176 211.363 752.824C211.027 752.472 210.595 752.296 210.067 752.296ZM210.571 762.904C211.131 762.904 211.595 762.72 211.963 762.352C212.331 761.968 212.515 761.488 212.515 760.912C212.515 760.352 212.331 759.888 211.963 759.52C211.595 759.136 211.131 758.944 210.571 758.944H206.755V762.904H210.571ZM226.009 754H229.105V766H226.009V764.656C225.257 765.776 224.065 766.336 222.433 766.336C221.121 766.336 220.033 765.896 219.169 765.016C218.321 764.136 217.897 762.92 217.897 761.368V754H220.993V760.984C220.993 761.784 221.209 762.4 221.641 762.832C222.073 763.248 222.649 763.456 223.369 763.456C224.169 763.456 224.809 763.208 225.289 762.712C225.769 762.216 226.009 761.472 226.009 760.48V754ZM233.476 752.56C232.964 752.56 232.516 752.376 232.132 752.008C231.764 751.624 231.58 751.176 231.58 750.664C231.58 750.152 231.764 749.704 232.132 749.32C232.516 748.936 232.964 748.744 233.476 748.744C234.004 748.744 234.452 748.936 234.82 749.32C235.204 749.704 235.396 750.152 235.396 750.664C235.396 751.176 235.204 751.624 234.82 752.008C234.452 752.376 234.004 752.56 233.476 752.56ZM231.94 766V754H235.036V766H231.94ZM237.87 766V748.48H240.966V766H237.87ZM250.663 756.976H247.951V761.968C247.951 762.384 248.055 762.688 248.263 762.88C248.471 763.072 248.775 763.184 249.175 763.216C249.575 763.232 250.071 763.224 250.663 763.192V766C248.535 766.24 247.031 766.04 246.151 765.4C245.287 764.76 244.855 763.616 244.855 761.968V756.976H242.767V754H244.855V751.576L247.951 750.64V754H250.663V756.976ZM260.57 752.56C260.058 752.56 259.61 752.376 259.226 752.008C258.858 751.624 258.674 751.176 258.674 750.664C258.674 750.152 258.858 749.704 259.226 749.32C259.61 748.936 260.058 748.744 260.57 748.744C261.098 748.744 261.546 748.936 261.914 749.32C262.298 749.704 262.49 750.152 262.49 750.664C262.49 751.176 262.298 751.624 261.914 752.008C261.546 752.376 261.098 752.56 260.57 752.56ZM259.034 766V754H262.13V766H259.034ZM271.636 753.664C272.948 753.664 274.028 754.104 274.876 754.984C275.74 755.864 276.172 757.08 276.172 758.632V766H273.076V759.016C273.076 758.216 272.86 757.608 272.428 757.192C271.996 756.76 271.42 756.544 270.7 756.544C269.9 756.544 269.26 756.792 268.78 757.288C268.3 757.784 268.06 758.528 268.06 759.52V766H264.964V754H268.06V755.344C268.812 754.224 270.004 753.664 271.636 753.664ZM294.991 752.368H288.271V756.352H294.799V759.52H288.271V766H284.959V749.2H294.991V752.368ZM300.356 756.064C300.644 755.296 301.116 754.72 301.772 754.336C302.444 753.952 303.188 753.76 304.004 753.76V757.216C303.06 757.104 302.212 757.296 301.46 757.792C300.724 758.288 300.356 759.112 300.356 760.264V766H297.26V754H300.356V756.064ZM307.986 761.272C308.402 762.776 309.53 763.528 311.37 763.528C312.554 763.528 313.45 763.128 314.058 762.328L316.554 763.768C315.37 765.48 313.626 766.336 311.322 766.336C309.338 766.336 307.746 765.736 306.546 764.536C305.346 763.336 304.746 761.824 304.746 760C304.746 758.192 305.338 756.688 306.522 755.488C307.706 754.272 309.226 753.664 311.082 753.664C312.842 753.664 314.29 754.272 315.426 755.488C316.578 756.704 317.154 758.208 317.154 760C317.154 760.4 317.114 760.824 317.034 761.272H307.986ZM307.938 758.872H314.058C313.882 758.056 313.514 757.448 312.954 757.048C312.41 756.648 311.786 756.448 311.082 756.448C310.25 756.448 309.562 756.664 309.018 757.096C308.474 757.512 308.114 758.104 307.938 758.872ZM321.837 761.272C322.253 762.776 323.381 763.528 325.221 763.528C326.405 763.528 327.301 763.128 327.909 762.328L330.405 763.768C329.221 765.48 327.477 766.336 325.173 766.336C323.189 766.336 321.597 765.736 320.397 764.536C319.197 763.336 318.597 761.824 318.597 760C318.597 758.192 319.189 756.688 320.373 755.488C321.557 754.272 323.077 753.664 324.933 753.664C326.693 753.664 328.141 754.272 329.277 755.488C330.429 756.704 331.005 758.208 331.005 760C331.005 760.4 330.965 760.824 330.885 761.272H321.837ZM321.789 758.872H327.909C327.733 758.056 327.365 757.448 326.805 757.048C326.261 756.648 325.637 756.448 324.933 756.448C324.101 756.448 323.413 756.664 322.869 757.096C322.325 757.512 321.965 758.104 321.789 758.872ZM349.343 752.368H342.623V756.352H349.151V759.52H342.623V766H339.311V749.2H349.343V752.368ZM354.228 761.272C354.644 762.776 355.772 763.528 357.612 763.528C358.796 763.528 359.692 763.128 360.3 762.328L362.796 763.768C361.612 765.48 359.868 766.336 357.564 766.336C355.58 766.336 353.988 765.736 352.788 764.536C351.588 763.336 350.988 761.824 350.988 760C350.988 758.192 351.58 756.688 352.764 755.488C353.948 754.272 355.468 753.664 357.324 753.664C359.084 753.664 360.532 754.272 361.668 755.488C362.82 756.704 363.396 758.208 363.396 760C363.396 760.4 363.356 760.824 363.276 761.272H354.228ZM354.18 758.872H360.3C360.124 758.056 359.756 757.448 359.196 757.048C358.652 756.648 358.028 756.448 357.324 756.448C356.492 756.448 355.804 756.664 355.26 757.096C354.716 757.512 354.356 758.104 354.18 758.872ZM374.584 754H377.68V766H374.584V764.584C373.656 765.752 372.352 766.336 370.672 766.336C369.072 766.336 367.696 765.728 366.544 764.512C365.408 763.28 364.84 761.776 364.84 760C364.84 758.224 365.408 756.728 366.544 755.512C367.696 754.28 369.072 753.664 370.672 753.664C372.352 753.664 373.656 754.248 374.584 755.416V754ZM368.872 762.448C369.496 763.072 370.288 763.384 371.248 763.384C372.208 763.384 373 763.072 373.624 762.448C374.264 761.808 374.584 760.992 374.584 760C374.584 759.008 374.264 758.2 373.624 757.576C373 756.936 372.208 756.616 371.248 756.616C370.288 756.616 369.496 756.936 368.872 757.576C368.248 758.2 367.936 759.008 367.936 760C367.936 760.992 368.248 761.808 368.872 762.448ZM387.351 756.976H384.639V761.968C384.639 762.384 384.743 762.688 384.951 762.88C385.159 763.072 385.463 763.184 385.863 763.216C386.263 763.232 386.759 763.224 387.351 763.192V766C385.223 766.24 383.719 766.04 382.839 765.4C381.975 764.76 381.543 763.616 381.543 761.968V756.976H379.455V754H381.543V751.576L384.639 750.64V754H387.351V756.976ZM397.641 754H400.737V766H397.641V764.656C396.889 765.776 395.697 766.336 394.065 766.336C392.753 766.336 391.665 765.896 390.801 765.016C389.953 764.136 389.529 762.92 389.529 761.368V754H392.625V760.984C392.625 761.784 392.841 762.4 393.273 762.832C393.705 763.248 394.281 763.456 395.001 763.456C395.801 763.456 396.441 763.208 396.921 762.712C397.401 762.216 397.641 761.472 397.641 760.48V754ZM406.669 756.064C406.957 755.296 407.429 754.72 408.085 754.336C408.757 753.952 409.501 753.76 410.317 753.76V757.216C409.373 757.104 408.525 757.296 407.773 757.792C407.037 758.288 406.669 759.112 406.669 760.264V766H403.573V754H406.669V756.064ZM414.298 761.272C414.714 762.776 415.842 763.528 417.682 763.528C418.866 763.528 419.762 763.128 420.37 762.328L422.866 763.768C421.682 765.48 419.938 766.336 417.634 766.336C415.65 766.336 414.058 765.736 412.858 764.536C411.658 763.336 411.058 761.824 411.058 760C411.058 758.192 411.65 756.688 412.834 755.488C414.018 754.272 415.538 753.664 417.394 753.664C419.154 753.664 420.602 754.272 421.738 755.488C422.89 756.704 423.466 758.208 423.466 760C423.466 760.4 423.426 760.824 423.346 761.272H414.298ZM414.25 758.872H420.37C420.194 758.056 419.826 757.448 419.266 757.048C418.722 756.648 418.098 756.448 417.394 756.448C416.562 756.448 415.874 756.664 415.33 757.096C414.786 757.512 414.426 758.104 414.25 758.872ZM428.015 757.408C428.015 757.728 428.223 757.992 428.639 758.2C429.071 758.392 429.591 758.568 430.199 758.728C430.807 758.872 431.415 759.064 432.023 759.304C432.631 759.528 433.143 759.912 433.559 760.456C433.991 761 434.207 761.68 434.207 762.496C434.207 763.728 433.743 764.68 432.815 765.352C431.903 766.008 430.759 766.336 429.383 766.336C426.919 766.336 425.239 765.384 424.343 763.48L427.031 761.968C427.383 763.008 428.167 763.528 429.383 763.528C430.487 763.528 431.039 763.184 431.039 762.496C431.039 762.176 430.823 761.92 430.391 761.728C429.975 761.52 429.463 761.336 428.855 761.176C428.247 761.016 427.639 760.816 427.031 760.576C426.423 760.336 425.903 759.96 425.471 759.448C425.055 758.92 424.847 758.264 424.847 757.48C424.847 756.296 425.279 755.368 426.143 754.696C427.023 754.008 428.111 753.664 429.407 753.664C430.383 753.664 431.271 753.888 432.071 754.336C432.871 754.768 433.503 755.392 433.967 756.208L431.327 757.648C430.943 756.832 430.303 756.424 429.407 756.424C429.007 756.424 428.671 756.512 428.399 756.688C428.143 756.864 428.015 757.104 428.015 757.408Z" fill="#249FFB"/>
<path d="M177.039 639.95C171.116 639.95 166.458 637.711 163.067 633.235C159.721 628.713 158.048 622.722 158.048 615.261C158.048 607.8 159.721 601.831 163.067 597.355C166.458 592.833 171.116 590.572 177.039 590.572C183.008 590.572 187.665 592.833 191.011 597.355C194.357 601.831 196.03 607.8 196.03 615.261C196.03 622.722 194.357 628.713 191.011 633.235C187.665 637.711 183.008 639.95 177.039 639.95ZM169.85 626.859C171.477 629.482 173.874 630.793 177.039 630.793C180.204 630.793 182.601 629.459 184.229 626.791C185.902 624.123 186.738 620.28 186.738 615.261C186.738 610.197 185.902 606.33 184.229 603.663C182.601 600.995 180.204 599.661 177.039 599.661C173.874 599.661 171.477 600.995 169.85 603.663C168.222 606.33 167.408 610.197 167.408 615.261C167.408 620.325 168.222 624.191 169.85 626.859ZM219.726 609.767C217.555 611.892 214.842 612.955 211.586 612.955C208.331 612.955 205.595 611.87 203.379 609.699C201.209 607.529 200.124 604.883 200.124 601.763C200.124 598.643 201.209 595.998 203.379 593.828C205.595 591.657 208.331 590.572 211.586 590.572C214.842 590.572 217.555 591.657 219.726 593.828C221.896 595.953 222.981 598.598 222.981 601.763C222.981 604.929 221.896 607.597 219.726 609.767ZM204.939 631.81L235.868 597.423L240.006 599.729L209.009 634.184L204.939 631.81ZM208.466 604.883C209.28 605.697 210.298 606.104 211.519 606.104C212.739 606.104 213.757 605.697 214.571 604.883C215.385 604.024 215.792 602.984 215.792 601.763C215.792 600.543 215.385 599.525 214.571 598.711C213.757 597.897 212.739 597.49 211.519 597.49C210.298 597.49 209.28 597.897 208.466 598.711C207.698 599.525 207.313 600.543 207.313 601.763C207.313 602.984 207.698 604.024 208.466 604.883ZM242.651 636.558C240.48 638.729 237.767 639.814 234.512 639.814C231.256 639.814 228.543 638.729 226.373 636.558C224.202 634.388 223.117 631.743 223.117 628.623C223.117 625.503 224.202 622.857 226.373 620.687C228.543 618.517 231.256 617.431 234.512 617.431C237.767 617.431 240.48 618.517 242.651 620.687C244.821 622.857 245.906 625.503 245.906 628.623C245.906 631.743 244.821 634.388 242.651 636.558ZM231.459 631.743C232.273 632.557 233.291 632.963 234.512 632.963C235.733 632.963 236.727 632.534 237.496 631.675C238.31 630.816 238.717 629.798 238.717 628.623C238.717 627.402 238.31 626.384 237.496 625.57C236.727 624.711 235.733 624.282 234.512 624.282C233.291 624.282 232.273 624.711 231.459 625.57C230.691 626.384 230.306 627.402 230.306 628.623C230.306 629.843 230.691 630.883 231.459 631.743Z" fill="#249FFB"/>
<path d="M376.196 639V632.014L392.407 615.329C396.024 611.53 397.833 608.365 397.833 605.833C397.833 603.979 397.245 602.487 396.069 601.357C394.939 600.226 393.469 599.661 391.661 599.661C388.089 599.661 385.443 601.515 383.725 605.223L375.857 600.61C377.349 597.355 379.497 594.868 382.301 593.15C385.104 591.431 388.179 590.572 391.525 590.572C395.821 590.572 399.506 591.929 402.581 594.642C405.656 597.31 407.193 600.927 407.193 605.494C407.193 610.423 404.593 615.487 399.393 620.687L390.101 629.979H407.939V639H376.196ZM423.556 638.186C422.426 639.317 421.069 639.882 419.486 639.882C417.904 639.882 416.547 639.317 415.417 638.186C414.286 637.056 413.721 635.699 413.721 634.117C413.721 632.534 414.286 631.177 415.417 630.047C416.547 628.917 417.904 628.351 419.486 628.351C421.069 628.351 422.426 628.917 423.556 630.047C424.686 631.177 425.252 632.534 425.252 634.117C425.252 635.699 424.686 637.056 423.556 638.186ZM447.538 608.817C452.105 608.817 455.948 610.197 459.068 612.955C462.188 615.668 463.748 619.466 463.748 624.35C463.748 629.233 462.098 633.054 458.797 635.812C455.541 638.57 451.54 639.95 446.792 639.95C442.948 639.95 439.557 639.09 436.618 637.372C433.679 635.654 431.553 633.122 430.242 629.776L438.246 625.096C439.421 628.894 442.27 630.793 446.792 630.793C449.188 630.793 451.042 630.228 452.353 629.097C453.71 627.922 454.388 626.339 454.388 624.35C454.388 622.405 453.733 620.845 452.421 619.67C451.11 618.494 449.324 617.906 447.063 617.906H432.684L434.583 591.522H461.51V600.271H443.265L442.654 608.817H447.538ZM487.034 609.767C484.864 611.892 482.151 612.955 478.895 612.955C475.64 612.955 472.904 611.87 470.688 609.699C468.518 607.529 467.433 604.883 467.433 601.763C467.433 598.643 468.518 595.998 470.688 593.828C472.904 591.657 475.64 590.572 478.895 590.572C482.151 590.572 484.864 591.657 487.034 593.828C489.205 595.953 490.29 598.598 490.29 601.763C490.29 604.929 489.205 607.597 487.034 609.767ZM472.248 631.81L503.177 597.423L507.314 599.729L476.318 634.184L472.248 631.81ZM475.775 604.883C476.589 605.697 477.607 606.104 478.827 606.104C480.048 606.104 481.066 605.697 481.88 604.883C482.693 604.024 483.1 602.984 483.1 601.763C483.1 600.543 482.693 599.525 481.88 598.711C481.066 597.897 480.048 597.49 478.827 597.49C477.607 597.49 476.589 597.897 475.775 598.711C475.007 599.525 474.622 600.543 474.622 601.763C474.622 602.984 475.007 604.024 475.775 604.883ZM509.96 636.558C507.789 638.729 505.076 639.814 501.82 639.814C498.565 639.814 495.852 638.729 493.681 636.558C491.511 634.388 490.426 631.743 490.426 628.623C490.426 625.503 491.511 622.857 493.681 620.687C495.852 618.517 498.565 617.431 501.82 617.431C505.076 617.431 507.789 618.517 509.96 620.687C512.13 622.857 513.215 625.503 513.215 628.623C513.215 631.743 512.13 634.388 509.96 636.558ZM498.768 631.743C499.582 632.557 500.6 632.963 501.82 632.963C503.041 632.963 504.036 632.534 504.805 631.675C505.619 630.816 506.026 629.798 506.026 628.623C506.026 627.402 505.619 626.384 504.805 625.57C504.036 624.711 503.041 624.282 501.82 624.282C500.6 624.282 499.582 624.711 498.768 625.57C498 626.384 497.615 627.402 497.615 628.623C497.615 629.843 498 630.883 498.768 631.743Z" fill="#249FFB"/>
<path d="M399.961 662.196L393.856 673.056V680H390.372V673.056L384.293 662.196H388.261L392.127 669.623L395.993 662.196H399.961ZM409.816 678.423C408.51 679.712 406.917 680.356 405.034 680.356C403.152 680.356 401.558 679.712 400.253 678.423C398.964 677.117 398.32 675.523 398.32 673.641C398.32 671.759 398.964 670.174 400.253 668.885C401.558 667.579 403.152 666.927 405.034 666.927C406.917 666.927 408.51 667.579 409.816 668.885C411.122 670.174 411.775 671.759 411.775 673.641C411.775 675.523 411.122 677.117 409.816 678.423ZM402.567 676.159C403.228 676.821 404.051 677.151 405.034 677.151C406.018 677.151 406.84 676.821 407.502 676.159C408.163 675.498 408.493 674.659 408.493 673.641C408.493 672.624 408.163 671.785 407.502 671.123C406.84 670.462 406.018 670.131 405.034 670.131C404.051 670.131 403.228 670.462 402.567 671.123C401.923 671.785 401.601 672.624 401.601 673.641C401.601 674.659 401.923 675.498 402.567 676.159ZM422.476 667.283H425.757V680H422.476V678.576C421.679 679.763 420.416 680.356 418.686 680.356C417.296 680.356 416.143 679.89 415.227 678.957C414.329 678.025 413.879 676.736 413.879 675.091V667.283H417.16V674.684C417.16 675.532 417.389 676.185 417.847 676.643C418.305 677.083 418.915 677.304 419.678 677.304C420.526 677.304 421.205 677.041 421.713 676.515C422.222 675.99 422.476 675.201 422.476 674.15V667.283ZM452.747 670.437V671.81C452.747 674.353 451.934 676.414 450.306 677.991C448.678 679.568 446.575 680.356 443.998 680.356C441.251 680.356 438.97 679.466 437.156 677.685C435.359 675.888 434.46 673.701 434.46 671.123C434.46 668.529 435.35 666.333 437.13 664.536C438.928 662.738 441.149 661.84 443.794 661.84C445.456 661.84 446.974 662.221 448.347 662.984C449.721 663.73 450.789 664.731 451.552 665.985L448.551 667.715C448.127 666.986 447.482 666.392 446.618 665.935C445.77 665.477 444.82 665.248 443.769 665.248C442.073 665.248 440.674 665.807 439.572 666.927C438.487 668.029 437.944 669.428 437.944 671.123C437.944 672.802 438.495 674.192 439.598 675.295C440.717 676.38 442.192 676.922 444.023 676.922C445.38 676.922 446.499 676.626 447.381 676.032C448.279 675.422 448.89 674.591 449.212 673.54H443.82V670.437H452.747ZM457.864 674.989C458.305 676.583 459.5 677.38 461.45 677.38C462.705 677.38 463.654 676.956 464.299 676.108L466.944 677.635C465.689 679.449 463.841 680.356 461.399 680.356C459.297 680.356 457.609 679.72 456.338 678.448C455.066 677.177 454.43 675.574 454.43 673.641C454.43 671.725 455.057 670.131 456.312 668.86C457.567 667.571 459.178 666.927 461.145 666.927C463.01 666.927 464.545 667.571 465.749 668.86C466.969 670.148 467.58 671.742 467.58 673.641C467.58 674.065 467.537 674.515 467.453 674.989H457.864ZM457.813 672.446H464.299C464.112 671.581 463.722 670.937 463.129 670.513C462.552 670.089 461.891 669.877 461.145 669.877C460.263 669.877 459.534 670.106 458.957 670.564C458.381 671.005 457.999 671.632 457.813 672.446ZM476.772 670.437H473.898V675.727C473.898 676.168 474.008 676.49 474.229 676.693C474.449 676.897 474.771 677.016 475.195 677.05C475.619 677.067 476.145 677.058 476.772 677.024V680C474.517 680.254 472.923 680.042 471.99 679.364C471.075 678.686 470.617 677.473 470.617 675.727V670.437H468.404V667.283H470.617V664.714L473.898 663.722V667.283H476.772V670.437Z" fill="#249FFB"/>
<path d="M406.579 568.356C404.595 568.356 402.967 567.797 401.696 566.677C400.424 565.558 399.788 564.058 399.788 562.175V550.196H403.273V561.896C403.273 562.828 403.536 563.566 404.061 564.108C404.604 564.651 405.443 564.922 406.579 564.922C407.715 564.922 408.546 564.651 409.072 564.108C409.614 563.566 409.886 562.828 409.886 561.896V550.196H413.396V562.175C413.396 564.058 412.76 565.558 411.488 566.677C410.216 567.797 408.58 568.356 406.579 568.356ZM423.807 554.927C425.519 554.927 426.978 555.579 428.182 556.885C429.402 558.174 430.013 559.759 430.013 561.641C430.013 563.523 429.402 565.117 428.182 566.423C426.978 567.712 425.519 568.356 423.807 568.356C422.026 568.356 420.653 567.737 419.686 566.499V573.087H416.405V555.283H419.686V556.783C420.653 555.545 422.026 554.927 423.807 554.927ZM420.678 564.236C421.34 564.897 422.179 565.228 423.196 565.228C424.214 565.228 425.053 564.897 425.714 564.236C426.393 563.557 426.732 562.693 426.732 561.641C426.732 560.59 426.393 559.734 425.714 559.072C425.053 558.394 424.214 558.055 423.196 558.055C422.179 558.055 421.34 558.394 420.678 559.072C420.017 559.734 419.686 560.59 419.686 561.641C419.686 562.693 420.017 563.557 420.678 564.236ZM450.614 550.196V553.553H445.807V568H442.297V553.553H437.515V550.196H450.614ZM460.946 566.423C459.641 567.712 458.047 568.356 456.165 568.356C454.283 568.356 452.689 567.712 451.383 566.423C450.094 565.117 449.45 563.523 449.45 561.641C449.45 559.759 450.094 558.174 451.383 556.885C452.689 555.579 454.283 554.927 456.165 554.927C458.047 554.927 459.641 555.579 460.946 556.885C462.252 558.174 462.905 559.759 462.905 561.641C462.905 563.523 462.252 565.117 460.946 566.423ZM453.698 564.159C454.359 564.821 455.181 565.151 456.165 565.151C457.148 565.151 457.971 564.821 458.632 564.159C459.293 563.498 459.624 562.659 459.624 561.641C459.624 560.624 459.293 559.785 458.632 559.123C457.971 558.462 457.148 558.131 456.165 558.131C455.181 558.131 454.359 558.462 453.698 559.123C453.053 559.785 452.731 560.624 452.731 561.641C452.731 562.659 453.053 563.498 453.698 564.159Z" fill="#249FFB"/>
<path d="M159.067 662.196H162.577V680H159.907L152.276 669.114V680H148.766V662.196H151.437L159.067 673.056V662.196ZM176.563 678.423C175.257 679.712 173.663 680.356 171.781 680.356C169.899 680.356 168.305 679.712 166.999 678.423C165.71 677.117 165.066 675.523 165.066 673.641C165.066 671.759 165.71 670.174 166.999 668.885C168.305 667.579 169.899 666.927 171.781 666.927C173.663 666.927 175.257 667.579 176.563 668.885C177.868 670.174 178.521 671.759 178.521 673.641C178.521 675.523 177.868 677.117 176.563 678.423ZM169.314 676.159C169.975 676.821 170.797 677.151 171.781 677.151C172.764 677.151 173.587 676.821 174.248 676.159C174.909 675.498 175.24 674.659 175.24 673.641C175.24 672.624 174.909 671.785 174.248 671.123C173.587 670.462 172.764 670.131 171.781 670.131C170.797 670.131 169.975 670.462 169.314 671.123C168.669 671.785 168.347 672.624 168.347 673.641C168.347 674.659 168.669 675.498 169.314 676.159ZM198.786 680L197.718 676.795H190.622L189.553 680H185.764L191.995 662.196H196.344L202.601 680H198.786ZM191.741 673.514H196.624L194.183 666.24L191.741 673.514ZM213.571 667.283H216.776V679.39C216.776 681.357 216.123 682.857 214.818 683.892C213.529 684.926 211.969 685.443 210.138 685.443C208.764 685.443 207.552 685.18 206.5 684.655C205.466 684.129 204.669 683.357 204.11 682.34L206.907 680.738C207.552 681.925 208.662 682.518 210.239 682.518C211.274 682.518 212.088 682.247 212.681 681.704C213.275 681.162 213.571 680.39 213.571 679.39V678.016C212.605 679.305 211.248 679.949 209.502 679.949C207.704 679.949 206.195 679.322 204.974 678.067C203.77 676.795 203.169 675.252 203.169 673.438C203.169 671.64 203.779 670.106 205 668.834C206.221 667.562 207.721 666.927 209.502 666.927C211.248 666.927 212.605 667.571 213.571 668.86V667.283ZM207.442 675.956C208.12 676.6 208.976 676.922 210.01 676.922C211.045 676.922 211.893 676.6 212.554 675.956C213.232 675.295 213.571 674.455 213.571 673.438C213.571 672.437 213.232 671.615 212.554 670.971C211.893 670.309 211.045 669.979 210.01 669.979C208.976 669.979 208.12 670.309 207.442 670.971C206.78 671.615 206.45 672.437 206.45 673.438C206.45 674.455 206.78 675.295 207.442 675.956ZM222.524 674.989C222.965 676.583 224.16 677.38 226.11 677.38C227.365 677.38 228.314 676.956 228.959 676.108L231.604 677.635C230.349 679.449 228.501 680.356 226.059 680.356C223.957 680.356 222.269 679.72 220.998 678.448C219.726 677.177 219.09 675.574 219.09 673.641C219.09 671.725 219.718 670.131 220.972 668.86C222.227 667.571 223.838 666.927 225.805 666.927C227.67 666.927 229.205 667.571 230.409 668.86C231.629 670.148 232.24 671.742 232.24 673.641C232.24 674.065 232.198 674.515 232.113 674.989H222.524ZM222.473 672.446H228.959C228.772 671.581 228.382 670.937 227.789 670.513C227.212 670.089 226.551 669.877 225.805 669.877C224.923 669.877 224.194 670.106 223.618 670.564C223.041 671.005 222.659 671.632 222.473 672.446ZM241.601 666.927C242.992 666.927 244.136 667.393 245.035 668.325C245.951 669.258 246.408 670.547 246.408 672.192V680H243.127V672.598C243.127 671.751 242.898 671.106 242.441 670.665C241.983 670.208 241.372 669.979 240.609 669.979C239.761 669.979 239.083 670.242 238.575 670.767C238.066 671.293 237.811 672.081 237.811 673.133V680H234.53V667.283H237.811V668.707C238.608 667.52 239.872 666.927 241.601 666.927ZM256.484 670.437H253.61V675.727C253.61 676.168 253.72 676.49 253.941 676.693C254.161 676.897 254.484 677.016 254.907 677.05C255.331 677.067 255.857 677.058 256.484 677.024V680C254.229 680.254 252.635 680.042 251.703 679.364C250.787 678.686 250.329 677.473 250.329 675.727V670.437H248.116V667.283H250.329V664.714L253.61 663.722V667.283H256.484V670.437Z" fill="#249FFB"/>
<path d="M187.661 557.196C190.103 557.196 192.137 558.052 193.765 559.765C195.41 561.477 196.232 563.588 196.232 566.098C196.232 568.607 195.41 570.718 193.765 572.431C192.137 574.144 190.103 575 187.661 575H180.59V557.196H187.661ZM187.661 571.643C189.204 571.643 190.459 571.134 191.425 570.117C192.392 569.082 192.875 567.743 192.875 566.098C192.875 564.453 192.392 563.122 191.425 562.105C190.459 561.07 189.204 560.553 187.661 560.553H184.1V571.643H187.661ZM198.722 557.196H202.232V575H198.722V557.196ZM219.619 557.196L213.514 568.056V575H210.03V568.056L203.951 557.196H207.919L211.785 564.623L215.651 557.196H219.619Z" fill="#249FFB"/>
<path d="M176.867 483.094C178.529 483.094 179.854 483.635 180.84 484.718C181.845 485.801 182.348 487.251 182.348 489.068V498H178.607V489.329C178.607 488.459 178.394 487.782 177.969 487.299C177.543 486.816 176.944 486.574 176.171 486.574C175.32 486.574 174.653 486.854 174.17 487.415C173.706 487.976 173.474 488.788 173.474 489.851V498H169.733V489.329C169.733 488.459 169.52 487.782 169.095 487.299C168.669 486.816 168.07 486.574 167.297 486.574C166.465 486.574 165.798 486.854 165.296 487.415C164.812 487.976 164.571 488.788 164.571 489.851V498H160.83V483.5H164.571V485.037C165.441 483.742 166.784 483.094 168.602 483.094C170.38 483.094 171.695 483.79 172.546 485.182C173.512 483.79 174.953 483.094 176.867 483.094ZM194.667 483.5H198.669L193.391 498C192.637 500.088 191.632 501.596 190.375 502.524C189.138 503.471 187.591 503.897 185.735 503.8V500.32C186.741 500.339 187.533 500.127 188.113 499.682C188.713 499.237 189.186 498.522 189.534 497.536L183.589 483.5H187.678L191.448 493.244L194.667 483.5ZM212.166 477.7H216.139V498H212.166V489.59H204.626V498H200.624V477.7H204.626V485.762H212.166V477.7ZM232.09 496.202C230.601 497.671 228.784 498.406 226.638 498.406C224.492 498.406 222.675 497.671 221.186 496.202C219.717 494.713 218.982 492.896 218.982 490.75C218.982 488.604 219.717 486.796 221.186 485.327C222.675 483.838 224.492 483.094 226.638 483.094C228.784 483.094 230.601 483.838 232.09 485.327C233.579 486.796 234.323 488.604 234.323 490.75C234.323 492.896 233.579 494.713 232.09 496.202ZM223.825 493.621C224.579 494.375 225.517 494.752 226.638 494.752C227.759 494.752 228.697 494.375 229.451 493.621C230.205 492.867 230.582 491.91 230.582 490.75C230.582 489.59 230.205 488.633 229.451 487.879C228.697 487.125 227.759 486.748 226.638 486.748C225.517 486.748 224.579 487.125 223.825 487.879C223.09 488.633 222.723 489.59 222.723 490.75C222.723 491.91 223.09 492.867 223.825 493.621ZM252.992 483.094C254.654 483.094 255.979 483.635 256.965 484.718C257.97 485.801 258.473 487.251 258.473 489.068V498H254.732V489.329C254.732 488.459 254.519 487.782 254.094 487.299C253.668 486.816 253.069 486.574 252.296 486.574C251.445 486.574 250.778 486.854 250.295 487.415C249.831 487.976 249.599 488.788 249.599 489.851V498H245.858V489.329C245.858 488.459 245.645 487.782 245.22 487.299C244.794 486.816 244.195 486.574 243.422 486.574C242.59 486.574 241.923 486.854 241.421 487.415C240.937 487.976 240.696 488.788 240.696 489.851V498H236.955V483.5H240.696V485.037C241.566 483.742 242.909 483.094 244.727 483.094C246.505 483.094 247.82 483.79 248.671 485.182C249.637 483.79 251.078 483.094 252.992 483.094ZM264.811 492.287C265.314 494.104 266.677 495.013 268.9 495.013C270.331 495.013 271.413 494.53 272.148 493.563L275.164 495.303C273.733 497.372 271.626 498.406 268.842 498.406C266.445 498.406 264.521 497.681 263.071 496.231C261.621 494.781 260.896 492.954 260.896 490.75C260.896 488.565 261.611 486.748 263.042 485.298C264.473 483.829 266.309 483.094 268.552 483.094C270.679 483.094 272.428 483.829 273.801 485.298C275.193 486.767 275.889 488.585 275.889 490.75C275.889 491.233 275.841 491.746 275.744 492.287H264.811ZM264.753 489.387H272.148C271.935 488.401 271.491 487.666 270.814 487.183C270.157 486.7 269.403 486.458 268.552 486.458C267.547 486.458 266.715 486.719 266.058 487.241C265.401 487.744 264.966 488.459 264.753 489.387ZM278.501 498V476.83H282.242V498H278.501ZM295.12 483.5H299.122L293.844 498C293.09 500.088 292.084 501.596 290.828 502.524C289.59 503.471 288.044 503.897 286.188 503.8V500.32C287.193 500.339 287.986 500.127 288.566 499.682C289.165 499.237 289.639 498.522 289.987 497.536L284.042 483.5H288.131L291.901 493.244L295.12 483.5ZM328.191 477.7V498H324.218V484.834L318.505 494.259H318.041L312.328 484.863V498H308.326V477.7H312.444L318.273 487.299L324.073 477.7H328.191ZM342.819 483.5H346.56V498H342.819V496.289C341.698 497.7 340.122 498.406 338.092 498.406C336.159 498.406 334.496 497.671 333.104 496.202C331.732 494.713 331.045 492.896 331.045 490.75C331.045 488.604 331.732 486.796 333.104 485.327C334.496 483.838 336.159 483.094 338.092 483.094C340.122 483.094 341.698 483.8 342.819 485.211V483.5ZM335.917 493.708C336.671 494.462 337.628 494.839 338.788 494.839C339.948 494.839 340.905 494.462 341.659 493.708C342.433 492.935 342.819 491.949 342.819 490.75C342.819 489.551 342.433 488.575 341.659 487.821C340.905 487.048 339.948 486.661 338.788 486.661C337.628 486.661 336.671 487.048 335.917 487.821C335.163 488.575 334.786 489.551 334.786 490.75C334.786 491.949 335.163 492.935 335.917 493.708ZM353.694 485.994C354.042 485.066 354.612 484.37 355.405 483.906C356.217 483.442 357.116 483.21 358.102 483.21V487.386C356.961 487.251 355.936 487.483 355.028 488.082C354.138 488.681 353.694 489.677 353.694 491.069V498H349.953V483.5H353.694V485.994ZM373.659 498H369.309L364.031 491.417V498H360.29V477.7H364.031V489.88L369.019 483.5H373.485L367.656 490.663L373.659 498ZM377.639 492.287C378.142 494.104 379.505 495.013 381.728 495.013C383.159 495.013 384.241 494.53 384.976 493.563L387.992 495.303C386.561 497.372 384.454 498.406 381.67 498.406C379.273 498.406 377.349 497.681 375.899 496.231C374.449 494.781 373.724 492.954 373.724 490.75C373.724 488.565 374.439 486.748 375.87 485.298C377.301 483.829 379.137 483.094 381.38 483.094C383.507 483.094 385.256 483.829 386.629 485.298C388.021 486.767 388.717 488.585 388.717 490.75C388.717 491.233 388.669 491.746 388.572 492.287H377.639ZM377.581 489.387H384.976C384.763 488.401 384.319 487.666 383.642 487.183C382.985 486.7 382.231 486.458 381.38 486.458C380.375 486.458 379.543 486.719 378.886 487.241C378.229 487.744 377.794 488.459 377.581 489.387ZM399.198 487.096H395.921V493.128C395.921 493.631 396.047 493.998 396.298 494.23C396.549 494.462 396.917 494.597 397.4 494.636C397.883 494.655 398.483 494.646 399.198 494.607V498C396.627 498.29 394.809 498.048 393.746 497.275C392.702 496.502 392.18 495.119 392.18 493.128V487.096H389.657V483.5H392.18V480.571L395.921 479.44V483.5H399.198V487.096ZM410.501 483.094C412.454 483.094 414.116 483.838 415.489 485.327C416.881 486.796 417.577 488.604 417.577 490.75C417.577 492.896 416.881 494.713 415.489 496.202C414.116 497.671 412.454 498.406 410.501 498.406C408.471 498.406 406.905 497.7 405.803 496.289V503.8H402.062V483.5H405.803V485.211C406.905 483.8 408.471 483.094 410.501 483.094ZM406.934 493.708C407.688 494.462 408.645 494.839 409.805 494.839C410.965 494.839 411.922 494.462 412.676 493.708C413.449 492.935 413.836 491.949 413.836 490.75C413.836 489.551 413.449 488.575 412.676 487.821C411.922 487.048 410.965 486.661 409.805 486.661C408.645 486.661 407.688 487.048 406.934 487.821C406.18 488.575 405.803 489.551 405.803 490.75C405.803 491.949 406.18 492.935 406.934 493.708ZM420.215 498V476.83H423.956V498H420.215ZM438.4 483.5H442.141V498H438.4V496.289C437.279 497.7 435.703 498.406 433.673 498.406C431.74 498.406 430.077 497.671 428.685 496.202C427.313 494.713 426.626 492.896 426.626 490.75C426.626 488.604 427.313 486.796 428.685 485.327C430.077 483.838 431.74 483.094 433.673 483.094C435.703 483.094 437.279 483.8 438.4 485.211V483.5ZM431.498 493.708C432.252 494.462 433.209 494.839 434.369 494.839C435.529 494.839 436.486 494.462 437.24 493.708C438.014 492.935 438.4 491.949 438.4 490.75C438.4 489.551 438.014 488.575 437.24 487.821C436.486 487.048 435.529 486.661 434.369 486.661C433.209 486.661 432.252 487.048 431.498 487.821C430.744 488.575 430.367 489.551 430.367 490.75C430.367 491.949 430.744 492.935 431.498 493.708ZM452.436 498.406C450.251 498.406 448.424 497.671 446.955 496.202C445.505 494.733 444.78 492.915 444.78 490.75C444.78 488.585 445.505 486.767 446.955 485.298C448.424 483.829 450.251 483.094 452.436 483.094C453.847 483.094 455.133 483.432 456.293 484.109C457.453 484.786 458.332 485.694 458.932 486.835L455.713 488.72C455.423 488.121 454.978 487.647 454.379 487.299C453.799 486.951 453.141 486.777 452.407 486.777C451.285 486.777 450.357 487.154 449.623 487.908C448.888 488.643 448.521 489.59 448.521 490.75C448.521 491.891 448.888 492.838 449.623 493.592C450.357 494.327 451.285 494.694 452.407 494.694C453.161 494.694 453.828 494.53 454.408 494.201C455.007 493.853 455.452 493.379 455.742 492.78L458.99 494.636C458.352 495.777 457.453 496.695 456.293 497.391C455.133 498.068 453.847 498.406 452.436 498.406ZM463.903 492.287C464.405 494.104 465.768 495.013 467.992 495.013C469.422 495.013 470.505 494.53 471.24 493.563L474.256 495.303C472.825 497.372 470.718 498.406 467.934 498.406C465.536 498.406 463.613 497.681 462.163 496.231C460.713 494.781 459.988 492.954 459.988 490.75C459.988 488.565 460.703 486.748 462.134 485.298C463.564 483.829 465.401 483.094 467.644 483.094C469.77 483.094 471.52 483.829 472.893 485.298C474.285 486.767 474.981 488.585 474.981 490.75C474.981 491.233 474.932 491.746 474.836 492.287H463.903ZM463.845 489.387H471.24C471.027 488.401 470.582 487.666 469.906 487.183C469.248 486.7 468.494 486.458 467.644 486.458C466.638 486.458 465.807 486.719 465.15 487.241C464.492 487.744 464.057 488.459 463.845 489.387Z" fill="#249FFB"/>
</g>
<defs>
<filter id="filter0_d" x="-8.6087" y="-0.956522" width="662.217" height="413.217" filterUnits="userSpaceOnUse" color-interpolation-filters="sRGB">
<feFlood flood-opacity="0" result="BackgroundImageFix"/>
<feColorMatrix in="SourceAlpha" type="matrix" values="0 0 0 0 0 0 0 0 0 0 0 0 0 0 0 0 0 0 127 0"/>
<feOffset dy="5.65217"/>
<feGaussianBlur stdDeviation="11.3043"/>
<feColorMatrix type="matrix" values="0 0 0 0 0.504167 0 0 0 0 0.413837 0 0 0 0 0.413837 0 0 0 0.25 0"/>
<feBlend mode="normal" in2="BackgroundImageFix" result="effect1_dropShadow"/>
<feBlend mode="normal" in="SourceGraphic" in2="effect1_dropShadow" result="shape"/>
</filter>
<filter id="filter1_d" x="-8.6087" y="418.043" width="662.217" height="413.217" filterUnits="userSpaceOnUse" color-interpolation-filters="sRGB">
<feFlood flood-opacity="0" result="BackgroundImageFix"/>
<feColorMatrix in="SourceAlpha" type="matrix" values="0 0 0 0 0 0 0 0 0 0 0 0 0 0 0 0 0 0 127 0"/>
<feOffset dy="5.65217"/>
<feGaussianBlur stdDeviation="11.3043"/>
<feColorMatrix type="matrix" values="0 0 0 0 0.504167 0 0 0 0 0.413837 0 0 0 0 0.413837 0 0 0 0.25 0"/>
<feBlend mode="normal" in2="BackgroundImageFix" result="effect1_dropShadow"/>
<feBlend mode="normal" in="SourceGraphic" in2="effect1_dropShadow" result="shape"/>
</filter>
<clipPath id="clip0">
<rect width="649" height="835" fill="white"/>
</clipPath>
</defs>
</svg>
