<svg width="116" height="131" viewBox="0 0 116 131" fill="none" xmlns="http://www.w3.org/2000/svg">
<path d="M62.0276 2.76684C61.7942 2.76785 61.5657 2.69961 61.3711 2.57077C61.1765 2.44193 61.0245 2.25827 60.9342 2.04302C60.844 1.82777 60.8196 1.59059 60.8642 1.36149C60.9088 1.13239 61.0203 0.921659 61.1847 0.75594C61.349 0.590221 61.5588 0.476962 61.7875 0.430488C62.0163 0.384014 62.2536 0.406412 62.4696 0.494849C62.6856 0.583286 62.8705 0.733789 63.001 0.927326C63.1314 1.12086 63.2015 1.34874 63.2025 1.58213C63.2037 1.89502 63.0807 2.19561 62.8603 2.41777C62.64 2.63994 62.3405 2.7655 62.0276 2.76684Z" fill="#C5DED9"/>
<path d="M62.0775 15.4836C61.8442 15.4846 61.6157 15.4164 61.4211 15.2876C61.2265 15.1587 61.0744 14.9751 60.9842 14.7598C60.894 14.5446 60.8696 14.3074 60.9142 14.0783C60.9588 13.8492 61.0703 13.6385 61.2346 13.4727C61.399 13.307 61.6088 13.1938 61.8375 13.1473C62.0662 13.1008 62.3036 13.1232 62.5196 13.2116C62.7356 13.3001 62.9205 13.4506 63.051 13.6441C63.1814 13.8377 63.2515 14.0655 63.2525 14.2989C63.2537 14.6118 63.1307 14.9124 62.9103 15.1346C62.69 15.3567 62.3904 15.4823 62.0775 15.4836Z" fill="#C5DED9"/>
<path d="M62.1271 28.2014C61.8938 28.2022 61.6654 28.1338 61.4709 28.0049C61.2764 27.8759 61.1245 27.6922 61.0344 27.4769C60.9443 27.2616 60.9201 27.0244 60.9648 26.7954C61.0095 26.5663 61.1212 26.3556 61.2856 26.19C61.45 26.0244 61.6599 25.9113 61.8886 25.8649C62.1173 25.8186 62.3547 25.8411 62.5706 25.9296C62.7865 26.0182 62.9714 26.1687 63.1017 26.3623C63.2321 26.5559 63.3021 26.7838 63.3029 27.0172C63.3035 27.1721 63.2735 27.3257 63.2148 27.4691C63.156 27.6125 63.0695 27.7429 62.9603 27.8528C62.8511 27.9628 62.7214 28.0502 62.5784 28.11C62.4354 28.1698 62.2821 28.2009 62.1271 28.2014Z" fill="#C5DED9"/>
<path d="M62.1771 40.9182C61.9437 40.9192 61.7153 40.851 61.5206 40.7221C61.326 40.5933 61.174 40.4096 61.0838 40.1944C60.9935 39.9791 60.9692 39.742 61.0138 39.5129C61.0583 39.2838 61.1698 39.073 61.3342 38.9073C61.4985 38.7416 61.7083 38.6283 61.9371 38.5819C62.1658 38.5354 62.4032 38.5578 62.6191 38.6462C62.8351 38.7347 63.0201 38.8852 63.1505 39.0787C63.281 39.2722 63.3511 39.5001 63.352 39.7335C63.353 40.0463 63.2299 40.3467 63.0096 40.5688C62.7893 40.791 62.4899 40.9166 62.1771 40.9182Z" fill="#C5DED9"/>
<path d="M62.2267 53.6357C61.9933 53.6367 61.7648 53.5685 61.5702 53.4397C61.3756 53.3108 61.2236 53.1272 61.1333 52.9119C61.0431 52.6967 61.0187 52.4595 61.0633 52.2304C61.1079 52.0013 61.2194 51.7906 61.3838 51.6248C61.5481 51.4591 61.7579 51.3459 61.9866 51.2994C62.2154 51.2529 62.4527 51.2753 62.6687 51.3637C62.8847 51.4522 63.0696 51.6027 63.2001 51.7962C63.3305 51.9898 63.4006 52.2176 63.4016 52.451C63.4026 52.7638 63.2794 53.0643 63.0591 53.2864C62.8389 53.5085 62.5395 53.6341 62.2267 53.6357Z" fill="#C5DED9"/>
<path d="M62.2772 66.3518C62.0437 66.3529 61.8152 66.2847 61.6205 66.1559C61.4258 66.0271 61.2737 65.8434 61.1834 65.6281C61.0932 65.4128 61.0688 65.1756 61.1134 64.9464C61.158 64.7173 61.2695 64.5065 61.434 64.3407C61.5984 64.175 61.8083 64.0618 62.0371 64.0154C62.2658 63.969 62.5033 63.9915 62.7193 64.08C62.9353 64.1686 63.1202 64.3192 63.2505 64.5129C63.3809 64.7065 63.4509 64.9345 63.4516 65.168C63.4526 65.4806 63.3295 65.7809 63.1093 66.0029C62.8891 66.2248 62.5898 66.3503 62.2772 66.3518Z" fill="#C5DED9"/>
<path d="M62.3262 79.0681C62.0929 79.0689 61.8645 79.0005 61.67 78.8716C61.4755 78.7426 61.3236 78.5589 61.2335 78.3436C61.1434 78.1283 61.1192 77.8911 61.1639 77.6621C61.2086 77.433 61.3203 77.2223 61.4847 77.0567C61.6491 76.8911 61.859 76.778 62.0877 76.7316C62.3164 76.6853 62.5538 76.7078 62.7697 76.7963C62.9856 76.8849 63.1705 77.0354 63.3008 77.229C63.4312 77.4226 63.5012 77.6505 63.502 77.8839C63.5027 78.0389 63.4729 78.1925 63.4141 78.3359C63.3554 78.4794 63.2689 78.6098 63.1597 78.7198C63.0505 78.8298 62.9207 78.9172 62.7777 78.977C62.6346 79.0367 62.4812 79.0677 62.3262 79.0681Z" fill="#C5DED9"/>
<path d="M62.3772 91.7854C62.1438 91.7864 61.9153 91.7182 61.7207 91.5893C61.5261 91.4605 61.3741 91.2768 61.2838 91.0616C61.1936 90.8463 61.1693 90.6091 61.2138 90.38C61.2584 90.1509 61.3699 89.9402 61.5343 89.7745C61.6986 89.6088 61.9084 89.4955 62.1371 89.449C62.3659 89.4026 62.6032 89.425 62.8192 89.5134C63.0352 89.6018 63.2201 89.7523 63.3506 89.9459C63.481 90.1394 63.5512 90.3673 63.5521 90.6007C63.5533 90.9136 63.4303 91.2142 63.2099 91.4363C62.9896 91.6585 62.6901 91.7841 62.3772 91.7854Z" fill="#C5DED9"/>
<path d="M62.4262 104.502C62.1928 104.503 61.9644 104.434 61.7698 104.306C61.5752 104.177 61.4231 103.993 61.3329 103.778C61.2427 103.563 61.2183 103.325 61.2629 103.096C61.3075 102.867 61.419 102.657 61.5833 102.491C61.7477 102.325 61.9575 102.212 62.1862 102.165C62.4149 102.119 62.6523 102.141 62.8683 102.23C63.0843 102.318 63.2692 102.469 63.3997 102.662C63.5301 102.856 63.6002 103.084 63.6012 103.317C63.6024 103.63 63.4793 103.93 63.259 104.153C63.0387 104.375 62.7391 104.5 62.4262 104.502Z" fill="#C5DED9"/>
<path d="M62.4767 117.22C62.2433 117.221 62.0149 117.152 61.8203 117.024C61.6257 116.895 61.4736 116.711 61.3834 116.496C61.2932 116.281 61.2688 116.043 61.3134 115.814C61.358 115.585 61.4695 115.375 61.6338 115.209C61.7982 115.043 62.008 114.93 62.2367 114.883C62.4654 114.837 62.7028 114.859 62.9188 114.948C63.1348 115.036 63.3197 115.187 63.4501 115.38C63.5806 115.574 63.6507 115.802 63.6516 116.035C63.6529 116.348 63.5298 116.648 63.3095 116.871C63.0892 117.093 62.7896 117.218 62.4767 117.22Z" fill="#C5DED9"/>
<path d="M62.5258 129.936C62.2924 129.937 62.0641 129.869 61.8696 129.74C61.675 129.611 61.5232 129.427 61.4331 129.212C61.343 128.996 61.3188 128.759 61.3635 128.53C61.4082 128.301 61.5198 128.091 61.6843 127.925C61.8487 127.759 62.0586 127.646 62.2873 127.6C62.516 127.553 62.7533 127.576 62.9693 127.664C63.1852 127.753 63.37 127.904 63.5004 128.097C63.6308 128.291 63.7008 128.519 63.7016 128.752C63.7022 128.907 63.6722 129.061 63.6134 129.204C63.5546 129.347 63.4682 129.478 63.359 129.588C63.2498 129.698 63.12 129.785 62.9771 129.845C62.8341 129.905 62.6808 129.936 62.5258 129.936Z" fill="#C5DED9"/>
<path d="M50.7491 2.81177C50.5157 2.81277 50.2873 2.74453 50.0927 2.61569C49.8981 2.48685 49.746 2.30319 49.6558 2.08794C49.5656 1.87269 49.5412 1.63552 49.5858 1.40642C49.6304 1.17732 49.7419 0.966581 49.9062 0.800862C50.0706 0.635143 50.2804 0.521884 50.5091 0.47541C50.7378 0.428936 50.9752 0.451333 51.1912 0.53977C51.4072 0.628208 51.5921 0.778711 51.7225 0.972247C51.853 1.16578 51.9231 1.39366 51.924 1.62705C51.925 1.93987 51.8019 2.24029 51.5816 2.4624C51.3613 2.68451 51.0619 2.81016 50.7491 2.81177Z" fill="#C5DED9"/>
<path d="M50.7991 15.5286C50.5657 15.5296 50.3373 15.4613 50.1427 15.3325C49.948 15.2036 49.796 15.02 49.7058 14.8047C49.6156 14.5895 49.5912 14.3523 49.6358 14.1232C49.6803 13.8941 49.7919 13.6834 49.9562 13.5177C50.1206 13.3519 50.3304 13.2387 50.5591 13.1922C50.7878 13.1457 51.0252 13.1681 51.2412 13.2566C51.4572 13.345 51.6421 13.4955 51.7725 13.689C51.903 13.8826 51.9731 14.1105 51.974 14.3438C51.975 14.6567 51.8519 14.9571 51.6316 15.1792C51.4113 15.4013 51.1119 15.527 50.7991 15.5286Z" fill="#C5DED9"/>
<path d="M50.8487 28.2441C50.6153 28.2451 50.3868 28.1767 50.1922 28.0478C49.9977 27.9188 49.8457 27.735 49.7556 27.5197C49.6655 27.3044 49.6412 27.0671 49.686 26.838C49.7307 26.6089 49.8424 26.3982 50.0069 26.2326C50.1714 26.067 50.3813 25.9539 50.6101 25.9076C50.8389 25.8613 51.0763 25.8839 51.2922 25.9726C51.5082 26.0612 51.693 26.2119 51.8233 26.4056C51.9535 26.5993 52.0234 26.8273 52.0241 27.0608C52.0247 27.2157 51.9947 27.3691 51.9359 27.5125C51.8772 27.6558 51.7907 27.7861 51.6816 27.896C51.5724 28.0059 51.4427 28.0932 51.2998 28.1529C51.1569 28.2127 51.0036 28.2437 50.8487 28.2441Z" fill="#C5DED9"/>
<path d="M50.8996 40.9612C50.6662 40.9622 50.4377 40.8939 50.2431 40.7651C50.0485 40.6363 49.8965 40.4526 49.8062 40.2374C49.716 40.0221 49.6917 39.7849 49.7362 39.5558C49.7808 39.3267 49.8923 39.116 50.0567 38.9503C50.221 38.7846 50.4308 38.6713 50.6595 38.6248C50.8883 38.5783 51.1256 38.6007 51.3416 38.6892C51.5576 38.7776 51.7425 38.9281 51.873 39.1217C52.0034 39.3152 52.0736 39.5431 52.0745 39.7765C52.0757 40.0894 51.9527 40.3899 51.7323 40.6121C51.512 40.8343 51.2125 40.9598 50.8996 40.9612Z" fill="#C5DED9"/>
<path d="M50.9491 53.679C50.7157 53.68 50.4873 53.6117 50.2927 53.4829C50.0981 53.354 49.946 53.1704 49.8558 52.9551C49.7656 52.7399 49.7412 52.5027 49.7858 52.2736C49.8304 52.0445 49.9419 51.8338 50.1062 51.668C50.2706 51.5023 50.4804 51.3891 50.7091 51.3426C50.9378 51.2961 51.1752 51.3185 51.3912 51.407C51.6072 51.4954 51.7921 51.6459 51.9225 51.8394C52.053 52.033 52.1231 52.2608 52.1241 52.4942C52.1253 52.8071 52.0022 53.1077 51.7819 53.3299C51.5616 53.552 51.262 53.6776 50.9491 53.679Z" fill="#C5DED9"/>
<path d="M50.9991 66.3958C50.7658 66.3966 50.5374 66.3282 50.3429 66.1992C50.1484 66.0702 49.9965 65.8865 49.9064 65.6712C49.8163 65.4559 49.7921 65.2187 49.8368 64.9897C49.8815 64.7606 49.9932 64.55 50.1576 64.3844C50.322 64.2188 50.5319 64.1056 50.7606 64.0593C50.9893 64.0129 51.2267 64.0354 51.4426 64.124C51.6585 64.2125 51.8434 64.3631 51.9737 64.5567C52.1041 64.7502 52.1741 64.9781 52.175 65.2115C52.1755 65.3665 52.1456 65.52 52.0868 65.6634C52.028 65.8068 51.9415 65.9372 51.8323 66.0472C51.7231 66.1571 51.5934 66.2445 51.4504 66.3043C51.3075 66.3641 51.1541 66.3952 50.9991 66.3958Z" fill="#C5DED9"/>
<path d="M51.0483 79.1121C50.8149 79.1129 50.5865 79.0445 50.392 78.9155C50.1975 78.7866 50.0456 78.6028 49.9555 78.3875C49.8655 78.1722 49.8413 77.935 49.886 77.706C49.9307 77.4769 50.0423 77.2663 50.2067 77.1007C50.3712 76.9351 50.581 76.8219 50.8097 76.7756C51.0385 76.7292 51.2758 76.7517 51.4917 76.8403C51.7077 76.9288 51.8925 77.0794 52.0229 77.273C52.1532 77.4665 52.2232 77.6944 52.2241 77.9278C52.2248 78.0828 52.1949 78.2364 52.1362 78.3799C52.0774 78.5233 51.991 78.6538 51.8818 78.7638C51.7725 78.8738 51.6427 78.9611 51.4997 79.0209C51.3567 79.0807 51.2033 79.1116 51.0483 79.1121Z" fill="#C5DED9"/>
<path d="M51.0987 91.8303C50.8653 91.8313 50.6369 91.7631 50.4423 91.6342C50.2477 91.5054 50.0956 91.3217 50.0054 91.1065C49.9152 90.8912 49.8908 90.6541 49.9354 90.425C49.98 90.1959 50.0915 89.9851 50.2558 89.8194C50.4202 89.6537 50.63 89.5404 50.8587 89.494C51.0874 89.4475 51.3248 89.4699 51.5408 89.5583C51.7568 89.6468 51.9417 89.7973 52.0721 89.9908C52.2026 90.1843 52.2727 90.4122 52.2737 90.6456C52.2746 90.9584 52.1515 91.2588 51.9312 91.481C51.7109 91.7031 51.4115 91.8287 51.0987 91.8303Z" fill="#C5DED9"/>
<path d="M51.1478 104.547C50.9144 104.548 50.6858 104.48 50.4912 104.351C50.2965 104.222 50.1444 104.038 50.0541 103.823C49.9638 103.608 49.9394 103.37 49.984 103.141C50.0286 102.912 50.1402 102.701 50.3046 102.536C50.469 102.37 50.6789 102.257 50.9077 102.21C51.1365 102.164 51.3739 102.186 51.5899 102.275C51.8059 102.363 51.9908 102.514 52.1212 102.708C52.2516 102.901 52.3215 103.129 52.3223 103.363C52.3233 103.675 52.2002 103.976 51.98 104.198C51.7598 104.42 51.4605 104.545 51.1478 104.547Z" fill="#C5DED9"/>
<path d="M51.1992 117.263C50.9657 117.264 50.7372 117.196 50.5425 117.067C50.3478 116.938 50.1957 116.755 50.1054 116.539C50.0152 116.324 49.9908 116.087 50.0354 115.858C50.08 115.628 50.1915 115.418 50.356 115.252C50.5204 115.086 50.7303 114.973 50.9591 114.927C51.1878 114.88 51.4253 114.903 51.6413 114.991C51.8573 115.08 52.0422 115.23 52.1725 115.424C52.3029 115.618 52.3729 115.846 52.3736 116.079C52.3746 116.392 52.2515 116.692 52.0313 116.914C51.8111 117.136 51.5118 117.261 51.1992 117.263Z" fill="#C5DED9"/>
<path d="M51.2478 129.98C51.0144 129.981 50.786 129.913 50.5915 129.784C50.397 129.655 50.2451 129.471 50.1551 129.256C50.065 129.04 50.0408 128.803 50.0855 128.574C50.1302 128.345 50.2418 128.134 50.4063 127.969C50.5707 127.803 50.7805 127.69 51.0093 127.644C51.238 127.597 51.4753 127.62 51.6913 127.708C51.9072 127.797 52.092 127.948 52.2224 128.141C52.3527 128.335 52.4228 128.563 52.4236 128.796C52.4242 128.951 52.3942 129.104 52.3354 129.248C52.2766 129.391 52.1902 129.522 52.081 129.632C51.9718 129.742 51.842 129.829 51.6991 129.889C51.5561 129.949 51.4028 129.98 51.2478 129.98Z" fill="#C5DED9"/>
<path d="M39.4706 2.85596C39.2372 2.85696 39.0088 2.78872 38.8142 2.65988C38.6195 2.53104 38.4675 2.34738 38.3773 2.13213C38.2871 1.91688 38.2627 1.67971 38.3073 1.45061C38.3518 1.22151 38.4634 1.01077 38.6277 0.845051C38.7921 0.679332 39.0019 0.566074 39.2306 0.519599C39.4593 0.473125 39.6967 0.495523 39.9127 0.58396C40.1287 0.672397 40.3136 0.822901 40.444 1.01644C40.5745 1.20997 40.6446 1.43785 40.6455 1.67124C40.6468 1.98414 40.5237 2.28472 40.3034 2.50688C40.0831 2.72905 39.7835 2.85461 39.4706 2.85596Z" fill="#C5DED9"/>
<path d="M39.5206 15.5728C39.2873 15.5736 39.0589 15.5052 38.8644 15.3762C38.6699 15.2472 38.518 15.0635 38.4279 14.8482C38.3378 14.6329 38.3136 14.3957 38.3583 14.1667C38.403 13.9376 38.5147 13.727 38.6791 13.5614C38.8435 13.3958 39.0534 13.2826 39.2821 13.2363C39.5108 13.1899 39.7482 13.2124 39.9641 13.301C40.18 13.3895 40.3649 13.5401 40.4952 13.7337C40.6256 13.9272 40.6956 14.1551 40.6964 14.3885C40.697 14.5435 40.667 14.697 40.6082 14.8404C40.5495 14.9838 40.463 15.1142 40.3538 15.2242C40.2446 15.3341 40.1149 15.4215 39.9719 15.4813C39.8289 15.5411 39.6756 15.5722 39.5206 15.5728Z" fill="#C5DED9"/>
<path d="M39.5693 28.29C39.3359 28.2909 39.1075 28.2225 38.913 28.0935C38.7185 27.9645 38.5666 27.7808 38.4765 27.5655C38.3865 27.3502 38.3622 27.113 38.407 26.884C38.4517 26.6549 38.5633 26.4443 38.7277 26.2787C38.8922 26.113 39.102 25.9999 39.3307 25.9536C39.5595 25.9072 39.7968 25.9297 40.0127 26.0183C40.2287 26.1068 40.4135 26.2574 40.5439 26.4509C40.6742 26.6445 40.7442 26.8724 40.7451 27.1058C40.7458 27.2608 40.7159 27.4144 40.6572 27.5578C40.5984 27.7013 40.512 27.8317 40.4028 27.9417C40.2935 28.0517 40.1637 28.1391 40.0207 28.1989C39.8777 28.2586 39.7243 28.2896 39.5693 28.29Z" fill="#C5DED9"/>
<path d="M39.6201 41.0073C39.3868 41.0083 39.1583 40.9401 38.9637 40.8112C38.7691 40.6824 38.6171 40.4987 38.5268 40.2835C38.4366 40.0682 38.4122 39.8311 38.4568 39.602C38.5014 39.3729 38.6129 39.1621 38.7772 38.9964C38.9416 38.8307 39.1514 38.7174 39.3801 38.671C39.6088 38.6245 39.8462 38.6469 40.0622 38.7353C40.2782 38.8238 40.4631 38.9743 40.5936 39.1678C40.724 39.3613 40.7941 39.5892 40.7951 39.8226C40.7963 40.1355 40.6733 40.4361 40.4529 40.6583C40.2326 40.8804 39.933 41.006 39.6201 41.0073Z" fill="#C5DED9"/>
<path d="M39.6697 53.7249C39.4363 53.7259 39.2079 53.6576 39.0133 53.5288C38.8186 53.3999 38.6666 53.2163 38.5764 53.001C38.4862 52.7858 38.4618 52.5486 38.5064 52.3195C38.5509 52.0904 38.6625 51.8797 38.8268 51.7139C38.9912 51.5482 39.201 51.435 39.4297 51.3885C39.6584 51.342 39.8958 51.3644 40.1118 51.4529C40.3278 51.5413 40.5127 51.6918 40.6431 51.8853C40.7736 52.0789 40.8437 52.3067 40.8446 52.5401C40.8456 52.853 40.7225 53.1534 40.5022 53.3755C40.2819 53.5976 39.9825 53.7232 39.6697 53.7249Z" fill="#C5DED9"/>
<path d="M39.7197 66.4417C39.4863 66.4425 39.258 66.3741 39.0635 66.2451C38.869 66.1161 38.7171 65.9324 38.627 65.7171C38.5369 65.5018 38.5127 65.2646 38.5574 65.0356C38.6021 64.8065 38.7138 64.5959 38.8782 64.4303C39.0426 64.2647 39.2525 64.1515 39.4812 64.1052C39.7099 64.0588 39.9473 64.0813 40.1632 64.1699C40.3791 64.2584 40.564 64.409 40.6943 64.6026C40.8247 64.7961 40.8947 65.024 40.8955 65.2574C40.8964 65.5703 40.7731 65.8707 40.5526 66.0928C40.3322 66.3148 40.0326 66.4403 39.7197 66.4417Z" fill="#C5DED9"/>
<path d="M39.7702 79.1577C39.5368 79.1587 39.3083 79.0905 39.1137 78.9616C38.9191 78.8328 38.7671 78.6491 38.6768 78.4339C38.5866 78.2186 38.5623 77.9815 38.6068 77.7524C38.6514 77.5233 38.7629 77.3125 38.9273 77.1468C39.0916 76.9811 39.3014 76.8678 39.5301 76.8214C39.7589 76.7749 39.9962 76.7973 40.2122 76.8857C40.4282 76.9742 40.6131 77.1247 40.7436 77.3182C40.874 77.5117 40.9442 77.7396 40.9451 77.973C40.9459 78.128 40.916 78.2816 40.8574 78.425C40.7987 78.5684 40.7124 78.6989 40.6032 78.8089C40.4941 78.919 40.3644 79.0064 40.2214 79.0663C40.0785 79.1261 39.9251 79.1572 39.7702 79.1577Z" fill="#C5DED9"/>
<path d="M39.8202 91.8745C39.5868 91.8755 39.3584 91.8073 39.1638 91.6784C38.9692 91.5496 38.8171 91.3659 38.7269 91.1507C38.6367 90.9354 38.6123 90.6983 38.6569 90.4692C38.7015 90.2401 38.813 90.0293 38.9773 89.8636C39.1417 89.6979 39.3515 89.5846 39.5802 89.5382C39.8089 89.4917 40.0463 89.5141 40.2623 89.6025C40.4783 89.691 40.6632 89.8415 40.7936 90.035C40.9241 90.2285 40.9942 90.4564 40.9951 90.6898C40.9964 91.0027 40.8733 91.3033 40.653 91.5254C40.4327 91.7476 40.1331 91.8732 39.8202 91.8745Z" fill="#C5DED9"/>
<path d="M39.8693 104.591C39.6359 104.592 39.4075 104.524 39.2128 104.395C39.0182 104.266 38.8662 104.082 38.776 103.867C38.6857 103.652 38.6614 103.415 38.706 103.185C38.7505 102.956 38.862 102.746 39.0264 102.58C39.1907 102.414 39.4005 102.301 39.6293 102.254C39.858 102.208 40.0954 102.23 40.3113 102.319C40.5273 102.407 40.7123 102.558 40.8427 102.751C40.9732 102.945 41.0433 103.173 41.0442 103.406C41.0455 103.719 40.9224 104.02 40.7021 104.242C40.4817 104.464 40.1822 104.589 39.8693 104.591Z" fill="#C5DED9"/>
<path d="M39.9198 117.309C39.6864 117.31 39.4579 117.242 39.2633 117.113C39.0687 116.984 38.9167 116.8 38.8264 116.585C38.7362 116.37 38.7119 116.133 38.7564 115.903C38.801 115.674 38.9125 115.464 39.0769 115.298C39.2412 115.132 39.451 115.019 39.6797 114.972C39.9085 114.926 40.1458 114.948 40.3618 115.037C40.5778 115.125 40.7627 115.276 40.8932 115.469C41.0236 115.663 41.0938 115.891 41.0947 116.124C41.0959 116.437 40.9729 116.738 40.7525 116.96C40.5322 117.182 40.2327 117.307 39.9198 117.309Z" fill="#C5DED9"/>
<path d="M39.9689 130.025C39.7355 130.026 39.5071 129.958 39.3126 129.829C39.1181 129.7 38.9662 129.516 38.8761 129.301C38.7861 129.086 38.7618 128.848 38.8066 128.619C38.8513 128.39 38.9629 128.18 39.1273 128.014C39.2918 127.848 39.5016 127.735 39.7303 127.689C39.9591 127.643 40.1964 127.665 40.4123 127.754C40.6283 127.842 40.8131 127.993 40.9435 128.186C41.0738 128.38 41.1438 128.608 41.1447 128.841C41.1454 128.996 41.1155 129.15 41.0568 129.293C40.998 129.437 40.9116 129.567 40.8024 129.677C40.6931 129.787 40.5633 129.874 40.4203 129.934C40.2773 129.994 40.1239 130.025 39.9689 130.025Z" fill="#C5DED9"/>
<path d="M28.1926 2.8999C27.9592 2.9009 27.7308 2.83267 27.5361 2.70383C27.3415 2.57499 27.1895 2.39133 27.0993 2.17608C27.009 1.96082 26.9847 1.72365 27.0293 1.49455C27.0738 1.26545 27.1853 1.05472 27.3497 0.888997C27.514 0.723278 27.7238 0.610019 27.9526 0.563545C28.1813 0.51707 28.4187 0.539468 28.6347 0.627905C28.8506 0.716342 29.0356 0.866846 29.166 1.06038C29.2965 1.25392 29.3666 1.48179 29.3675 1.71519C29.3685 2.028 29.2454 2.32843 29.0251 2.55054C28.8048 2.77265 28.5054 2.89829 28.1926 2.8999Z" fill="#C5DED9"/>
<path d="M28.2421 15.6177C28.0087 15.6185 27.7804 15.5501 27.5859 15.4211C27.3914 15.2922 27.2395 15.1084 27.1494 14.8931C27.0593 14.6778 27.0351 14.4407 27.0798 14.2116C27.1245 13.9826 27.2362 13.7719 27.4006 13.6063C27.565 13.4407 27.7749 13.3275 28.0036 13.2812C28.2323 13.2348 28.4697 13.2574 28.6856 13.3459C28.9015 13.4344 29.0864 13.585 29.2167 13.7786C29.3471 13.9722 29.4171 14.2 29.4179 14.4334C29.4188 14.7463 29.2955 15.0468 29.075 15.2688C28.8546 15.4908 28.555 15.6163 28.2421 15.6177Z" fill="#C5DED9"/>
<path d="M28.2917 28.333C28.0583 28.3339 27.8298 28.2656 27.6352 28.1366C27.4407 28.0077 27.2887 27.8239 27.1986 27.6086C27.1084 27.3932 27.0842 27.156 27.129 26.9269C27.1737 26.6978 27.2854 26.4871 27.4499 26.3215C27.6144 26.1558 27.8243 26.0427 28.0531 25.9965C28.2819 25.9502 28.5193 25.9728 28.7352 26.0614C28.9512 26.1501 29.136 26.3008 29.2662 26.4945C29.3965 26.6882 29.4664 26.9162 29.4671 27.1496C29.4677 27.3045 29.4377 27.458 29.3789 27.6013C29.3202 27.7446 29.2337 27.875 29.1246 27.9849C29.0154 28.0948 28.8857 28.1821 28.7428 28.2418C28.5999 28.3015 28.4466 28.3325 28.2917 28.333Z" fill="#C5DED9"/>
<path d="M28.3426 41.0503C28.1091 41.0514 27.8806 40.9832 27.6859 40.8544C27.4912 40.7256 27.3391 40.5419 27.2489 40.3266C27.1586 40.1113 27.1342 39.874 27.1788 39.6449C27.2234 39.4157 27.335 39.205 27.4994 39.0392C27.6638 38.8735 27.8737 38.7603 28.1025 38.7139C28.3313 38.6674 28.5687 38.6899 28.7847 38.7785C29.0007 38.8671 29.1856 39.0177 29.3159 39.2114C29.4463 39.405 29.5163 39.633 29.5171 39.8665C29.5181 40.1791 29.395 40.4794 29.1748 40.7014C28.9545 40.9233 28.6553 41.0488 28.3426 41.0503Z" fill="#C5DED9"/>
<path d="M28.3926 53.7671C28.1592 53.7681 27.9308 53.6999 27.7362 53.571C27.5415 53.4422 27.3895 53.2585 27.2993 53.0433C27.2091 52.828 27.1847 52.5908 27.2293 52.3617C27.2738 52.1326 27.3854 51.9219 27.5497 51.7562C27.7141 51.5905 27.9239 51.4772 28.1526 51.4307C28.3813 51.3843 28.6187 51.4067 28.8347 51.4951C29.0507 51.5835 29.2356 51.734 29.366 51.9276C29.4965 52.1211 29.5666 52.349 29.5675 52.5824C29.5688 52.8953 29.4457 53.1959 29.2254 53.418C29.0051 53.6402 28.7055 53.7657 28.3926 53.7671Z" fill="#C5DED9"/>
<path d="M28.4422 66.4849C28.2088 66.4857 27.9804 66.4173 27.7859 66.2883C27.5914 66.1594 27.4395 65.9756 27.3495 65.7603C27.2594 65.545 27.2352 65.3079 27.2799 65.0788C27.3246 64.8497 27.4362 64.6391 27.6007 64.4735C27.7651 64.3079 27.9749 64.1947 28.2037 64.1484C28.4324 64.102 28.6697 64.1245 28.8857 64.2131C29.1016 64.3016 29.2864 64.4522 29.4168 64.6458C29.5471 64.8393 29.6172 65.0672 29.618 65.3006C29.6186 65.4556 29.5886 65.6091 29.5298 65.7525C29.471 65.8959 29.3846 66.0263 29.2754 66.1363C29.1662 66.2462 29.0364 66.3336 28.8935 66.3934C28.7505 66.4532 28.5972 66.4843 28.4422 66.4849Z" fill="#C5DED9"/>
<path d="M28.4922 79.2017C28.2588 79.2027 28.0303 79.1344 27.8357 79.0056C27.6411 78.8767 27.4891 78.6931 27.3988 78.4778C27.3086 78.2626 27.2842 78.0254 27.3288 77.7963C27.3734 77.5672 27.4849 77.3565 27.6493 77.1908C27.8136 77.025 28.0234 76.9118 28.2521 76.8653C28.4809 76.8188 28.7182 76.8412 28.9342 76.9297C29.1502 77.0181 29.3351 77.1686 29.4656 77.3621C29.596 77.5557 29.6661 77.7836 29.6671 78.0169C29.6683 78.3298 29.5453 78.6304 29.3249 78.8526C29.1046 79.0748 28.8051 79.2003 28.4922 79.2017Z" fill="#C5DED9"/>
<path d="M28.5422 91.9185C28.3088 91.9195 28.0804 91.8512 27.8858 91.7224C27.6911 91.5935 27.5391 91.4099 27.4489 91.1946C27.3587 90.9794 27.3343 90.7422 27.3789 90.5131C27.4234 90.284 27.535 90.0733 27.6993 89.9076C27.8637 89.7418 28.0735 89.6286 28.3022 89.5821C28.5309 89.5356 28.7683 89.558 28.9843 89.6465C29.2003 89.7349 29.3852 89.8854 29.5156 90.0789C29.6461 90.2725 29.7162 90.5003 29.7171 90.7337C29.7184 91.0466 29.5953 91.3472 29.375 91.5694C29.1547 91.7916 28.8551 91.9171 28.5422 91.9185Z" fill="#C5DED9"/>
<path d="M28.5918 104.636C28.3584 104.637 28.1299 104.569 27.9353 104.44C27.7407 104.311 27.5887 104.127 27.4984 103.912C27.4082 103.697 27.3839 103.46 27.4284 103.231C27.473 103.002 27.5845 102.791 27.7489 102.625C27.9132 102.459 28.123 102.346 28.3517 102.3C28.5805 102.253 28.8178 102.276 29.0338 102.364C29.2498 102.452 29.4347 102.603 29.5652 102.796C29.6956 102.99 29.7658 103.218 29.7667 103.451C29.7677 103.764 29.6445 104.065 29.4242 104.287C29.204 104.509 28.9046 104.634 28.5918 104.636Z" fill="#C5DED9"/>
<path d="M28.6417 117.353C28.4083 117.354 28.18 117.285 27.9855 117.156C27.791 117.027 27.6391 116.844 27.549 116.628C27.4589 116.413 27.4347 116.176 27.4794 115.947C27.5241 115.718 27.6358 115.507 27.8002 115.341C27.9646 115.176 28.1745 115.063 28.4032 115.016C28.6319 114.97 28.8693 114.992 29.0852 115.081C29.3011 115.17 29.486 115.32 29.6163 115.514C29.7467 115.707 29.8167 115.935 29.8175 116.169C29.8184 116.481 29.6951 116.782 29.4746 117.004C29.2542 117.226 28.9546 117.351 28.6417 117.353Z" fill="#C5DED9"/>
<path d="M28.6913 130.068C28.4579 130.069 28.2294 130.001 28.0348 129.872C27.8402 129.743 27.6883 129.559 27.5982 129.344C27.508 129.129 27.4838 128.891 27.5286 128.662C27.5733 128.433 27.685 128.222 27.8495 128.057C28.014 127.891 28.2239 127.778 28.4527 127.732C28.6815 127.686 28.9189 127.708 29.1348 127.797C29.3508 127.885 29.5356 128.036 29.6658 128.23C29.7961 128.424 29.866 128.652 29.8667 128.885C29.8672 129.04 29.8373 129.193 29.7785 129.337C29.7198 129.48 29.6333 129.61 29.5242 129.72C29.415 129.83 29.2853 129.917 29.1424 129.977C28.9995 130.037 28.8462 130.068 28.6913 130.068Z" fill="#C5DED9"/>
<path d="M16.9136 2.94385C16.6802 2.94485 16.4518 2.87661 16.2572 2.74777C16.0625 2.61893 15.9105 2.43527 15.8203 2.22002C15.7301 2.00477 15.7057 1.7676 15.7503 1.5385C15.7948 1.3094 15.9064 1.09866 16.0707 0.932942C16.2351 0.767223 16.4449 0.653964 16.6736 0.60749C16.9023 0.561016 17.1397 0.583413 17.3557 0.671851C17.5717 0.760288 17.7566 0.910791 17.887 1.10433C18.0175 1.29786 18.0876 1.52574 18.0885 1.75913C18.0898 2.07203 17.9667 2.37261 17.7464 2.59477C17.526 2.81694 17.2265 2.9425 16.9136 2.94385Z" fill="#C5DED9"/>
<path d="M16.9627 15.6602C16.7293 15.661 16.5009 15.5926 16.3064 15.4636C16.1119 15.3347 15.96 15.1509 15.87 14.9356C15.7799 14.7203 15.7557 14.4831 15.8004 14.2541C15.8451 14.025 15.9567 13.8144 16.1212 13.6488C16.2856 13.4832 16.4954 13.37 16.7242 13.3237C16.9529 13.2773 17.1902 13.2998 17.4062 13.3884C17.6221 13.4769 17.8069 13.6275 17.9373 13.8211C18.0676 14.0146 18.1377 14.2425 18.1385 14.4759C18.1392 14.6309 18.1093 14.7845 18.0506 14.928C17.9919 15.0714 17.9054 15.2019 17.7962 15.3119C17.687 15.4219 17.5571 15.5092 17.4141 15.569C17.2711 15.6288 17.1177 15.6597 16.9627 15.6602Z" fill="#C5DED9"/>
<path d="M17.0132 28.3784C16.7798 28.3794 16.5513 28.3112 16.3567 28.1823C16.1621 28.0535 16.0101 27.8698 15.9198 27.6546C15.8296 27.4393 15.8052 27.2022 15.8498 26.9731C15.8944 26.744 16.0059 26.5332 16.1703 26.3675C16.3346 26.2018 16.5444 26.0885 16.7731 26.0421C17.0019 25.9956 17.2392 26.018 17.4552 26.1064C17.6712 26.1949 17.8561 26.3454 17.9866 26.5389C18.117 26.7324 18.1871 26.9603 18.1881 27.1937C18.1893 27.5066 18.0663 27.8072 17.8459 28.0293C17.6256 28.2515 17.326 28.3771 17.0132 28.3784Z" fill="#C5DED9"/>
<path d="M17.0631 41.0952C16.8297 41.0962 16.6013 41.028 16.4067 40.8991C16.2121 40.7703 16.06 40.5866 15.9698 40.3714C15.8796 40.1561 15.8552 39.919 15.8998 39.6899C15.9444 39.4608 16.0559 39.25 16.2202 39.0843C16.3846 38.9186 16.5944 38.8053 16.8231 38.7589C17.0518 38.7124 17.2892 38.7348 17.5052 38.8232C17.7212 38.9117 17.9061 39.0622 18.0366 39.2557C18.167 39.4492 18.2371 39.6771 18.2381 39.9105C18.2393 40.2234 18.1162 40.524 17.8959 40.7461C17.6756 40.9683 17.376 41.0939 17.0631 41.0952Z" fill="#C5DED9"/>
<path d="M17.1123 53.8115C16.8789 53.8125 16.6504 53.7443 16.4558 53.6154C16.2612 53.4866 16.1092 53.3029 16.019 53.0877C15.9287 52.8724 15.9044 52.6353 15.9489 52.4062C15.9935 52.1771 16.105 51.9663 16.2694 51.8006C16.4337 51.6349 16.6435 51.5216 16.8722 51.4752C17.101 51.4287 17.3383 51.4511 17.5543 51.5395C17.7703 51.628 17.9552 51.7785 18.0857 51.972C18.2161 52.1655 18.2863 52.3934 18.2872 52.6268C18.2882 52.9396 18.165 53.2401 17.9448 53.4622C17.7245 53.6843 17.4251 53.8099 17.1123 53.8115Z" fill="#C5DED9"/>
<path d="M17.1627 66.5295C16.9293 66.5304 16.701 66.462 16.5065 66.333C16.312 66.204 16.1601 66.0203 16.07 65.805C15.9799 65.5897 15.9557 65.3525 16.0004 65.1235C16.0451 64.8944 16.1567 64.6838 16.3212 64.5182C16.4856 64.3525 16.6955 64.2394 16.9242 64.1931C17.1529 64.1467 17.3903 64.1692 17.6062 64.2578C17.8221 64.3463 18.0069 64.4969 18.1373 64.6904C18.2677 64.884 18.3377 65.1119 18.3385 65.3453C18.3394 65.6582 18.2161 65.9586 17.9956 66.1807C17.7752 66.4027 17.4756 66.5282 17.1627 66.5295Z" fill="#C5DED9"/>
<path d="M17.2132 79.2456C16.9797 79.2467 16.7512 79.1785 16.5565 79.0497C16.3618 78.9209 16.2097 78.7372 16.1195 78.5219C16.0292 78.3066 16.0048 78.0694 16.0494 77.8402C16.094 77.6111 16.2056 77.4003 16.37 77.2345C16.5344 77.0688 16.7443 76.9556 16.9731 76.9092C17.2019 76.8628 17.4393 76.8853 17.6553 76.9738C17.8713 77.0624 18.0562 77.213 18.1866 77.4067C18.3169 77.6003 18.3869 77.8283 18.3877 78.0618C18.3887 78.3744 18.2656 78.6747 18.0454 78.8967C17.8252 79.1186 17.5259 79.2441 17.2132 79.2456Z" fill="#C5DED9"/>
<path d="M17.2623 91.9619C17.0289 91.9629 16.8005 91.8947 16.6058 91.7658C16.4112 91.637 16.2592 91.4533 16.169 91.2381C16.0787 91.0228 16.0544 90.7857 16.099 90.5566C16.1435 90.3275 16.255 90.1167 16.4194 89.951C16.5837 89.7853 16.7936 89.672 17.0223 89.6256C17.251 89.5791 17.4884 89.6015 17.7044 89.6899C17.9203 89.7784 18.1053 89.9289 18.2357 90.1224C18.3662 90.3159 18.4363 90.5438 18.4372 90.7772C18.4385 91.0901 18.3154 91.3907 18.0951 91.6128C17.8747 91.835 17.5752 91.9606 17.2623 91.9619Z" fill="#C5DED9"/>
<path d="M17.3119 104.68C17.0785 104.681 16.85 104.612 16.6554 104.484C16.4608 104.355 16.3088 104.171 16.2185 103.956C16.1283 103.741 16.1039 103.503 16.1485 103.274C16.1931 103.045 16.3046 102.835 16.469 102.669C16.6333 102.503 16.8431 102.39 17.0718 102.343C17.3006 102.297 17.5379 102.319 17.7539 102.408C17.9699 102.496 18.1548 102.647 18.2853 102.84C18.4157 103.034 18.4859 103.262 18.4868 103.495C18.488 103.808 18.365 104.108 18.1446 104.331C17.9243 104.553 17.6248 104.678 17.3119 104.68Z" fill="#C5DED9"/>
<path d="M17.3619 117.396C17.1285 117.397 16.9001 117.329 16.7056 117.2C16.5111 117.071 16.3592 116.887 16.2691 116.672C16.1791 116.457 16.1548 116.219 16.1996 115.99C16.2443 115.761 16.3559 115.551 16.5203 115.385C16.6848 115.219 16.8946 115.106 17.1233 115.06C17.3521 115.014 17.5894 115.036 17.8053 115.125C18.0213 115.213 18.2061 115.364 18.3365 115.557C18.4668 115.751 18.5368 115.979 18.5377 116.212C18.5384 116.367 18.5085 116.521 18.4498 116.664C18.391 116.808 18.3046 116.938 18.1954 117.048C18.0861 117.158 17.9563 117.246 17.8133 117.305C17.6703 117.365 17.5169 117.396 17.3619 117.396Z" fill="#C5DED9"/>
<path d="M17.4118 130.113C17.1784 130.114 16.95 130.046 16.7554 129.917C16.5608 129.788 16.4087 129.605 16.3185 129.389C16.2283 129.174 16.2039 128.937 16.2485 128.708C16.2931 128.479 16.4046 128.268 16.5689 128.102C16.7333 127.937 16.9431 127.823 17.1718 127.777C17.4005 127.73 17.6379 127.753 17.8539 127.841C18.0699 127.93 18.2548 128.08 18.3852 128.274C18.5157 128.467 18.5858 128.695 18.5868 128.929C18.5875 129.084 18.5577 129.237 18.499 129.381C18.4404 129.524 18.354 129.654 18.2449 129.765C18.1358 129.875 18.006 129.962 17.8631 130.022C17.7201 130.082 17.5668 130.113 17.4118 130.113Z" fill="#C5DED9"/>
<path d="M5.63559 2.98877C5.4022 2.98977 5.17375 2.92153 4.97914 2.79269C4.78453 2.66385 4.63249 2.48019 4.54227 2.26494C4.45204 2.04969 4.42767 1.81252 4.47225 1.58342C4.51683 1.35432 4.62834 1.14358 4.79269 0.977864C4.95704 0.812145 5.16684 0.698886 5.39556 0.652412C5.62429 0.605938 5.86165 0.628335 6.07765 0.716772C6.29364 0.805209 6.47855 0.955713 6.609 1.14925C6.73945 1.34279 6.80958 1.57066 6.81052 1.80405C6.81177 2.11695 6.6887 2.41753 6.46837 2.6397C6.24803 2.86186 5.94849 2.98743 5.63559 2.98877Z" fill="#C5DED9"/>
<path d="M5.68426 15.7061C5.45089 15.7069 5.22251 15.6385 5.028 15.5095C4.8335 15.3805 4.6816 15.1968 4.59153 14.9815C4.50145 14.7662 4.47724 14.529 4.52195 14.3C4.56666 14.0709 4.67829 13.8603 4.84272 13.6947C5.00716 13.5291 5.217 13.4159 5.44573 13.3696C5.67446 13.3232 5.9118 13.3457 6.12773 13.4343C6.34366 13.5228 6.52849 13.6734 6.65885 13.867C6.78921 14.0605 6.85923 14.2884 6.86008 14.5218C6.86077 14.6768 6.83089 14.8304 6.77215 14.9739C6.71341 15.1173 6.62696 15.2478 6.51775 15.3578C6.40854 15.4677 6.27871 15.5551 6.13569 15.6149C5.99267 15.6747 5.83927 15.7056 5.68426 15.7061Z" fill="#C5DED9"/>
<path d="M5.73514 28.4233C5.50175 28.4243 5.2733 28.3561 5.07869 28.2273C4.88407 28.0984 4.73204 27.9148 4.64182 27.6995C4.55159 27.4843 4.52722 27.2471 4.5718 27.018C4.61637 26.7889 4.72789 26.5782 4.89224 26.4124C5.05659 26.2467 5.26639 26.1335 5.49511 26.087C5.72383 26.0405 5.9612 26.0629 6.17719 26.1513C6.39319 26.2398 6.5781 26.3903 6.70855 26.5838C6.839 26.7774 6.90913 27.0052 6.91006 27.2386C6.91105 27.5514 6.7879 27.8519 6.56762 28.074C6.34735 28.2961 6.04795 28.4217 5.73514 28.4233Z" fill="#C5DED9"/>
<path d="M5.78473 41.1387C5.55128 41.1398 5.32275 41.0716 5.12806 40.9428C4.93337 40.8139 4.78127 40.6303 4.691 40.415C4.60072 40.1997 4.57635 39.9624 4.62094 39.7333C4.66554 39.5041 4.7771 39.2933 4.94152 39.1276C5.10594 38.9619 5.31583 38.8486 5.54462 38.8022C5.77342 38.7558 6.01084 38.7783 6.22684 38.8669C6.44284 38.9554 6.62772 39.1061 6.75809 39.2997C6.88845 39.4934 6.95844 39.7214 6.9592 39.9548C6.96022 40.2675 6.8371 40.5678 6.6169 40.7898C6.39669 41.0117 6.09739 41.1372 5.78473 41.1387Z" fill="#C5DED9"/>
<path d="M5.83471 53.8555C5.60134 53.8563 5.37296 53.7879 5.17845 53.6589C4.98395 53.53 4.83205 53.3462 4.74198 53.1309C4.6519 52.9156 4.62769 52.6785 4.6724 52.4494C4.71711 52.2203 4.82874 52.0097 4.99318 51.8441C5.15761 51.6785 5.36746 51.5653 5.59618 51.519C5.82491 51.4726 6.06225 51.4952 6.27818 51.5837C6.49411 51.6722 6.67894 51.8228 6.8093 52.0164C6.93966 52.21 7.00969 52.4378 7.01053 52.6712C7.01109 52.8262 6.98112 52.9797 6.92233 53.1231C6.86355 53.2665 6.77709 53.3969 6.6679 53.5069C6.55872 53.6168 6.42894 53.7042 6.28598 53.764C6.14302 53.8239 5.98968 53.8549 5.83471 53.8555Z" fill="#C5DED9"/>
<path d="M5.88428 66.5732C5.6509 66.5741 5.42252 66.5057 5.22801 66.3767C5.03351 66.2477 4.88161 66.064 4.79154 65.8487C4.70146 65.6334 4.67725 65.3962 4.72196 65.1672C4.76667 64.9381 4.8783 64.7275 5.04274 64.5619C5.20717 64.3962 5.41702 64.2831 5.64574 64.2368C5.87447 64.1904 6.11181 64.2129 6.32774 64.3015C6.54367 64.39 6.72851 64.5406 6.85886 64.7341C6.98922 64.9277 7.05925 65.1556 7.06009 65.389C7.06078 65.544 7.0309 65.6976 6.97216 65.841C6.91342 65.9845 6.82697 66.1149 6.71776 66.2249C6.60855 66.3349 6.47872 66.4223 6.3357 66.4821C6.19268 66.5418 6.03928 66.5728 5.88428 66.5732Z" fill="#C5DED9"/>
<path d="M5.93515 79.2905C5.70176 79.2915 5.47331 79.2233 5.2787 79.0945C5.08409 78.9656 4.93205 78.782 4.84183 78.5667C4.7516 78.3514 4.72724 78.1143 4.77181 77.8852C4.81639 77.6561 4.9279 77.4453 5.09225 77.2796C5.2566 77.1139 5.4664 77.0006 5.69512 76.9542C5.92385 76.9077 6.16121 76.9301 6.37721 77.0185C6.5932 77.107 6.77811 77.2575 6.90856 77.451C7.03902 77.6445 7.10914 77.8724 7.11008 78.1058C7.11133 78.4187 6.98826 78.7193 6.76793 78.9415C6.5476 79.1636 6.24805 79.2892 5.93515 79.2905Z" fill="#C5DED9"/>
<path d="M5.98429 92.0068C5.75089 92.0078 5.52244 91.9396 5.32783 91.8108C5.13322 91.6819 4.98119 91.4983 4.89096 91.283C4.80073 91.0678 4.77637 90.8306 4.82094 90.6015C4.86552 90.3724 4.97703 90.1616 5.14138 89.9959C5.30573 89.8302 5.51554 89.717 5.74426 89.6705C5.97298 89.624 6.21035 89.6464 6.42634 89.7348C6.64233 89.8233 6.82725 89.9738 6.9577 90.1673C7.08815 90.3609 7.15828 90.5887 7.15921 90.8221C7.16046 91.135 7.03739 91.4356 6.81706 91.6578C6.59673 91.8799 6.29718 92.0055 5.98429 92.0068Z" fill="#C5DED9"/>
<path d="M6.03427 104.724C5.80088 104.725 5.57243 104.656 5.37782 104.528C5.18321 104.399 5.03117 104.215 4.94095 104C4.85072 103.785 4.82636 103.547 4.87093 103.318C4.91551 103.089 5.02702 102.878 5.19137 102.713C5.35572 102.547 5.56552 102.434 5.79425 102.387C6.02297 102.341 6.26034 102.363 6.47633 102.452C6.69232 102.54 6.87723 102.691 7.00769 102.884C7.13814 103.078 7.20826 103.306 7.2092 103.539C7.21045 103.852 7.08738 104.152 6.86705 104.375C6.64672 104.597 6.34717 104.722 6.03427 104.724Z" fill="#C5DED9"/>
<path d="M6.08386 117.441C5.85048 117.442 5.6221 117.374 5.4276 117.245C5.23309 117.116 5.0812 116.932 4.99112 116.717C4.90105 116.502 4.87683 116.264 4.92155 116.035C4.96626 115.806 5.07789 115.596 5.24232 115.43C5.40675 115.264 5.6166 115.151 5.84533 115.105C6.07406 115.059 6.31139 115.081 6.52733 115.17C6.74326 115.258 6.92809 115.409 7.05845 115.602C7.1888 115.796 7.25883 116.024 7.25968 116.257C7.26024 116.412 7.23027 116.566 7.17148 116.709C7.11269 116.852 7.02624 116.983 6.91705 117.093C6.80786 117.203 6.67809 117.29 6.53513 117.35C6.39217 117.41 6.23883 117.441 6.08386 117.441Z" fill="#C5DED9"/>
<path d="M6.13382 130.158C5.90043 130.159 5.67198 130.091 5.47737 129.962C5.28276 129.833 5.13072 129.65 5.0405 129.434C4.95027 129.219 4.9259 128.982 4.97048 128.753C5.01506 128.524 5.12657 128.313 5.29092 128.147C5.45527 127.982 5.66507 127.868 5.89379 127.822C6.12252 127.775 6.35988 127.798 6.57588 127.886C6.79187 127.975 6.97678 128.125 7.10723 128.319C7.23768 128.512 7.30781 128.74 7.30875 128.973C7.30973 129.286 7.18658 129.587 6.9663 129.809C6.74603 130.031 6.44663 130.157 6.13382 130.158Z" fill="#C5DED9"/>
</svg>
