<svg width="36" height="35" viewBox="0 0 36 35" fill="none" xmlns="http://www.w3.org/2000/svg">
<path d="M18 35C27.9411 35 36 27.165 36 17.5C36 7.83502 27.9411 0 18 0C8.05887 0 0 7.83502 0 17.5C0 27.165 8.05887 35 18 35Z" fill="white"/>
<path d="M17.8047 13.8019C17.0136 13.8019 16.2403 14.0365 15.5825 14.476C14.9247 14.9155 14.412 15.5403 14.1092 16.2712C13.8065 17.0021 13.7273 17.8063 13.8816 18.5823C14.0359 19.3582 14.4169 20.0709 14.9763 20.6303C15.5357 21.1897 16.2485 21.5707 17.0244 21.725C17.8003 21.8794 18.6046 21.8002 19.3355 21.4974C20.0664 21.1947 20.6911 20.682 21.1306 20.0242C21.5702 19.3664 21.8048 18.593 21.8048 17.8019C21.8048 17.2766 21.7013 16.7565 21.5003 16.2712C21.2992 15.7859 21.0046 15.3449 20.6332 14.9735C20.2617 14.602 19.8208 14.3074 19.3355 14.1064C18.8502 13.9054 18.33 13.8019 17.8047 13.8019V13.8019ZM17.8047 20.4019C17.2905 20.4019 16.7878 20.2494 16.3603 19.9637C15.9327 19.678 15.5995 19.272 15.4027 18.7969C15.2059 18.3218 15.1544 17.799 15.2547 17.2947C15.355 16.7903 15.6027 16.327 15.9663 15.9634C16.3299 15.5998 16.7932 15.3522 17.2975 15.2518C17.8019 15.1515 18.3246 15.203 18.7997 15.3998C19.2748 15.5966 19.6809 15.9298 19.9666 16.3574C20.2523 16.785 20.4047 17.2877 20.4047 17.8019C20.4029 18.4909 20.1284 19.1511 19.6412 19.6383C19.154 20.1255 18.4937 20.4 17.8047 20.4019V20.4019ZM22.9047 13.6339C22.9047 13.8184 22.85 13.9988 22.7475 14.1522C22.645 14.3057 22.4993 14.4253 22.3288 14.4959C22.1583 14.5665 21.9707 14.585 21.7897 14.549C21.6087 14.513 21.4425 14.4241 21.312 14.2936C21.1815 14.1631 21.0927 13.9969 21.0567 13.8159C21.0207 13.6349 21.0392 13.4473 21.1098 13.2768C21.1804 13.1064 21.3 12.9606 21.4534 12.8581C21.6068 12.7556 21.7872 12.7009 21.9718 12.7009C22.0948 12.7006 22.2166 12.7247 22.3303 12.7718C22.4439 12.819 22.5471 12.8881 22.6339 12.9753C22.7206 13.0626 22.7892 13.1661 22.8357 13.28C22.8822 13.3939 22.9057 13.5159 22.9047 13.6389V13.6339ZM25.5557 14.5809C25.5815 13.3672 25.1285 12.1922 24.2948 11.3099C23.4107 10.4789 22.2368 10.0264 21.0238 10.0489C19.7348 9.97589 15.8717 9.97589 14.5837 10.0489C13.3709 10.0267 12.1976 10.48 11.3147 11.3119C10.4828 12.1952 10.0304 13.3697 10.0547 14.5829C9.98175 15.8719 9.98175 19.7349 10.0547 21.0229C10.029 22.2361 10.4816 23.4107 11.3147 24.2929C12.1992 25.1233 13.3728 25.5758 14.5857 25.5539C15.8747 25.6269 19.7378 25.6269 21.0258 25.5539C22.2394 25.5796 23.4144 25.1266 24.2968 24.2929C25.1277 23.4088 25.5803 22.235 25.5578 21.0219C25.6308 19.7329 25.6308 15.8739 25.5578 14.5849L25.5557 14.5809ZM23.8907 22.4009C23.7585 22.7377 23.5584 23.0436 23.3027 23.2996C23.047 23.5556 22.7414 23.7562 22.4047 23.8889C20.8924 24.1992 19.3452 24.3045 17.8047 24.2019C16.2643 24.3028 14.7173 24.1976 13.2048 23.8889C12.8689 23.7564 12.5639 23.5564 12.3086 23.3011C12.0533 23.0458 11.8532 22.7407 11.7207 22.4049C11.4104 20.8926 11.3052 19.3453 11.4078 17.8049C11.3068 16.2645 11.4121 14.7175 11.7207 13.2049C11.853 12.8687 12.0529 12.5632 12.3082 12.3076C12.5635 12.052 12.8687 11.8516 13.2048 11.7189C14.7171 11.4086 16.2643 11.3033 17.8047 11.4059C19.3452 11.305 20.8922 11.4102 22.4047 11.7189C22.7406 11.8513 23.0456 12.0514 23.3009 12.3067C23.5562 12.562 23.7563 12.867 23.8888 13.2029C24.1991 14.7152 24.3043 16.2625 24.2017 17.8029C24.306 19.3441 24.2021 20.8924 23.8927 22.4059L23.8907 22.4009Z" fill="#333234"/>
</svg>
