<svg width="36" height="35" viewBox="0 0 36 35" fill="none" xmlns="http://www.w3.org/2000/svg">
<path d="M18 35C27.9411 35 36 27.165 36 17.5C36 7.83502 27.9411 0 18 0C8.05887 0 0 7.83502 0 17.5C0 27.165 8.05887 35 18 35Z" fill="url(#paint0_linear)"/>
<path d="M12.411 13.885C12.2863 13.885 12.1843 13.8453 12.105 13.766C12.0257 13.6867 11.986 13.5847 11.986 13.46V11.93C11.986 11.8053 12.0257 11.7033 12.105 11.624C12.1843 11.5447 12.2863 11.505 12.411 11.505H14.451C14.5757 11.505 14.6777 11.5447 14.757 11.624C14.8363 11.7033 14.876 11.8053 14.876 11.93V13.46C14.876 13.5847 14.8363 13.6867 14.757 13.766C14.6777 13.8453 14.5757 13.885 14.451 13.885H12.411ZM12.428 24C12.3033 24 12.2013 23.9603 12.122 23.881C12.0427 23.8017 12.003 23.6997 12.003 23.575V15.585C12.003 15.4603 12.0427 15.3583 12.122 15.279C12.2013 15.1997 12.3033 15.16 12.428 15.16H14.434C14.5587 15.16 14.6607 15.1997 14.74 15.279C14.8193 15.3583 14.859 15.4603 14.859 15.585V23.575C14.859 23.6883 14.8193 23.7903 14.74 23.881C14.6607 23.9603 14.5587 24 14.434 24H12.428ZM17.2923 24C17.1676 24 17.0656 23.9603 16.9863 23.881C16.9069 23.8017 16.8673 23.6997 16.8673 23.575V15.585C16.8673 15.4603 16.9069 15.3583 16.9863 15.279C17.0656 15.1997 17.1676 15.16 17.2923 15.16H19.2473C19.3719 15.16 19.4739 15.1997 19.5533 15.279C19.6439 15.3583 19.6893 15.4603 19.6893 15.585V16.231C19.9953 15.857 20.3863 15.5567 20.8623 15.33C21.3496 15.1033 21.8993 14.99 22.5113 14.99C23.5086 14.99 24.3189 15.33 24.9423 16.01C25.5656 16.6787 25.8773 17.6193 25.8773 18.832V23.575C25.8773 23.6883 25.8376 23.7903 25.7583 23.881C25.6789 23.9603 25.5769 24 25.4523 24H23.3103C23.1969 24 23.0949 23.9603 23.0043 23.881C22.9249 23.7903 22.8853 23.6883 22.8853 23.575V18.934C22.8853 18.4013 22.7549 17.9933 22.4943 17.71C22.2336 17.4153 21.8596 17.268 21.3723 17.268C20.8963 17.268 20.5223 17.4153 20.2503 17.71C19.9783 17.9933 19.8423 18.4013 19.8423 18.934V23.575C19.8423 23.6883 19.8026 23.7903 19.7233 23.881C19.6439 23.9603 19.5419 24 19.4173 24H17.2923Z" fill="white"/>
<defs>
<linearGradient id="paint0_linear" x1="18" y1="0" x2="18" y2="35" gradientUnits="userSpaceOnUse">
<stop stop-color="#249FFB"/>
<stop offset="1" stop-color="#15C7DB"/>
</linearGradient>
</defs>
</svg>
