<svg width="35" height="35" viewBox="0 0 35 35" fill="none" xmlns="http://www.w3.org/2000/svg">
<path d="M17.5 35C27.165 35 35 27.165 35 17.5C35 7.83502 27.165 0 17.5 0C7.83502 0 0 7.83502 0 17.5C0 27.165 7.83502 35 17.5 35Z" fill="white"/>
<path d="M23.931 14.0441C23.941 14.1891 23.941 14.3341 23.941 14.4801C23.9497 15.7338 23.7091 16.9768 23.2333 18.1369C22.7575 19.2969 22.0559 20.3508 21.1693 21.2373C20.2827 22.1239 19.2288 22.8255 18.0688 23.3013C16.9088 23.7771 15.6658 24.0177 14.412 24.0091C12.5889 24.0135 10.8034 23.4912 9.27002 22.5051C9.53866 22.5345 9.80878 22.5482 10.079 22.5461C11.5863 22.5502 13.0511 22.0464 14.237 21.1161C13.5382 21.1032 12.8608 20.8725 12.2995 20.456C11.7381 20.0395 11.3209 19.4582 11.106 18.7931C11.3154 18.8263 11.527 18.8436 11.739 18.8451C12.0363 18.8442 12.3323 18.8059 12.62 18.7311C11.8616 18.5777 11.1796 18.1665 10.69 17.5673C10.2003 16.9681 9.93322 16.2179 9.93402 15.4441V15.4031C10.3982 15.662 10.9169 15.8077 11.448 15.8281C10.7372 15.354 10.2341 14.6266 10.0414 13.7942C9.84866 12.9618 9.98087 12.0873 10.411 11.3491C11.252 12.3848 12.3012 13.2323 13.4908 13.8364C14.6803 14.4406 15.9836 14.788 17.316 14.8561C17.2623 14.6039 17.2345 14.3469 17.233 14.0891C17.2326 13.4164 17.4345 12.7591 17.8126 12.2028C18.1907 11.6464 18.7275 11.2167 19.3531 10.9694C19.9787 10.7222 20.6642 10.669 21.3205 10.8166C21.9768 10.9641 22.5735 11.3058 23.033 11.7971C23.7832 11.6526 24.5026 11.3788 25.159 10.9881C24.9095 11.7621 24.3861 12.4185 23.687 12.8341C24.3523 12.7585 25.0024 12.5839 25.616 12.3161C25.1574 12.9838 24.5895 13.5693 23.936 14.0481L23.931 14.0441Z" fill="#333234"/>
</svg>
