<svg width="23" height="23" viewBox="0 0 23 23" fill="none" xmlns="http://www.w3.org/2000/svg">
<path d="M11.5 23C17.8513 23 23 17.8513 23 11.5C23 5.14873 17.8513 0 11.5 0C5.14873 0 0 5.14873 0 11.5C0 17.8513 5.14873 23 11.5 23Z" fill="#13B85E"/>
<path d="M18.569 11.5012H6.84199V7.36125C6.84031 7.16077 6.90424 6.96524 7.02403 6.80447C7.14382 6.6437 7.31289 6.52651 7.50548 6.47078C7.69806 6.41504 7.90359 6.42381 8.09072 6.49575C8.27786 6.56769 8.43634 6.69886 8.54199 6.86925C8.30555 7.23285 8.19686 7.66481 8.23307 8.09701C8.26929 8.52921 8.44834 8.93706 8.74199 9.25625C8.68388 9.32196 8.65299 9.40734 8.65559 9.49502C8.65819 9.5827 8.69409 9.6661 8.75599 9.72825L9.08099 10.0532C9.11303 10.0853 9.15107 10.1107 9.19293 10.1281C9.2348 10.1454 9.27967 10.1543 9.32499 10.1543C9.37031 10.1543 9.41518 10.1454 9.45705 10.1281C9.49892 10.1107 9.53695 10.0853 9.56899 10.0532L12.293 7.32225C12.325 7.29021 12.3505 7.25217 12.3678 7.2103C12.3852 7.16844 12.3941 7.12356 12.3941 7.07825C12.3941 7.03293 12.3852 6.98806 12.3678 6.94619C12.3505 6.90432 12.325 6.86629 12.293 6.83425L11.968 6.51225C11.9058 6.45035 11.8224 6.41444 11.7348 6.41184C11.6471 6.40924 11.5617 6.44014 11.496 6.49825C11.2515 6.2736 10.9537 6.11509 10.6309 6.03774C10.308 5.96039 9.97072 5.96676 9.65099 6.05625C9.37187 5.6544 8.97187 5.35204 8.50913 5.1931C8.04639 5.03416 7.54502 5.02692 7.07789 5.17245C6.61076 5.31798 6.2022 5.60868 5.9116 6.0023C5.62101 6.39593 5.46351 6.87197 5.46199 7.36125V11.5012H5.23199C5.04899 11.5012 4.87349 11.5739 4.74409 11.7033C4.61469 11.8327 4.54199 12.0082 4.54199 12.1912V12.6512C4.54199 12.8342 4.61469 13.0098 4.74409 13.1392C4.87349 13.2686 5.04899 13.3412 5.23199 13.3412H5.46199V14.2612C5.46236 14.6486 5.5445 15.0315 5.70303 15.385C5.86157 15.7384 6.09293 16.0544 6.38199 16.3122V17.2452C6.38199 17.4282 6.45469 17.6038 6.58409 17.7332C6.71349 17.8626 6.88899 17.9352 7.07199 17.9352H7.53199C7.71499 17.9352 7.8905 17.8626 8.0199 17.7332C8.1493 17.6038 8.22199 17.4282 8.22199 17.2452V17.0152H15.58V17.2452C15.58 17.4282 15.6527 17.6038 15.7821 17.7332C15.9115 17.8626 16.087 17.9352 16.27 17.9352H16.73C16.913 17.9352 17.0885 17.8626 17.2179 17.7332C17.3473 17.6038 17.42 17.4282 17.42 17.2452V16.3122C17.7097 16.0538 17.9414 15.737 18.1 15.3827C18.2585 15.0283 18.3403 14.6445 18.34 14.2562V13.3362H18.57C18.753 13.3362 18.9285 13.2636 19.0579 13.1342C19.1873 13.0048 19.26 12.8292 19.26 12.6462V12.1862C19.2587 12.0039 19.1853 11.8296 19.0558 11.7012C18.9263 11.5729 18.7513 11.501 18.569 11.5012V11.5012Z" stroke="white"/>
</svg>
