<svg width="23" height="23" viewBox="0 0 23 23" fill="none" xmlns="http://www.w3.org/2000/svg">
<path d="M11.5 23C17.8513 23 23 17.8513 23 11.5C23 5.14873 17.8513 0 11.5 0C5.14873 0 0 5.14873 0 11.5C0 17.8513 5.14873 23 11.5 23Z" fill="#13B85E"/>
<path d="M14.161 16.074L12.1 18.134C12.0421 18.1921 11.9733 18.2381 11.8975 18.2695C11.8217 18.3009 11.7405 18.3171 11.6585 18.3171C11.5765 18.3171 11.4953 18.3009 11.4196 18.2695C11.3438 18.2381 11.275 18.1921 11.217 18.134L9.15703 16.074C9.06974 15.9866 9.01034 15.8753 8.98637 15.7541C8.96239 15.633 8.97492 15.5074 9.02235 15.3934C9.06979 15.2793 9.15001 15.1819 9.25285 15.1135C9.35568 15.0451 9.47651 15.0087 9.60003 15.009H10.93V12.387H8.30803V13.718C8.30814 13.8416 8.27156 13.9624 8.20294 14.0651C8.13432 14.1679 8.03674 14.2479 7.92257 14.2952C7.8084 14.3424 7.68278 14.3547 7.56163 14.3304C7.44048 14.3062 7.32924 14.2465 7.24203 14.159L5.18303 12.1C5.12501 12.0421 5.07898 11.9733 5.04757 11.8975C5.01617 11.8217 5 11.7405 5 11.6585C5 11.5765 5.01617 11.4953 5.04757 11.4196C5.07898 11.3438 5.12501 11.275 5.18303 11.217L7.24303 9.15703C7.33042 9.06974 7.44175 9.01034 7.56291 8.98637C7.68408 8.96239 7.80964 8.97492 7.92369 9.02235C8.03773 9.06979 8.13513 9.15001 8.20355 9.25285C8.27197 9.35568 8.30833 9.47651 8.30803 9.60003V10.93H10.93V8.30803H9.60003C9.47648 8.30814 9.35567 8.27156 9.25293 8.20294C9.15018 8.13432 9.07012 8.03674 9.02289 7.92257C8.97566 7.8084 8.96339 7.68278 8.98762 7.56163C9.01186 7.44048 9.07151 7.32924 9.15903 7.24203L11.216 5.18303C11.274 5.12501 11.3428 5.07898 11.4186 5.04757C11.4943 5.01617 11.5755 5 11.6575 5C11.7395 5 11.8207 5.01617 11.8965 5.04757C11.9723 5.07898 12.0411 5.12501 12.099 5.18303L14.159 7.24303C14.2465 7.33024 14.3062 7.44148 14.3304 7.56263C14.3547 7.68378 14.3424 7.8094 14.2952 7.92357C14.2479 8.03774 14.1679 8.13532 14.0651 8.20394C13.9624 8.27256 13.8416 8.30914 13.718 8.30903H12.387V10.93H15.009V9.60003C15.0089 9.47648 15.0455 9.35567 15.1141 9.25293C15.1827 9.15018 15.2803 9.07012 15.3945 9.02289C15.5087 8.97566 15.6343 8.96339 15.7554 8.98762C15.8766 9.01186 15.9878 9.07151 16.075 9.15903L18.135 11.219C18.1931 11.277 18.2391 11.3458 18.2705 11.4216C18.3019 11.4973 18.3181 11.5785 18.3181 11.6605C18.3181 11.7425 18.3019 11.8237 18.2705 11.8995C18.2391 11.9753 18.1931 12.0441 18.135 12.102L16.075 14.162C15.9878 14.2495 15.8766 14.3092 15.7554 14.3334C15.6343 14.3577 15.5087 14.3454 15.3945 14.2982C15.2803 14.2509 15.1827 14.1709 15.1141 14.0681C15.0455 13.9654 15.0089 13.8446 15.009 13.721V12.387H12.387V15.009H13.719C13.8425 15.0089 13.9632 15.0454 14.0658 15.1139C14.1685 15.1824 14.2486 15.2798 14.2959 15.3938C14.3432 15.5078 14.3557 15.6333 14.3316 15.7544C14.3076 15.8755 14.2483 15.9867 14.161 16.074V16.074Z" stroke="white"/>
</svg>
