<svg width="36" height="35" viewBox="0 0 36 35" fill="none" xmlns="http://www.w3.org/2000/svg">
<path d="M18 35C27.9411 35 36 27.165 36 17.5C36 7.83502 27.9411 0 18 0C8.05887 0 0 7.83502 0 17.5C0 27.165 8.05887 35 18 35Z" fill="white"/>
<path d="M22.5271 18.7481L23.0821 15.1341H19.6171V12.7891C19.5931 12.5193 19.6299 12.2475 19.7251 11.9939C19.8202 11.7402 19.9712 11.5112 20.1667 11.3238C20.3623 11.1364 20.5976 10.9953 20.855 10.9111C21.1125 10.8268 21.3856 10.8016 21.6541 10.8371H23.2271V7.76011C22.303 7.61086 21.3692 7.52931 20.4331 7.51611C17.5771 7.51611 15.7111 9.24711 15.7111 12.3801V15.1341H12.5361V18.7481H15.7111V27.4841H19.6171V18.7481H22.5271Z" fill="#333234"/>
</svg>
