<svg width="148" height="148" viewBox="0 0 148 148" fill="none" xmlns="http://www.w3.org/2000/svg">
<path d="M32.7999 89.4382L27.6483 108.67L8.81901 109.068C3.19183 98.6313 0 86.6898 0 74C0 61.729 2.98428 50.1572 8.27413 39.9681H8.27817L25.0415 43.0414L32.3848 59.7041C30.8479 64.1849 30.0102 68.9949 30.0102 74C30.0108 79.432 30.9947 84.6366 32.7999 89.4382Z" fill="white"/>
<path d="M146.707 60.1759C147.557 64.6523 148 69.2753 148 74C148 79.2979 147.443 84.4658 146.382 89.4507C142.78 106.414 133.367 121.226 120.327 131.708L120.323 131.704L99.2091 130.626L96.2208 111.972C104.873 106.898 111.635 98.9568 115.197 89.4507H75.6268V60.1759H115.774H146.707Z" fill="white"/>
<path d="M120.323 131.704L120.327 131.708C107.646 141.901 91.5363 148 74 148C45.819 148 21.3178 132.249 8.819 109.069L32.7999 89.4385C39.0492 106.117 55.1381 117.99 74 117.99C82.1073 117.99 89.7027 115.798 96.2202 111.972L120.323 131.704Z" fill="white"/>
<path d="M121.234 17.0362L97.2612 36.6624C90.5159 32.4461 82.5424 30.0105 74 30.0105C54.7112 30.0105 38.3213 42.4277 32.3851 59.7041L8.27819 39.9681H8.27414C20.5899 16.2231 45.4002 0 74 0C91.9551 0 108.418 6.3958 121.234 17.0362Z" fill="white"/>
</svg>
