<svg width="343" height="308" viewBox="0 0 343 308" fill="none" xmlns="http://www.w3.org/2000/svg">
<g clip-path="url(#clip0)">
<path d="M313.504 0H30.5039C13.9354 0 0.503906 13.4315 0.503906 30V278C0.503906 294.569 13.9354 308 30.5039 308H313.504C330.072 308 343.504 294.569 343.504 278V30C343.504 13.4315 330.072 0 313.504 0Z" fill="#ECF7FF"/>
<path opacity="0.2" d="M106.382 183.763L136.896 201.763L150.85 202.963L179.931 218.849L231.123 200.611L300.758 170.625L192.283 107.625L106.382 183.763Z" fill="#92B4D1"/>
<path d="M144.051 64.4961L231.128 115.157L281.19 122.306L194.06 72.6461L144.051 64.4961Z" fill="#084C94"/>
<path d="M231.095 115.158V200.614L240.095 195.53L240.11 193.648L272.11 174.709L274.058 175.432L281.188 171.202V122.302L231.095 115.158Z" fill="#A8CFF0"/>
<path d="M231.123 115.158V200.614L144.051 149.921V64.4961L231.123 115.158Z" fill="#D1EBFF"/>
<path d="M238.041 151.687L276.141 128.796V174.196L274.047 175.435L272.098 174.712L240.098 193.651L240.093 195.529L238.043 196.742L238.041 151.687Z" fill="#F0F8FF"/>
<path d="M272.1 174.709V133.635L240.1 152.856V193.647L272.1 174.709Z" fill="#0BA19F"/>
<g style="mix-blend-mode:multiply">
<path d="M240.106 152.859V193.649L272.101 174.71V133.635L240.106 152.859ZM271.089 174.135L241.115 191.878V153.428L271.089 135.428V174.135Z" fill="#E6E7E8"/>
</g>
<g style="mix-blend-mode:multiply">
<g style="mix-blend-mode:multiply">
<path d="M272.1 136.76V135.7L240.1 154.921V155.696L272.1 136.76Z" fill="#E6E7E8"/>
</g>
<g style="mix-blend-mode:multiply">
<path d="M272.1 139.996V138.938L240.1 158.159V158.934L272.1 139.996Z" fill="#E6E7E8"/>
</g>
<g style="mix-blend-mode:multiply">
<path d="M272.1 143.235V142.177L240.1 161.398V162.173L272.1 143.235Z" fill="#E6E7E8"/>
</g>
<g style="mix-blend-mode:multiply">
<path d="M272.1 146.473V145.415L240.1 164.637V165.412L272.1 146.473Z" fill="#E6E7E8"/>
</g>
<g style="mix-blend-mode:multiply">
<path d="M272.1 149.712V148.654L240.1 167.875V168.651L272.1 149.712Z" fill="#E6E7E8"/>
</g>
<g style="mix-blend-mode:multiply">
<path d="M272.1 152.95V151.892L240.1 171.114V171.889L272.1 152.95Z" fill="#E6E7E8"/>
</g>
<g style="mix-blend-mode:multiply">
<path d="M272.1 156.189V155.126L240.1 174.347V175.123L272.1 156.189Z" fill="#E6E7E8"/>
</g>
<g style="mix-blend-mode:multiply">
<path d="M272.1 159.428V158.37L240.1 177.592V178.367L272.1 159.428Z" fill="#E6E7E8"/>
</g>
<g style="mix-blend-mode:multiply">
<path d="M272.1 162.666V161.608L240.1 180.829V181.605L272.1 162.666Z" fill="#E6E7E8"/>
</g>
<g style="mix-blend-mode:multiply">
<path d="M272.1 165.909V164.851L240.1 184.072V184.847L272.1 165.909Z" fill="#E6E7E8"/>
</g>
<g style="mix-blend-mode:multiply">
<path d="M272.1 169.143V168.085L240.1 187.306V188.081L272.1 169.143Z" fill="#E6E7E8"/>
</g>
<g style="mix-blend-mode:multiply">
<path d="M272.1 172.381V171.323L240.1 190.544V191.319L272.1 172.381Z" fill="#E6E7E8"/>
</g>
</g>
<path d="M173.33 160.552V214.973L84.23 164.119V109.393L173.33 160.552Z" fill="#D1EBFF"/>
<path d="M173.33 161.068L215.116 97.0562L126.016 46.2021L84.23 109.909L173.33 161.068Z" fill="#2672AB"/>
<path d="M173.33 161.068L215.116 97.0562L173.084 159.508L84.2349 109.908L173.33 161.068Z" fill="#3F92D1"/>
<path d="M90.469 155.308V119.754L109.495 130.907V166.377L90.469 155.308Z" fill="white"/>
<path d="M107.43 132.091V162.791L92.53 154.125V123.359L107.43 132.091Z" fill="#A8CFF0"/>
<path d="M173.331 214.973V161.073L214.931 96.5171V191.685L173.331 214.973Z" fill="#A8CFF0"/>
<path d="M175.387 93.1602L136.896 115.674V201.761L143.164 198.089V143.622L175.387 93.1602Z" fill="#A8CFF0"/>
<path d="M94.427 153.174L107.427 160.739V132.091L94.427 124.469V153.174Z" fill="#3F92D1"/>
<path opacity="0.3" d="M94.427 153.174L107.427 132.091L94.427 124.469V153.174Z" fill="#72B5E8"/>
<path opacity="0.5" d="M94.427 124.469V153.174L107.427 160.738V132.091L94.427 124.469ZM106.398 158.944L95.46 152.58V126.269L106.398 132.68V158.944Z" fill="#2672AB"/>
<path d="M100.875 127.415L100.166 127.041V160.308L100.875 160.682V127.415Z" fill="white"/>
<path d="M92.188 133.075V133.97L107.931 142.97V142.075L92.188 133.075Z" fill="white"/>
<path d="M92.188 142.6V143.495L107.931 152.495V151.6L92.188 142.6Z" fill="white"/>
<path d="M136.896 115.674V201.761L106.952 184.34V98.1201L136.896 115.674Z" fill="#D1EBFF"/>
<path d="M148.422 188.265V152.711L167.448 163.864V199.335L148.422 188.265Z" fill="white"/>
<path d="M165.386 165.047V195.747L150.486 187.081V156.315L165.386 165.047Z" fill="#A8CFF0"/>
<path d="M112.412 133.365V107.622L131.438 118.775V144.434L112.412 133.365Z" fill="white"/>
<path d="M129.376 119.959V140.844L114.476 132.178V111.228L129.376 119.959Z" fill="#A8CFF0"/>
<path d="M152.379 186.13L165.379 193.695V165.05L152.379 157.428V186.13Z" fill="#3F92D1"/>
<path opacity="0.3" d="M152.379 186.13L165.379 165.047L152.379 157.425V186.13Z" fill="#72B5E8"/>
<path d="M116.369 131.231L129.369 138.796V119.959L116.369 112.337V131.231Z" fill="#3F92D1"/>
<path opacity="0.5" d="M152.379 157.425V186.13L165.379 193.696V165.05L152.379 157.425ZM164.35 191.9L153.412 185.536V159.228L164.35 165.639V191.9Z" fill="#2672AB"/>
<path opacity="0.3" d="M116.369 131.231L129.369 119.959L116.369 112.337V131.231Z" fill="#72B5E8"/>
<path opacity="0.5" d="M116.369 112.335V131.229L129.369 138.795V119.959L116.369 112.335ZM128.34 136.996L117.402 130.632V114.132L128.34 120.543V136.996Z" fill="#2672AB"/>
<path d="M184.835 161.018L206.935 148.37V196.052L184.835 208.615V161.018Z" fill="#F0F8FF"/>
<path d="M186.901 162.199V205.022L204.872 194.861V151.972L186.901 162.199Z" fill="#D1EBFF"/>
<path d="M203.151 193.915V152.979L186.901 162.197V203.079L203.151 193.915Z" fill="#0BA19F"/>
<g style="mix-blend-mode:multiply">
<path d="M186.901 162.198V203.073L203.15 193.914V152.979L186.901 162.198ZM202.117 193.31L187.934 201.31V162.8L202.117 154.754V193.31Z" fill="#E6E7E8"/>
</g>
<path d="M136.896 115.674L175.388 93.1601L145.444 75.7391L106.952 98.1201L136.896 115.674Z" fill="#2672AB"/>
<path d="M136.896 115.674L175.388 93.1602L137.038 114.367L106.951 98.1212L136.896 115.674Z" fill="#3F92D1"/>
<path d="M158.609 160.134L157.899 159.76V193.027L158.609 193.401V160.134Z" fill="white"/>
<path d="M149.924 165.795V166.69L165.667 175.69V174.795L149.924 165.795Z" fill="white"/>
<path d="M149.924 175.32V176.215L165.667 185.215V184.32L149.924 175.32Z" fill="white"/>
<path d="M112.376 174.789V139.235L131.402 150.388V185.858L112.376 174.789Z" fill="white"/>
<path d="M129.336 151.569V182.269L114.436 173.603V142.84L129.336 151.569Z" fill="#A8CFF0"/>
<path d="M116.334 172.655L129.334 180.22V151.572L116.334 143.95V172.655Z" fill="#3F92D1"/>
<path opacity="0.3" d="M116.334 172.655L129.334 151.572L116.334 143.95V172.655Z" fill="#72B5E8"/>
<path opacity="0.5" d="M116.332 143.949V172.661L129.332 180.225V151.573L116.332 143.949ZM128.303 178.424L117.366 172.061V145.752L128.304 152.163L128.303 178.424Z" fill="#2672AB"/>
<path d="M122.563 146.66L121.853 146.286V179.553L122.563 179.927V146.66Z" fill="white"/>
<path d="M113.878 152.32V153.215L129.621 162.215V161.32L113.878 152.32Z" fill="white"/>
<path d="M113.878 161.845V162.745L129.621 171.745V170.85L113.878 161.845Z" fill="white"/>
<path d="M179.918 216.341V218.851L221.373 195.33V192.82L179.918 216.341Z" fill="#A8CFF0"/>
<path d="M179.931 216.341V218.851L173.318 214.968V212.468L179.931 216.341Z" fill="#D1EBFF"/>
<path d="M173.318 212.472L179.931 216.341L221.373 192.818L214.919 189.068L173.318 212.472Z" fill="#F0F8FF"/>
<g style="mix-blend-mode:multiply">
<path d="M190.652 178.807C190.632 179.174 190.525 179.532 190.34 179.85C190.155 180.168 189.898 180.438 189.589 180.638C189.004 180.977 188.528 180.707 188.528 180.038C188.549 179.671 188.655 179.313 188.84 178.995C189.024 178.677 189.281 178.406 189.589 178.205C190.18 177.862 190.652 178.134 190.652 178.807Z" fill="#A7A9AC"/>
</g>
<g style="mix-blend-mode:multiply">
<path d="M259.375 177.795C259.354 178.163 259.247 178.52 259.063 178.839C258.878 179.157 258.621 179.428 258.312 179.628C257.727 179.967 257.251 179.694 257.251 179.021C257.272 178.654 257.378 178.297 257.563 177.979C257.747 177.661 258.004 177.391 258.312 177.19C258.899 176.852 259.375 177.122 259.375 177.795Z" fill="#A7A9AC"/>
</g>
<path opacity="0.3" d="M143.164 143.622L175.388 93.1611L152.224 148.809L143.164 143.622Z" fill="#084C94"/>
<path opacity="0.2" d="M173.318 212.472L221.373 192.818L214.919 189.068L173.318 212.472Z" fill="#92B4D1"/>
<path d="M272.101 133.635V174.709L274.05 175.432V132.584L272.101 133.635Z" fill="#D1EBFF"/>
<path d="M122.731 113.897L122.021 113.523V138.078L122.731 138.452V113.897Z" fill="white"/>
<path d="M114.047 120.645V121.545L129.79 130.545V129.65L114.047 120.645Z" fill="white"/>
<path d="M72.3581 141.484C72.292 141.485 72.2263 141.473 72.1649 141.448C72.1036 141.423 72.0477 141.386 72.0007 141.34C71.9536 141.293 71.9163 141.238 71.8908 141.177C71.8652 141.116 71.8521 141.05 71.8521 140.984V138.963C71.8521 138.829 71.9053 138.701 71.9999 138.606C72.0945 138.512 72.2228 138.459 72.3566 138.459C72.4904 138.459 72.6187 138.512 72.7134 138.606C72.808 138.701 72.8611 138.829 72.8611 138.963V140.984C72.8611 141.05 72.8481 141.115 72.8228 141.176C72.7974 141.237 72.7603 141.292 72.7136 141.339C72.6668 141.385 72.6114 141.422 72.5504 141.447C72.4894 141.472 72.424 141.484 72.3581 141.484ZM72.3581 136.432C72.2915 136.433 72.2253 136.42 72.1635 136.395C72.1018 136.37 72.0457 136.333 71.9985 136.286C71.9514 136.239 71.9141 136.182 71.889 136.121C71.8638 136.059 71.8513 135.993 71.8521 135.926V133.905C71.8521 133.771 71.9053 133.643 71.9999 133.548C72.0945 133.454 72.2228 133.401 72.3566 133.401C72.4904 133.401 72.6187 133.454 72.7134 133.548C72.808 133.643 72.8611 133.771 72.8611 133.905V135.926C72.8619 135.993 72.8495 136.058 72.8245 136.12C72.7995 136.182 72.7626 136.237 72.7158 136.285C72.6689 136.332 72.6132 136.369 72.5518 136.394C72.4904 136.42 72.4245 136.432 72.3581 136.432ZM72.3581 131.378C72.292 131.379 72.2263 131.367 72.1649 131.342C72.1036 131.317 72.0477 131.28 72.0007 131.234C71.9536 131.187 71.9163 131.132 71.8908 131.071C71.8652 131.01 71.8521 130.944 71.8521 130.878V128.857C71.8521 128.723 71.9053 128.595 71.9999 128.5C72.0945 128.406 72.2228 128.353 72.3566 128.353C72.4904 128.353 72.6187 128.406 72.7134 128.5C72.808 128.595 72.8611 128.723 72.8611 128.857V130.878C72.8611 130.944 72.8481 131.009 72.8228 131.07C72.7974 131.131 72.7603 131.186 72.7136 131.233C72.6668 131.279 72.6114 131.316 72.5504 131.341C72.4894 131.366 72.424 131.378 72.3581 131.378ZM72.3581 126.326C72.2916 126.326 72.2258 126.313 72.1643 126.288C72.1029 126.262 72.047 126.225 72 126.178C71.953 126.131 71.9157 126.075 71.8904 126.014C71.865 125.952 71.852 125.887 71.8521 125.82V123.795C71.8521 123.661 71.9053 123.533 71.9999 123.438C72.0945 123.344 72.2228 123.291 72.3566 123.291C72.4904 123.291 72.6187 123.344 72.7134 123.438C72.808 123.533 72.8611 123.661 72.8611 123.795V125.816C72.8625 125.883 72.8504 125.949 72.8257 126.011C72.801 126.073 72.7641 126.13 72.7172 126.177C72.6703 126.225 72.6144 126.262 72.5527 126.288C72.491 126.314 72.4249 126.327 72.3581 126.326V126.326ZM72.3581 121.272C72.292 121.273 72.2263 121.261 72.1649 121.236C72.1036 121.211 72.0477 121.174 72.0007 121.128C71.9536 121.081 71.9163 121.026 71.8908 120.965C71.8652 120.904 71.8521 120.838 71.8521 120.772V118.751C71.8521 118.617 71.9053 118.489 71.9999 118.394C72.0945 118.3 72.2228 118.247 72.3566 118.247C72.4904 118.247 72.6187 118.3 72.7134 118.394C72.808 118.489 72.8611 118.617 72.8611 118.751V120.772C72.8611 120.838 72.8481 120.903 72.8228 120.964C72.7974 121.025 72.7603 121.08 72.7136 121.127C72.6668 121.173 72.6114 121.21 72.5504 121.235C72.4894 121.26 72.424 121.272 72.3581 121.272V121.272ZM72.3581 116.22C72.2916 116.22 72.2258 116.207 72.1643 116.182C72.1029 116.156 72.047 116.119 72 116.072C71.953 116.025 71.9157 115.969 71.8904 115.908C71.865 115.846 71.852 115.781 71.8521 115.714V113.695C71.8521 113.561 71.9053 113.433 71.9999 113.338C72.0945 113.244 72.2228 113.191 72.3566 113.191C72.4904 113.191 72.6187 113.244 72.7134 113.338C72.808 113.433 72.8611 113.561 72.8611 113.695V115.716C72.8616 115.782 72.849 115.848 72.8239 115.909C72.7988 115.971 72.7618 116.026 72.715 116.073C72.6682 116.12 72.6126 116.157 72.5513 116.183C72.49 116.208 72.4244 116.221 72.3581 116.22ZM72.3581 111.166H72.3471C72.2134 111.163 72.0863 111.108 71.9936 111.011C71.9008 110.915 71.85 110.786 71.8521 110.652C71.8661 109.959 71.9205 109.266 72.0151 108.579C72.0347 108.447 72.1051 108.328 72.2112 108.247C72.3172 108.166 72.4507 108.13 72.5831 108.146C72.716 108.164 72.8362 108.235 72.9174 108.342C72.9986 108.448 73.0341 108.583 73.0161 108.716C72.9262 109.364 72.8754 110.017 72.8641 110.671C72.861 110.803 72.8066 110.928 72.7124 111.02C72.6183 111.113 72.4919 111.165 72.3601 111.165L72.3581 111.166ZM73.1941 106.202C73.1407 106.202 73.0877 106.193 73.0371 106.176C72.9094 106.135 72.8033 106.045 72.7422 105.925C72.6811 105.806 72.6699 105.667 72.7111 105.539C72.9263 104.88 73.1797 104.233 73.4701 103.603C73.4978 103.543 73.5371 103.489 73.5858 103.444C73.6344 103.399 73.6914 103.364 73.7536 103.341C73.8158 103.318 73.8819 103.307 73.9481 103.31C74.0143 103.312 74.0794 103.328 74.1396 103.356C74.1998 103.383 74.254 103.423 74.299 103.471C74.344 103.52 74.379 103.577 74.402 103.639C74.425 103.701 74.4355 103.767 74.433 103.834C74.4304 103.9 74.4148 103.965 74.3871 104.025C74.1138 104.619 73.8754 105.229 73.6731 105.851C73.6412 105.953 73.5777 106.041 73.4919 106.104C73.4062 106.167 73.3025 106.201 73.1961 106.201L73.1941 106.202ZM75.4271 101.69C75.3362 101.69 75.247 101.665 75.169 101.618C75.091 101.571 75.0271 101.504 74.9839 101.424C74.9407 101.344 74.9199 101.254 74.9236 101.163C74.9274 101.072 74.9555 100.984 75.0051 100.908L76.1161 99.2171C76.1526 99.1616 76.1996 99.1138 76.2545 99.0765C76.3094 99.0392 76.3711 99.0131 76.4361 98.9996C76.5011 98.9862 76.5681 98.9856 76.6333 98.9981C76.6985 99.0105 76.7606 99.0357 76.8161 99.0721C76.8716 99.1085 76.9194 99.1556 76.9567 99.2105C76.994 99.2654 77.0201 99.3271 77.0336 99.3921C77.0471 99.4571 77.0476 99.5241 77.0352 99.5893C77.0227 99.6545 76.9976 99.7166 76.9611 99.7721L75.8511 101.461C75.8055 101.531 75.743 101.589 75.6692 101.629C75.5955 101.669 75.5129 101.69 75.4291 101.689L75.4271 101.69ZM78.1991 97.4631C78.1074 97.4648 78.0169 97.4412 77.9377 97.3949C77.8585 97.3486 77.7935 97.2814 77.7499 97.2006C77.7063 97.1199 77.6858 97.0287 77.6906 96.9371C77.6954 96.8454 77.7253 96.7569 77.7771 96.6811L78.8851 94.9921C78.9603 94.8841 79.0746 94.8097 79.2038 94.7846C79.3329 94.7595 79.4667 94.7857 79.5769 94.8576C79.6871 94.9296 79.7649 95.0416 79.7939 95.1699C79.8229 95.2983 79.8007 95.4328 79.7321 95.5451L78.6241 97.2361C78.5777 97.3057 78.5148 97.3628 78.441 97.4023C78.3672 97.4417 78.2848 97.4623 78.2011 97.4621L78.1991 97.4631ZM80.9701 93.2381C80.8718 93.2384 80.7756 93.2092 80.6941 93.1541C80.638 93.1182 80.5896 93.0715 80.5517 93.0167C80.5139 92.9619 80.4874 92.9 80.4738 92.8348C80.4602 92.7696 80.4598 92.7023 80.4725 92.637C80.4853 92.5716 80.511 92.5094 80.5481 92.4541L81.6561 90.7631C81.6925 90.7075 81.7396 90.6596 81.7946 90.6222C81.8495 90.5847 81.9113 90.5585 81.9764 90.5449C82.0415 90.5314 82.1086 90.5308 82.1739 90.5431C82.2393 90.5555 82.3015 90.5807 82.3571 90.6171C82.4127 90.6535 82.4606 90.7006 82.4981 90.7555C82.5355 90.8105 82.5617 90.8723 82.5753 90.9374C82.5888 91.0025 82.5894 91.0696 82.5771 91.1349C82.5647 91.2002 82.5396 91.2625 82.5031 91.3181L81.3951 93.0091C81.349 93.0793 81.2863 93.1369 81.2124 93.1768C81.1386 93.2168 81.056 93.2378 80.9721 93.2381H80.9701ZM83.7411 89.0131C83.6502 89.0127 83.561 88.9878 83.483 88.9411C83.405 88.8943 83.3411 88.8274 83.2979 88.7474C83.2547 88.6674 83.2339 88.5772 83.2376 88.4863C83.2414 88.3955 83.2695 88.3073 83.3191 88.2311L84.4271 86.5401C84.502 86.4308 84.6167 86.3552 84.7466 86.3296C84.8766 86.3039 85.0114 86.3302 85.1222 86.4029C85.2329 86.4756 85.3108 86.5888 85.339 86.7182C85.3672 86.8476 85.3436 86.9829 85.2731 87.0951L84.1631 88.7841C84.1179 88.8542 84.0559 88.9119 83.9827 88.9518C83.9095 88.9918 83.8275 89.0129 83.7441 89.0131H83.7411ZM86.5131 84.7861C86.4214 84.7878 86.3309 84.7642 86.2517 84.7179C86.1725 84.6716 86.1075 84.6044 86.0639 84.5236C86.0204 84.4429 85.9998 84.3517 86.0046 84.2601C86.0094 84.1684 86.0394 84.0799 86.0911 84.0041L87.2011 82.3151C87.2747 82.203 87.3898 82.1248 87.5211 82.0976C87.6524 82.0704 87.7891 82.0965 87.9011 82.1701C88.0132 82.2437 88.0914 82.3588 88.1186 82.4901C88.1458 82.6213 88.1197 82.758 88.0461 82.8701L86.9361 84.5591C86.8905 84.6291 86.8281 84.6865 86.7545 84.7262C86.681 84.7659 86.5987 84.7865 86.5151 84.7861H86.5131ZM89.2841 80.5611C89.1924 80.5628 89.1019 80.5392 89.0227 80.4929C88.9435 80.4466 88.8785 80.3794 88.8349 80.2986C88.7914 80.2179 88.7708 80.1267 88.7756 80.0351C88.7804 79.9434 88.8104 79.8549 88.8621 79.7791L89.9721 78.0901C90.0454 77.978 90.1603 77.8997 90.2914 77.8723C90.4225 77.845 90.5591 77.8708 90.6711 77.9441C90.7832 78.0174 90.8615 78.1323 90.8889 78.2634C90.9163 78.3945 90.8904 78.531 90.8171 78.6431L89.7071 80.3341C89.6616 80.404 89.5993 80.4613 89.5259 80.501C89.4526 80.5406 89.3705 80.5613 89.2871 80.5611H89.2841ZM92.0581 76.3361C91.9588 76.3369 91.8615 76.3076 91.7791 76.2521C91.7231 76.2161 91.6749 76.1692 91.6373 76.1143C91.5996 76.0594 91.5734 75.9976 91.5599 75.9324C91.5465 75.8672 91.5463 75.8 91.5592 75.7347C91.5721 75.6694 91.5979 75.6073 91.6351 75.5521L92.7431 73.8611C92.8167 73.7492 92.9317 73.6711 93.0629 73.644C93.1941 73.6169 93.3307 73.643 93.4426 73.7166C93.5545 73.7902 93.6326 73.9052 93.6597 74.0364C93.6868 74.1676 93.6607 74.3042 93.5871 74.4161L92.4791 76.1071C92.434 76.1774 92.3721 76.2352 92.2989 76.2754C92.2257 76.3156 92.1436 76.3368 92.0601 76.3371L92.0581 76.3361ZM94.8291 72.1111C94.7299 72.1108 94.633 72.0816 94.5501 72.0271C94.4942 71.991 94.4461 71.9441 94.4085 71.8892C94.371 71.8342 94.3448 71.7723 94.3315 71.7071C94.3182 71.642 94.318 71.5748 94.331 71.5095C94.344 71.4442 94.3698 71.3822 94.4071 71.3271L95.5151 69.6361C95.5516 69.5806 95.5986 69.5329 95.6535 69.4955C95.7084 69.4582 95.7701 69.4321 95.8351 69.4186C95.9001 69.4052 95.9671 69.4046 96.0323 69.4171C96.0975 69.4295 96.1596 69.4547 96.2151 69.4911C96.2706 69.5275 96.3184 69.5746 96.3557 69.6295C96.393 69.6844 96.4191 69.7461 96.4326 69.8111C96.4461 69.8761 96.4466 69.9431 96.4341 70.0083C96.4217 70.0735 96.3966 70.1356 96.3601 70.1911L95.2521 71.8801C95.2068 71.9505 95.1447 72.0086 95.0714 72.049C94.9981 72.0895 94.9159 72.1112 94.8321 72.1121L94.8291 72.1111ZM97.6001 67.8841C97.5082 67.8862 97.4175 67.8628 97.338 67.8167C97.2585 67.7705 97.1932 67.7034 97.1494 67.6225C97.1055 67.5417 97.0849 67.4504 97.0896 67.3586C97.0943 67.2667 97.1242 67.178 97.1761 67.1021L98.2861 65.4131C98.3225 65.3576 98.3696 65.3099 98.4245 65.2725C98.4794 65.2352 98.5411 65.2091 98.6061 65.1956C98.6711 65.1822 98.7381 65.1816 98.8033 65.1941C98.8685 65.2065 98.9306 65.2317 98.9861 65.2681C99.0416 65.3045 99.0894 65.3516 99.1267 65.4065C99.164 65.4614 99.1901 65.5231 99.2036 65.5881C99.2171 65.6531 99.2176 65.7201 99.2051 65.7853C99.1927 65.8505 99.1675 65.9126 99.1311 65.9681L98.0231 67.6571C97.9777 67.7271 97.9155 67.7847 97.8421 67.8245C97.7687 67.8644 97.6866 67.8852 97.6031 67.8851L97.6001 67.8841ZM100.372 63.6591C100.28 63.6612 100.189 63.6378 100.11 63.5917C100.03 63.5455 99.9652 63.4784 99.9214 63.3975C99.8775 63.3167 99.8569 63.2254 99.8616 63.1336C99.8663 63.0417 99.8962 62.953 99.9481 62.8771L101.058 61.1881C101.131 61.076 101.246 60.9977 101.377 60.9703C101.508 60.943 101.645 60.9688 101.757 61.0421C101.869 61.1154 101.948 61.2303 101.975 61.3614C102.002 61.4924 101.976 61.629 101.903 61.7411L100.795 63.4321C100.749 63.5018 100.687 63.559 100.614 63.5988C100.54 63.6386 100.458 63.6596 100.375 63.6601L100.372 63.6591ZM103.141 59.4341C103.05 59.4337 102.961 59.4088 102.883 59.3621C102.805 59.3153 102.741 59.2484 102.698 59.1684C102.655 59.0884 102.634 58.9982 102.638 58.9073C102.641 58.8165 102.67 58.7283 102.719 58.6521L103.829 56.9611C103.866 56.9056 103.913 56.8579 103.967 56.8205C104.022 56.7832 104.084 56.7571 104.149 56.7436C104.214 56.7302 104.281 56.7296 104.346 56.7421C104.412 56.7545 104.474 56.7797 104.529 56.8161C104.585 56.8525 104.632 56.8996 104.67 56.9545C104.707 57.0094 104.733 57.0711 104.747 57.1361C104.76 57.2011 104.761 57.2681 104.748 57.3333C104.736 57.3985 104.711 57.4606 104.674 57.5161L103.566 59.2051C103.52 59.2753 103.458 59.3332 103.384 59.3735C103.31 59.4138 103.228 59.4353 103.144 59.4361L103.141 59.4341ZM105.915 55.2091C105.816 55.2085 105.719 55.1794 105.636 55.1251C105.58 55.0891 105.532 55.0422 105.494 54.9873C105.457 54.9324 105.43 54.8706 105.417 54.8054C105.404 54.7402 105.403 54.673 105.416 54.6077C105.429 54.5424 105.455 54.4803 105.492 54.4251L106.337 53.1351C106.412 53.0271 106.527 52.9527 106.656 52.9276C106.785 52.9025 106.919 52.9287 107.029 53.0006C107.139 53.0726 107.217 53.1846 107.246 53.3129C107.275 53.4413 107.253 53.5758 107.184 53.6881L106.337 54.9781C106.292 55.0486 106.23 55.1067 106.157 55.1474C106.084 55.188 106.002 55.2099 105.918 55.2111L105.915 55.2091Z" fill="#EB4680"/>
<path d="M76.2272 88.9311C76.1354 88.9328 76.045 88.9092 75.9658 88.8629C75.8865 88.8166 75.8216 88.7494 75.778 88.6687C75.7344 88.5879 75.7139 88.4967 75.7187 88.4051C75.7235 88.3135 75.7534 88.2249 75.8052 88.1492L95.9022 57.5171C95.9758 57.4048 96.091 57.3263 96.2225 57.299C96.3539 57.2716 96.4909 57.2976 96.6032 57.3712C96.7155 57.4447 96.794 57.5599 96.8214 57.6914C96.8487 57.8229 96.8228 57.9598 96.7492 58.0721L76.6542 88.7042C76.608 88.775 76.5446 88.833 76.47 88.8727C76.3953 88.9124 76.3117 88.9325 76.2272 88.9311Z" fill="#A8CFF0"/>
<path opacity="0.1" d="M62.3588 284.3C72.834 284.3 81.3258 280.276 81.3258 275.312C81.3258 270.348 72.834 266.324 62.3588 266.324C51.8837 266.324 43.3918 270.348 43.3918 275.312C43.3918 280.276 51.8837 284.3 62.3588 284.3Z" fill="#030504"/>
<path d="M69.6118 163.943C68.9493 164.498 68.4142 165.19 68.043 165.971C67.6718 166.751 67.4731 167.603 67.4607 168.468C67.4607 168.468 63.3448 168.95 61.3418 166.873C61.3418 166.873 63.4928 159.938 65.6418 157.416L69.6118 163.943Z" fill="#EBA997"/>
<path d="M71.2439 179.961C74.3979 178.135 80.8619 174.211 81.9109 172.775C82.9599 171.339 82.961 167.637 83.845 167.416C84.729 167.195 84.7839 169.959 84.7839 169.959C84.7839 169.959 86.6068 165.705 87.3838 166.092C88.1608 166.479 90.9747 172.003 83.2397 175.592C83.2397 175.592 77.1007 184.462 69.6147 187.911L71.2439 179.961Z" fill="#FAB4A0"/>
<path d="M66.7819 159.396C67.2259 161.617 67.3149 164.376 70.9569 164.728C70.9569 164.728 76.1089 159.218 75.2199 152.028L71.5778 148.564L65.893 150.074C65.893 150.074 64.0279 154.44 64.1169 154.655C64.2059 154.87 66.7819 159.396 66.7819 159.396Z" fill="#FAB4A0"/>
<path d="M63.5947 165.493C66.5757 165.579 73.5827 169.58 74.0947 175.759C74.6067 181.938 72.1438 187.235 71.7258 191.37C71.3078 195.505 72.4258 204.889 72.4258 204.889C72.4258 204.889 56.9769 208.388 53.1919 202.379C53.1919 202.379 53.6217 190.627 52.6167 186.58C51.6117 182.533 51.4727 171.017 57.0007 167.58C56.9977 167.584 60.3897 165.4 63.5947 165.493Z" fill="#FFC000"/>
<path d="M53.2069 270.207C53.2069 270.207 51.4268 273.695 54.7838 274.045C58.1408 274.395 64.2248 271.178 64.0148 270.545C63.8048 269.912 63.663 270.045 61.433 269.796C59.7635 269.592 58.0801 269.525 56.3998 269.596C55.3156 269.677 54.2444 269.882 53.2069 270.207V270.207Z" fill="#501F43"/>
<path d="M62.5737 226.174L63.1177 241.304C63.1177 241.304 61.6448 246.347 61.6448 248.148C61.6448 249.949 62.5747 274.805 62.5747 274.805C62.8665 275.035 63.2093 275.191 63.5742 275.261C63.9391 275.331 64.3153 275.312 64.6714 275.206C65.0275 275.1 65.353 274.91 65.6204 274.652C65.8877 274.394 66.0892 274.076 66.2078 273.724C66.2078 273.724 68.8158 248.988 69.6128 244.905C70.4098 240.822 71.1438 235.513 71.1438 235.513L62.5737 226.174Z" fill="#FAB4A0"/>
<path d="M55.1128 233.257L55.6638 239.225C54.9942 241.187 54.6182 243.237 54.5479 245.31C54.5479 248.269 54.6589 251.339 54.5479 254.018C54.4369 256.697 53.2078 270.207 53.2078 270.207C53.2078 270.207 56.0009 270.816 57.6079 269.564L61.6438 242.631L62.8889 228.675L55.1128 233.257Z" fill="#FAB4A0"/>
<path d="M72.4238 204.889C72.4238 204.889 74.8507 222.8 71.1457 235.514C65.8467 236.672 60.3274 236.293 55.2358 234.424C55.2358 234.424 53.4007 220.459 51.9477 215.156C50.4947 209.853 53.1907 202.381 53.1907 202.381C53.1907 202.381 56.5548 207.392 72.4238 204.889Z" fill="#4C2D29"/>
<path d="M62.5169 273.282C62.5169 273.282 61.466 276.759 62.24 277.439C63.014 278.119 66.203 278.33 67.24 278.096C68.277 277.862 72.797 278.448 74.532 278.355C76.267 278.262 76.1259 277.555 75.7749 277.229C75.4239 276.903 66.3169 272.735 66.3169 272.735C66.3169 272.735 65.5879 274.337 62.5169 273.282Z" fill="#501F43"/>
<path d="M72.0078 145.989C75.0278 147.189 78.5598 152.236 71.2248 156.276C71.2248 156.276 68.8698 157.441 68.7038 159.368C68.595 160.592 68.2059 161.776 67.5664 162.826C66.9268 163.876 66.054 164.765 65.0158 165.424C62.6488 166.746 65.0159 172.251 62.8689 174.784C60.7219 177.317 57.0878 181.005 53.6748 179.684C53.6748 179.684 51.528 178.584 53.344 175.225C55.16 171.866 56.1519 169.554 55.8769 167.848C55.6019 166.142 55.5468 160.248 57.8588 157.663C60.1708 155.078 60.1708 151.056 62.3178 149.019C64.4648 146.982 67.4378 144.171 72.0078 145.989Z" fill="#4C2D29"/>
<path d="M69.2139 158.729C68.8069 157.041 68.6929 153.957 70.2049 154.364C71.7169 154.771 71.1351 158.264 71.1351 158.264L69.2139 158.729Z" fill="#FAB4A0"/>
<path d="M92.5651 164.298L91.1533 163.42C90.1578 162.8 88.849 163.106 88.2299 164.101L84.1643 170.638C83.5452 171.634 83.8503 172.943 84.8458 173.562L86.2577 174.44C87.2531 175.059 88.5619 174.754 89.181 173.758L93.2466 167.221C93.8657 166.226 93.5606 164.917 92.5651 164.298Z" fill="#F7D28F"/>
<path d="M87.3259 175.437L83.4839 173.048C83.265 172.911 83.1093 172.693 83.0508 172.442C82.9923 172.191 83.0358 171.927 83.1719 171.708L88.7488 162.739C88.8853 162.52 89.103 162.364 89.3542 162.306C89.6054 162.247 89.8697 162.291 90.0888 162.427L93.9309 164.816C94.1499 164.952 94.3058 165.17 94.3645 165.421C94.4232 165.672 94.3798 165.936 94.2439 166.156L88.6667 175.125C88.5302 175.344 88.3122 175.5 88.0608 175.558C87.8093 175.617 87.5451 175.573 87.3259 175.437V175.437ZM89.7927 162.903C89.7 162.845 89.5882 162.827 89.4819 162.851C89.3756 162.876 89.2836 162.942 89.2258 163.035L83.6489 172.004C83.5913 172.096 83.5729 172.208 83.5976 172.314C83.6224 172.421 83.6881 172.513 83.7807 172.571L87.6228 174.96C87.7155 175.017 87.8273 175.036 87.9336 175.011C88.0399 174.986 88.1322 174.92 88.1899 174.828L93.7668 165.859C93.8244 165.766 93.8428 165.654 93.8181 165.548C93.7933 165.442 93.7274 165.349 93.6347 165.292L89.7927 162.903Z" fill="#1A1A1A"/>
<path d="M92.5651 164.298L91.1533 163.42C90.1578 162.8 88.849 163.106 88.2299 164.101L84.1643 170.638C83.5452 171.634 83.8503 172.943 84.8458 173.562L86.2577 174.44C87.2531 175.059 88.5619 174.754 89.181 173.758L93.2466 167.221C93.8657 166.226 93.5606 164.917 92.5651 164.298Z" fill="#1FBDF3"/>
<path d="M89.053 178.037C89.053 178.037 86.081 194.018 81.806 193.229C80.387 192.966 78.358 191.505 76.273 189.639C72.078 185.886 67.6529 180.501 67.4979 179.961C67.2659 179.152 66.2898 176.225 68.0088 173.67C69.4608 171.514 72.054 171.122 73.376 172.93C73.376 172.93 78.0759 181.978 80.5289 185.401C81.1569 186.276 81.6348 186.783 81.8528 186.679C82.9208 186.168 86.4979 176.737 86.4979 176.737C86.4979 176.737 85.5219 171.302 86.4979 171.162C87.4739 171.022 88.2178 173.95 88.2178 173.95C88.2178 173.95 91.1448 168.282 91.7488 168.75C92.3528 169.218 92.491 174.879 89.053 178.037Z" fill="#FAB4A0"/>
<path d="M80.5289 185.401C79.6199 187.247 78.1227 188.738 76.273 189.639C72.078 185.886 67.6529 180.501 67.4979 179.961C67.2659 179.152 66.2898 176.225 68.0088 173.67C69.4608 171.514 72.054 171.122 73.376 172.93C73.376 172.93 78.0769 181.978 80.5289 185.401Z" fill="#E5B111"/>
<path d="M94.394 194.304C94.4454 213.087 94.4954 231.87 94.544 250.654C94.544 252.447 95.644 254.231 97.833 255.582L97.683 199.233C95.494 197.878 94.399 196.098 94.394 194.304Z" fill="#CECECB"/>
<path d="M94.394 194.304L94.544 250.654C94.544 250.69 94.544 250.724 94.544 250.761L94.394 194.411C94.394 194.376 94.394 194.339 94.394 194.304Z" fill="#CECECB"/>
<path d="M94.3951 194.411L94.5451 250.761C94.5518 250.998 94.5765 251.233 94.6191 251.466L94.4691 195.115C94.4244 194.884 94.3986 194.65 94.3921 194.415L94.3951 194.411Z" fill="#CECECB"/>
<path d="M94.4722 195.115L94.6192 251.467C94.6661 251.699 94.7276 251.928 94.8032 252.153L94.6522 195.803C94.5756 195.578 94.5155 195.348 94.4722 195.115V195.115Z" fill="#CECECB"/>
<path d="M94.6522 195.802L94.8032 252.152C94.8875 252.389 94.9877 252.62 95.1032 252.844L94.9532 196.491C94.8346 196.269 94.7327 196.039 94.6482 195.802H94.6522Z" fill="#CECECB"/>
<path d="M94.957 196.492L95.1071 252.845C95.2411 253.094 95.3928 253.334 95.561 253.562L95.415 197.214C95.2461 196.985 95.094 196.743 94.9601 196.492H94.957Z" fill="#CECECB"/>
<path d="M95.4131 197.213L95.5621 253.562C95.7753 253.847 96.0093 254.116 96.2621 254.367L96.1131 198.017C95.8621 197.766 95.6282 197.499 95.4131 197.217V197.213Z" fill="#CECECB"/>
<path d="M96.116 198.017L96.265 254.367C96.7007 254.789 97.1785 255.165 97.691 255.49L97.544 199.141C97.031 198.816 96.5528 198.44 96.117 198.017H96.116Z" fill="#CECECB"/>
<path d="M97.54 199.141L97.687 255.485C97.737 255.519 97.787 255.549 97.833 255.577L97.683 199.228C97.634 199.2 97.583 199.167 97.54 199.136V199.141Z" fill="#CECECB"/>
<path d="M102.987 281.919C103.694 282.062 105.729 283.086 104.358 284.458C102.987 285.83 98.658 289.826 96.021 289.826H94.221L92.744 291.765C92.211 292.067 91.6236 292.26 91.0156 292.334C90.4075 292.408 89.7908 292.361 89.201 292.196C87.882 291.765 87.885 289.826 87.885 289.826V287.455C87.885 287.455 99.677 281.245 102.987 281.919Z" fill="#1F2120"/>
<path d="M88.6671 235.524C88.6671 235.524 87.7401 254.003 88.7781 258.815C88.7781 258.815 86.7651 282.727 88.0461 288.046C88.0461 288.046 92.9941 290.134 93.0461 289.263C93.7621 277.933 93.2911 265.503 93.2911 261.525C93.2911 257.547 94.5491 242.897 94.5491 239.886C92.5158 238.533 90.5525 237.077 88.6671 235.524V235.524Z" fill="#1A262B"/>
<path d="M93.054 238.868C93.054 238.868 91.9921 258.78 91.9921 261.255C91.9921 263.73 91.4611 289.263 91.4611 289.263C91.4611 289.263 89.614 288.708 88.748 288.328C87.882 287.948 88.448 267.559 89.411 264.244C90.374 260.929 89.411 256.93 89.411 255.972C89.411 255.014 88.258 237.446 89.411 236.136L93.054 238.868Z" fill="#1A2A30"/>
<path d="M103.81 282.29C104.519 282.435 106.556 283.459 105.185 284.826C103.814 286.193 99.4851 290.191 96.8441 290.191H95.0511L93.5701 292.138C93.0377 292.44 92.451 292.633 91.8436 292.707C91.2362 292.78 90.6202 292.733 90.0311 292.568C88.7141 292.138 88.7191 290.191 88.7191 290.191L88.7141 288.326C88.7141 288.326 100.502 281.615 103.81 282.29Z" fill="#1F2120"/>
<path d="M95.7642 288.405C95.7642 288.405 107.739 283.977 102.627 282.29C102.627 282.29 98.7362 283.133 97.9552 283.914C97.6298 285.577 96.8744 287.125 95.7642 288.405V288.405Z" fill="#292B27"/>
<path d="M86.5001 228.952C86.5001 228.952 86.4451 247.337 88.7171 258.576C88.7171 258.576 87.3411 284.782 88.8021 288.783C88.8021 288.783 93.5551 291.199 96.0021 286.46C99.2851 280.104 95.7021 265.59 98.0501 254.771C100.398 243.952 97.8801 228.064 97.8801 226.066C97.8801 224.068 86.5001 228.952 86.5001 228.952Z" fill="#0D1013"/>
<g opacity="0.57">
<path opacity="0.57" fill-rule="evenodd" clip-rule="evenodd" d="M86.5 228.952C86.5 228.952 87.874 256.213 88.7 258.54C88.7 258.54 87.468 281.546 88.716 288.328C88.716 288.328 88.804 289.843 93.122 289.312C93.122 289.312 93.622 266.987 93.622 261.929C93.622 256.871 95.522 227.949 95.922 225.91L86.5 228.952Z" fill="#17242A"/>
</g>
<path d="M87.1291 228.725L94.3011 226.362C93.9161 230.549 92.501 251.03 91.984 258.375C91.331 267.636 92.454 288.125 92.454 289.311C92.454 289.311 89.837 289.819 88.803 288.783C87.769 287.747 89.411 261.727 89.411 260.542C89.411 259.357 86.6821 235.323 87.1291 228.725Z" fill="#162A2E"/>
<path d="M104.162 285.802C104.162 285.802 98.568 289.955 94.946 289.545L93.291 291.445C93.291 291.445 90.266 292.992 88.802 290.914C88.802 290.914 89.467 294.192 93.57 292.135L95.051 290.188C96.2522 290.286 97.4609 290.139 98.603 289.754C100.645 288.725 102.519 287.392 104.162 285.802V285.802Z" fill="#121315"/>
<path d="M87.9151 290.144C87.9151 290.144 87.8451 294.088 92.7481 291.765L94.2251 289.826H96.6461L98.6741 288.948L94.2251 289.264C94.2251 289.264 92.5361 290.964 92.2131 291.283C91.8901 291.602 88.7921 292.504 87.9151 290.144Z" fill="#121315"/>
<path d="M115.016 289.315C115.723 289.46 117.76 290.485 116.392 291.858C115.024 293.231 110.692 297.218 108.055 297.218H106.255L104.778 299.164C104.245 299.466 103.657 299.659 103.049 299.733C102.44 299.807 101.823 299.759 101.233 299.594C99.9182 299.164 99.9211 297.219 99.9211 297.219V295.356C99.9211 295.356 111.705 288.641 115.016 289.315Z" fill="#1F2120"/>
<path d="M106.97 295.434C106.97 295.434 118.944 291.002 113.835 289.316C113.835 289.316 109.941 290.158 109.159 290.943C108.835 292.606 108.08 294.154 106.97 295.434V295.434Z" fill="#292B27"/>
<path d="M97.7081 235.977C97.7081 235.977 97.6531 254.364 99.9211 265.605C99.9211 265.605 98.5481 291.805 100.012 295.812C100.012 295.812 104.764 298.225 107.212 293.485C110.494 287.126 107.69 268.718 110.04 257.897C112.39 247.076 110.208 233.454 110.208 231.457C110.208 229.46 97.7081 235.977 97.7081 235.977Z" fill="#0D1013"/>
<g opacity="0.57">
<path opacity="0.57" fill-rule="evenodd" clip-rule="evenodd" d="M97.708 235.977C97.708 235.977 99.081 263.241 99.902 265.562C99.902 265.562 98.674 288.572 99.921 295.355C99.921 295.355 100.012 296.868 104.321 296.337C104.321 296.337 104.816 274.008 104.816 268.956C104.816 263.904 106.716 234.98 107.121 232.939L97.708 235.977Z" fill="#17242A"/>
</g>
<g opacity="0.57">
<path opacity="0.57" d="M98.3352 235.748L105.503 233.388C105.122 237.577 103.703 258.053 103.19 265.401C102.537 274.662 103.662 295.151 103.662 296.337C103.662 296.337 101.042 296.837 100.012 295.811C98.9822 294.785 100.617 268.754 100.617 267.569C100.617 266.384 97.8892 242.349 98.3352 235.748Z" fill="#162A2E"/>
</g>
<path d="M115.369 292.83C115.369 292.83 109.769 296.982 106.153 296.569L104.501 298.474C104.501 298.474 101.47 300.024 100.012 297.943C100.012 297.943 100.669 301.222 104.782 299.164L106.259 297.218C107.461 297.318 108.67 297.171 109.813 296.786C111.854 295.755 113.727 294.421 115.369 292.83Z" fill="#121315"/>
<path d="M104.304 188.385C104.304 188.385 110.495 190.877 112.004 194.073C113.513 197.269 111.095 214.7 111.095 217.709C111.095 220.718 112.625 234.081 112.625 235.894C112.625 237.707 107.805 241.094 104.307 241.094C104.307 241.094 92.63 244.402 86.287 231.557C86.287 231.557 85.607 224.925 87.838 212.345C87.838 212.345 86.984 195.145 86.352 190.729C85.998 188.263 87.052 179.266 94.976 184.253L99.376 187.101L104.304 188.385Z" fill="#D1CECD"/>
<path d="M104.304 188.385C104.304 188.385 110.495 190.877 112.004 194.073C113.513 197.269 111.095 214.7 111.095 217.709C111.095 220.718 112.625 234.081 112.625 235.894C112.625 237.707 107.805 241.094 104.307 241.094C104.307 241.094 92.63 244.402 86.287 231.557C86.287 231.557 85.607 224.925 87.838 212.345C87.838 212.345 86.984 195.145 86.352 190.729C85.998 188.263 87.052 179.266 94.976 184.253L99.376 187.101L104.304 188.385Z" fill="#9FDAF2"/>
<path d="M108.332 239.992C108.765 236.894 109.014 233.773 109.076 230.645C109.076 230.645 110.139 238.674 110.966 239.499C111.793 240.324 108.332 239.992 108.332 239.992Z" fill="#0D1013"/>
<path d="M104.304 188.388C104.304 188.388 110.495 190.88 112.004 194.076C113.513 197.272 111.095 214.703 111.095 217.712C111.095 220.721 112.625 234.084 112.625 235.897C112.625 237.71 107.836 241.071 104.342 241.097C104.164 237.025 103.942 231.317 103.942 228.058C104.112 220.331 104.78 212.624 105.942 204.983C106.884 200.15 106.799 196.864 104.742 195.355C96.424 189.269 92.896 186.366 92.896 186.366L97.196 185.692L99.382 187.105L104.304 188.388Z" fill="#77BED8"/>
<path d="M103.013 183.495C103.013 183.495 101.429 187.023 103.437 188.779C104.364 189.591 96.8071 189.487 93.2371 186.493C94.0732 185.689 94.5872 184.608 94.6827 183.452C94.7783 182.296 94.4488 181.144 93.756 180.214L103.013 183.495Z" fill="#F19662"/>
<path d="M102.796 186.968C102.796 186.968 99.5152 189.849 94.8862 185.22L95.2972 183.697L95.3972 182.846L97.7622 174.615C97.7622 174.615 99.1542 180.529 100.262 182.186C101.051 183.01 101.922 183.752 102.862 184.398C102.579 185.228 102.556 186.125 102.796 186.968Z" fill="#F19662"/>
<path d="M103.522 189.206C103.522 189.206 101.249 186.623 94.7891 183.506L103.124 184.137C102.82 184.961 102.699 185.84 102.767 186.715C102.836 187.59 103.094 188.44 103.522 189.206Z" fill="#E48652"/>
<path d="M105.465 169.098C105.465 169.098 107.582 171.884 107.354 173.626C107.203 174.565 107.112 175.512 107.081 176.463C107.116 177.113 107.492 177.436 107.521 177.982C107.55 178.528 106.775 184.082 104.766 184.196C102.757 184.31 100.072 186.658 93.8952 181.145C93.8952 181.145 89.2022 175.526 92.7192 169.586C92.7202 169.586 97.2312 163.538 105.465 169.098Z" fill="#F5A675"/>
<path d="M107.143 172.564C106.543 173.425 106.148 174.413 105.99 175.451C105.99 176.643 106.622 178.58 105.99 179.213C105.358 179.846 104.312 180.218 103.802 181.402C103.275 182.373 102.996 183.46 102.991 184.565C102.991 184.565 99.1551 185.692 98.2471 183.771L99.0471 176.885L101.252 172.205L107.115 172.479L107.143 172.564Z" fill="#F19662"/>
<path d="M91.1752 173.452C91.1012 176.003 93.5182 182.24 95.2202 183.89C95.8103 184.344 96.5043 184.644 97.2395 184.762C97.9747 184.88 98.7277 184.813 99.4302 184.566C101.943 183.273 98.9002 178.729 102.199 177.694C102.474 177.631 102.759 177.631 103.034 177.693C103.309 177.755 103.566 177.879 103.787 178.054C104.007 178.229 104.186 178.451 104.309 178.704C104.433 178.957 104.498 179.235 104.499 179.517C104.97 179.109 105.288 178.551 105.398 177.938C105.508 177.324 105.405 176.691 105.106 176.144C104.766 175.566 104.636 174.889 104.737 174.227C104.839 173.564 105.166 172.957 105.663 172.508C106.413 171.788 106.607 172.008 107.08 172.462C107.553 172.916 108.46 169.475 105.83 167.907C101.597 165.399 91.4512 164.013 91.1752 173.452Z" fill="#3C221E"/>
<path fill-rule="evenodd" clip-rule="evenodd" d="M100.686 179.159C100.686 179.159 93.6482 181.852 91.4412 175.526C91.4412 175.526 92.9722 184.149 96.9132 184.692C96.9132 184.692 100.913 186.115 100.537 181.692L100.686 179.159Z" fill="#321F1D"/>
<path fill-rule="evenodd" clip-rule="evenodd" d="M105.132 173.302C105.132 173.302 94.2042 175.077 91.5322 171.012C91.6017 170.527 91.7739 170.062 92.0372 169.649C92.0372 169.649 92.3322 175.014 105.137 173.303L105.132 173.302Z" fill="#291C1C"/>
<path fill-rule="evenodd" clip-rule="evenodd" d="M94.256 172.53C96.581 173.873 103.402 173.974 106.283 173.011C108.635 172.23 108.211 169.705 106.46 168.374C106.598 169.323 109.287 172.184 103.517 172.519C103.328 172.531 104.226 171.802 104.517 171.387C104.517 171.387 101.5 173.235 100.686 172.303C100.517 172.103 100.839 171.727 101.171 171.387C100.571 171.469 98.8121 172.349 98.3031 172.103C97.7721 171.842 99.403 170.675 99.403 170.675C99.403 170.675 96.2221 172.075 95.7441 171.387C95.6101 171.195 95.963 170.809 96.278 170.62C94.65 170.492 92.5391 170.92 92.1061 169.966C92.0971 170.038 92.1061 169.893 92.1061 169.966C92.2682 170.518 92.5429 171.032 92.9129 171.473C93.2829 171.914 93.7402 172.274 94.256 172.53V172.53Z" fill="#291C1C"/>
<path d="M104.736 174.148C104.736 174.148 95.6062 177.438 91.1802 173.78C91.0626 172.842 91.1819 171.89 91.5272 171.01C91.5272 171.01 93.6892 174.881 105.04 173.32L104.736 174.148Z" fill="#4E281C"/>
<path d="M104.737 174.149C104.737 174.149 94.6091 175.479 91.2371 172.479C91.198 173.024 91.1873 173.571 91.2051 174.118C91.1955 174.713 91.3649 175.298 91.6913 175.796C92.0178 176.293 92.4863 176.682 93.0361 176.91C92.7481 176.682 92.5519 176.359 92.4834 175.998C92.4148 175.638 92.4787 175.264 92.6631 174.947C92.6631 174.947 92.9441 176.72 94.0281 177.101C94.0281 177.101 93.6781 176.261 94.1351 175.926C94.1351 175.926 94.7481 177.377 95.5461 177.495C95.5461 177.495 94.5061 175.837 95.1271 175.38C95.1271 175.38 95.2491 177.389 97.0151 177.688C97.0151 177.688 96.3031 176.688 97.0261 176.16C97.0261 176.16 97.5501 177.688 98.6261 177.688C98.6261 177.688 98.1611 176.507 98.4371 175.968C98.4371 175.968 98.9261 177.173 99.8751 177.407C99.8751 177.407 99.4661 176.207 99.9061 175.771C100.089 176.162 100.372 176.499 100.725 176.746C101.079 176.994 101.492 177.144 101.922 177.182C101.922 177.182 100.705 175.794 101.622 175.082C102.625 174.664 103.669 174.351 104.737 174.149V174.149Z" fill="#4E281C"/>
<path d="M92.8911 168.366C92.8911 168.366 95.6911 164.354 103.608 166.9C103.608 166.9 101.026 166.831 100.008 166.831C98.9901 166.831 100.821 167.424 101.769 167.642C102.717 167.86 98.9901 167.485 97.7281 167.485C96.4661 167.485 94.2381 167.911 95.8011 168.148C97.3641 168.385 93.1561 168.098 92.8911 168.366Z" fill="#49241F"/>
<path d="M103.644 188.735C103.644 188.735 95.163 189.693 93.413 185.735C93.413 185.735 91.613 186.344 93.194 187.621C94.775 188.898 104.546 192.048 103.644 188.735Z" fill="#D1CECD"/>
<path d="M103.343 186.659L104.562 189.859C104.562 189.859 100.314 193.049 94.462 189.125C93.535 188.503 90.992 187.494 94.194 184.555C94.193 184.551 96.209 189.564 103.343 186.659Z" fill="#DEF1F4"/>
<path d="M94.1919 184.123C94.1919 184.123 89.753 186.592 95.092 189.969C97.3341 191.18 99.9616 191.464 102.411 190.761C102.411 190.761 97.6279 189.899 98.0019 187.461C97.1749 187.19 96.4112 186.754 95.7565 186.18C95.1019 185.607 94.5697 184.907 94.1919 184.123V184.123Z" fill="#C7DFE1"/>
<path d="M86.189 231.929C86.189 231.929 85.511 225.297 87.736 212.718C87.736 212.718 86.887 195.518 86.254 191.103C86.0403 189.018 86.461 186.916 87.461 185.074C88.828 186.967 89.98 190.683 92.367 193.074C95.026 195.734 101.545 197.523 103.329 201.853C105.113 206.183 99.512 217.368 97.873 224.87C96.564 230.892 98.613 238.505 99.008 241.361C94.789 240.9 89.433 238.498 86.189 231.929Z" fill="#BAE6F6"/>
<path d="M106.135 201.073C106.135 201.073 106.004 214.82 111.625 224.835C111.625 224.835 111.425 211.915 112.101 209.435L106.135 201.073Z" fill="#3E9FC2"/>
<path d="M120.76 210.333C120.76 210.333 131.068 203.892 132.727 203.102C133.979 202.64 135.256 202.249 136.552 201.931C136.933 201.674 141.142 199.619 141.909 200.331C142.676 201.043 139.232 203.002 138.847 203.105C138.671 203.155 139.682 203.767 139.381 204.797C139.035 205.986 137.358 207.271 135.368 207.729C134.399 207.949 133.152 207.667 131.933 208.687C130.714 209.707 121.979 216.853 121.459 217.179C120.939 217.505 120.76 210.333 120.76 210.333Z" fill="#F5A675"/>
<path fill-rule="evenodd" clip-rule="evenodd" d="M111.679 193.213C111.679 193.213 102.879 192.124 104.417 200.234C104.417 200.234 113.089 217.08 119.417 218.015C119.417 218.015 124.865 217.384 122.376 211.55C122.375 211.549 114.771 195.515 111.679 193.213Z" fill="#9FDAF2"/>
<path d="M111.679 193.213C114.77 195.513 122.379 211.55 122.379 211.55C123.696 214.633 122.794 216.263 121.649 217.114L121.58 217.125C115.254 216.191 104.74 195.348 104.74 195.348C104.029 191.593 107.634 193.279 109.12 192.275C109.744 191.587 111.679 193.213 111.679 193.213Z" fill="#77BED8"/>
<path d="M121.552 209.842L122.125 211.022C122.125 211.022 132.184 204.213 133.425 203.922C134.903 203.478 136.321 202.852 137.645 202.059C138.145 201.686 140.865 200.23 140.865 200.23C139.154 200.583 137.514 201.218 136.013 202.111C136.013 202.111 132.427 202.8 131.107 204.001L121.552 209.842Z" fill="#E48652"/>
<path opacity="0.1" d="M265.978 277.409C275.503 277.409 283.225 274.653 283.225 271.254C283.225 267.855 275.503 265.099 265.978 265.099C256.453 265.099 248.731 267.855 248.731 271.254C248.731 274.653 256.453 277.409 265.978 277.409Z" fill="#030504"/>
<path d="M275.547 266.561C275.547 266.561 276.389 270.327 276.062 271.029C275.735 271.731 273.84 272.971 271.711 272.783C269.582 272.595 266.751 270.678 265.254 270.607C263.757 270.536 260.341 268.08 262.354 266.841C264.367 265.602 268.554 266.935 270.916 265.882L275.547 266.561Z" fill="#532211"/>
<path d="M276.877 213.819C277.769 216.402 278.225 219.116 278.229 221.849C278.388 227.017 275.367 240.454 275.367 240.454C275.367 240.454 277.281 244.429 276.801 246.735C276.321 249.041 274.81 259.935 275.049 262.235C275.288 264.535 275.765 266.767 275.765 266.767C275.765 266.767 271.19 268.511 268.659 266.29L263.839 237.59L265.35 214.69L276.877 213.819Z" fill="#5D1E12"/>
<path d="M267.706 267.619C267.706 267.619 268.883 270.948 268.619 272.019C268.383 272.707 267.941 273.306 267.352 273.734C266.764 274.163 266.059 274.4 265.331 274.414C263.565 274.495 262.431 273.338 261.516 273.358C260.601 273.378 253.885 275.022 252.627 269.685C252.627 269.685 252.527 268.508 254.007 268.264C255.487 268.02 260.968 268.264 261.821 267.412L267.706 267.619Z" fill="#532211"/>
<path d="M256.622 216.206C256.622 216.206 254.788 219.938 257.408 244.822C257.712 252.683 258.809 260.493 260.682 268.134C260.682 268.134 265.004 270.426 267.882 267.676C267.882 267.676 266.9 260.538 267.096 259.098C267.292 257.658 269.584 248.555 266.048 245.019C266.048 245.019 268.733 233.297 269.322 231.66C269.911 230.023 273.392 224.253 272.372 218.26L256.622 216.206Z" fill="#702013"/>
<path d="M255.194 188.97C253.501 188.498 252.052 187.398 251.143 185.894L254.416 183.472L256.947 186.221L255.194 188.97Z" fill="#FAB4A0"/>
<path d="M262.351 188.668L257.44 185.998C256.817 186.221 256.272 186.621 255.873 187.149C255.474 187.677 255.238 188.31 255.193 188.97L259.125 193.031C259.125 193.031 260.219 189.705 262.351 188.668Z" fill="#F47D50"/>
<path d="M254.969 184.718L240.477 193.757C240.409 193.799 240.333 193.827 240.254 193.837C240.174 193.847 240.093 193.839 240.017 193.815C239.941 193.79 239.871 193.749 239.812 193.695C239.754 193.64 239.707 193.574 239.677 193.5L234.545 181.034C234.494 180.91 234.49 180.772 234.534 180.646C234.577 180.519 234.665 180.413 234.781 180.347L250.003 171.647C250.073 171.607 250.15 171.583 250.23 171.577C250.31 171.57 250.39 171.581 250.465 171.609C250.54 171.636 250.608 171.68 250.665 171.737C250.721 171.793 250.765 171.862 250.792 171.937L255.192 184.067C255.234 184.185 255.235 184.313 255.195 184.432C255.154 184.55 255.075 184.651 254.969 184.718V184.718Z" fill="#2A2A2A"/>
<path d="M250.194 172.596L254.406 184.07C254.429 184.133 254.43 184.202 254.408 184.266C254.386 184.33 254.343 184.384 254.286 184.42L240.724 192.895C240.688 192.918 240.647 192.932 240.605 192.938C240.562 192.943 240.519 192.939 240.478 192.926C240.438 192.913 240.4 192.891 240.369 192.862C240.337 192.833 240.312 192.797 240.296 192.758L235.469 180.997C235.442 180.931 235.44 180.858 235.463 180.79C235.486 180.723 235.533 180.666 235.594 180.631L249.772 172.444C249.809 172.423 249.85 172.41 249.893 172.406C249.935 172.402 249.978 172.408 250.018 172.422C250.059 172.437 250.095 172.46 250.125 172.49C250.156 172.52 250.179 172.556 250.194 172.596V172.596Z" fill="#BEE7F7"/>
<path d="M257.44 185.998L256.677 182.888C256.677 182.888 255.662 181.631 254.935 181.543C254.208 181.455 252.046 181.389 252.09 181.764C252.134 182.139 253.117 182.69 254.765 183.043C254.396 184.036 254.244 185.096 254.318 186.153C254.605 187.145 255.194 188.971 255.194 188.971C255.194 188.971 256.191 186.682 257.44 185.998Z" fill="#FAB4A0"/>
<path d="M265.038 168.026C263.238 168.471 261.532 169.779 261.449 171.615C261.366 173.451 261.658 180.963 262.784 181.172C263.91 181.381 267.792 179.002 269.169 176.54C270.546 174.078 269.587 166.896 265.038 168.026Z" fill="#FAB4A0"/>
<path d="M273.288 177.536L272.859 184.044C272.859 184.044 270.824 185.865 265.2 185.41C265.196 184.392 265.085 183.378 264.869 182.384C264.442 181.305 263.935 180.26 263.352 179.257C263.352 179.257 270.369 176.625 273.288 177.536Z" fill="#FAB4A0"/>
<path d="M270.277 183.413C270.277 183.413 274.769 180.63 276.996 180.913C279.223 181.196 281.767 186.913 281.131 191.17C280.495 195.427 277.631 201.308 277.712 203.415C277.793 205.522 278.512 213.672 277.791 214.388C277.07 215.104 274.611 218.602 267.491 219.477C260.371 220.352 256.677 218.085 256.161 216.577C255.645 215.069 256.439 211.448 256.916 210.377C258.075 206.637 258.428 202.694 257.95 198.808C257.195 194.037 257.058 189.467 262.911 186.008L270.277 183.413Z" fill="#F26E3D"/>
<path d="M274.714 170.667C274.763 169.896 274.558 169.131 274.131 168.487C273.704 167.844 273.078 167.358 272.349 167.104C269.691 166.023 264.23 165.118 261.631 167.904C261.631 167.904 260.58 169.116 264.201 170.664C264.245 171.056 264.209 171.452 264.093 171.829C263.977 172.206 263.785 172.554 263.529 172.854C262.624 174.139 264.374 175.003 264.697 175.92C265.02 176.837 266.069 181.41 267.559 181.41C269.049 181.41 273.312 180.797 273.604 180.271C273.896 179.745 278.305 172.915 274.714 170.667Z" fill="#643B36"/>
<path d="M263.762 175.222C263.762 175.222 263.962 173.499 265.339 173.995C266.716 174.491 265.631 176.828 264.346 177.237L263.762 175.222Z" fill="#FAB4A0"/>
<path d="M274.321 182.733L273.334 181.297C273.334 181.297 272.366 183.797 262.634 184.003C262.526 184.071 262.443 184.173 262.399 184.294C262.355 184.414 262.353 184.546 262.392 184.668C262.553 185.068 262.916 185.998 262.916 185.998C263.377 185.866 263.853 185.795 264.332 185.787C264.854 185.828 272.064 186.502 274.321 182.733Z" fill="#F29773"/>
<path d="M244.388 193.802C244.593 192.546 244.593 191.266 244.388 190.01C244 188.865 243.226 188.562 242.923 187.721C242.62 186.88 242.183 183.109 241.375 183.143C240.567 183.177 241.075 187.082 240.702 187.553C240.329 188.024 237.975 190.145 238.076 190.886C238.177 191.627 238.514 193.453 239.086 193.802C239.907 194.589 240.653 195.45 241.317 196.373C242.248 195.411 243.277 194.549 244.388 193.802Z" fill="#FAB4A0"/>
<path d="M262.064 191.955C260.064 189.755 258.208 190.348 257.364 191.555C256.52 192.762 250.615 202.562 250.615 202.562C250.615 202.562 247.12 195.934 244.389 193.805C244.389 193.805 241.416 194.689 241.135 196.095C240.854 197.501 247.201 210.155 248.808 210.115C250.415 210.075 251.5 210.798 254.271 208.307C257.042 205.816 261.193 199.107 262.351 196.818C262.743 196.056 262.923 195.203 262.873 194.347C262.822 193.492 262.543 192.666 262.064 191.955V191.955Z" fill="#F47D50"/>
<path d="M236.293 295.488C236.293 295.488 237.229 300.343 234.548 301.428C234.548 301.428 232.28 302.69 229.131 300.293C229.131 300.293 220.52 298.312 220.781 294.213C220.781 294.213 220.411 291.413 225.881 292.732L230.657 293.338L236.293 295.488Z" fill="#003551"/>
<path d="M229.131 300.293C232.28 302.693 234.194 301.781 234.194 301.781C235.802 301.415 235.831 300.293 236.234 299.248C235.125 299.931 233.849 300.293 232.547 300.295C231.245 300.297 229.968 299.938 228.857 299.258C223.967 297.679 221.579 296.446 220.818 293.815C220.781 293.945 220.768 294.081 220.781 294.215C220.52 298.312 229.131 300.293 229.131 300.293Z" fill="#88CFCF"/>
<path d="M225.882 292.732L230.658 293.338L234.531 294.812C234.431 295.86 234.859 297.712 233.8 298.258C231.209 299.583 228.948 297.453 223.419 295.292C222.42 294.992 221.53 294.406 220.859 293.606C221.115 292.866 222.111 291.818 225.882 292.732Z" fill="#003E5E"/>
<path d="M247.015 290.108C247.015 290.108 247.949 294.96 245.266 296.04C245.266 296.04 242.994 297.309 239.845 294.911C239.845 294.911 231.236 292.928 231.495 288.831C231.495 288.831 231.126 286.022 236.595 287.345L241.371 287.956L247.015 290.108Z" fill="#003551"/>
<path d="M239.846 294.911C242.995 297.311 244.909 296.397 244.909 296.397C246.518 296.031 246.55 294.913 246.951 293.868C245.842 294.55 244.566 294.911 243.264 294.912C241.962 294.913 240.685 294.554 239.575 293.874C234.682 292.298 232.296 291.074 231.535 288.433C231.498 288.563 231.484 288.698 231.495 288.833C231.236 292.928 239.846 294.911 239.846 294.911Z" fill="#88CFCF"/>
<path d="M236.6 287.345L241.376 287.956L245.251 289.432C245.151 290.479 245.576 292.332 244.516 292.874C241.925 294.203 239.663 292.074 234.142 289.91C233.141 289.612 232.249 289.026 231.578 288.226C231.832 287.489 232.826 286.432 236.6 287.345Z" fill="#003E5E"/>
<path fill-rule="evenodd" clip-rule="evenodd" d="M246.952 290.554C247.331 287.363 247.935 270.989 247.779 268.081C247.6 264.746 246.214 259.981 245.702 257.136C245.162 254.143 246.002 250.605 246.67 245.993C249.019 242.718 246.958 230.723 242.985 227.093L237.085 226.548C235.588 229.361 234.721 232.466 234.544 235.648C233.796 242.398 234.464 249.23 236.506 255.707C236.767 256.471 237.223 257.764 237.533 258.857C238.028 260.488 238.396 262.155 238.633 263.843C238.833 265.43 239.186 267.252 239.657 270.403C240.067 273.203 240.268 285.831 240.081 289.93C240.537 292.37 245.564 292.801 246.952 290.554Z" fill="#1A2025"/>
<path d="M240.085 289.932C240.085 289.932 240.725 273.466 238.835 265.232C238.312 261.631 237.422 258.093 236.178 254.673C234.349 248.508 233.794 242.035 234.546 235.649C234.546 235.649 236.371 250.349 239.246 257.112C242.663 265.157 243.673 273.778 243.704 292.023C242.957 292.099 242.206 291.938 241.556 291.562C240.907 291.187 240.392 290.617 240.085 289.932Z" fill="#111417"/>
<path fill-rule="evenodd" clip-rule="evenodd" d="M246.952 290.553C247.331 287.362 247.935 270.988 247.779 268.08C247.6 264.745 246.214 259.98 245.702 257.135C245.162 254.142 245.893 251.363 246.555 246.756C250.462 242.846 246.725 234.449 243.555 230.267C243.555 230.267 243.13 241.607 242.115 249.031C241.093 256.531 245.643 268.366 245.922 271.643C246.099 273.706 245.622 284.255 245.248 291.779C245.943 291.586 246.548 291.151 246.952 290.553V290.553Z" fill="#1D282F"/>
<path fill-rule="evenodd" clip-rule="evenodd" d="M236.256 296.897C236.744 293.723 237.893 277.378 237.834 274.465C237.767 271.128 236.544 266.317 236.127 263.457C235.686 260.45 236.649 256.937 237.468 252.357C243.937 247.672 241.906 238.514 238.061 234.748L228.543 232.599C226.949 235.36 225.977 238.436 225.693 241.611C224.94 247.53 225.673 252.921 226.985 261.726C227.105 262.526 227.636 263.805 227.909 264.908C228.346 266.555 228.657 268.234 228.84 269.928C228.983 271.528 229.28 273.355 229.64 276.521C229.961 279.336 229.74 291.962 229.412 296.049C229.787 298.498 234.796 299.096 236.256 296.897Z" fill="#1A2025"/>
<path d="M229.414 296.041C229.414 296.041 230.604 279.607 228.993 271.319C228.592 267.703 227.822 264.138 226.693 260.679C225.729 254.369 225.394 247.979 225.693 241.603C225.693 241.603 227.029 256.357 229.673 263.213C232.819 271.365 233.544 280.019 232.963 298.251C232.214 298.302 231.468 298.116 230.831 297.72C230.194 297.323 229.698 296.736 229.414 296.041V296.041Z" fill="#111417"/>
<path fill-rule="evenodd" clip-rule="evenodd" d="M236.256 296.894C236.744 293.72 237.893 277.375 237.834 274.462C237.767 271.125 236.544 266.314 236.127 263.454C235.686 260.447 236.649 256.154 237.468 251.573C243.256 247.381 242.238 240.388 239.204 236.1L234.872 236.525C234.872 236.525 231.608 247.757 232.811 255.233C234.014 262.709 235.686 274.676 235.857 277.961C235.964 280.031 235.136 290.552 234.51 298.061C235.211 297.891 235.83 297.477 236.256 296.894V296.894Z" fill="#1D282F"/>
<path d="M228.088 207.192C228.088 207.192 244.534 196.527 247.702 200.839C247.702 200.839 251.295 206.139 247.002 213.627C247.002 213.627 242.424 223.7 246.182 230.277C246.798 232.178 247.256 234.127 247.551 236.103C247.551 236.103 240.225 242.977 233.143 241.346C233.143 241.346 226.53 239.602 226.243 237.388L227.363 232.594C228.121 229.357 230.739 228.983 228.211 219.512C228.217 219.513 223.685 210.411 228.088 207.192Z" fill="#A3DCE9"/>
<path d="M228.217 219.513C230.745 228.984 228.131 229.361 227.369 232.595C226.649 235.65 226.249 237.389 226.249 237.389C226.529 239.603 233.149 241.347 233.149 241.347C233.342 241.374 232.949 241.33 233.149 241.347L233.407 240.047C235.879 229.269 233.175 223.089 233.175 223.089C230.075 209.906 238.134 206.738 238.134 206.738C237.992 206.678 233.128 204.352 232.986 204.304C230.166 205.843 228.091 207.191 228.091 207.191C222.075 211.41 228.217 219.513 228.217 219.513Z" fill="#82CFDD"/>
<path d="M229.909 187.248C229.909 187.248 229.584 190.412 230.673 192.015C230.656 192.559 230.548 193.095 230.354 193.603C230.09 194.049 229.644 195.076 231.609 199.178C231.609 199.178 231.662 201.93 236.53 198.946C241.398 195.962 242.922 194.417 242.885 192.412C242.848 190.407 242.553 187.027 241.785 185.67C240.859 184.352 239.467 183.434 237.89 183.103C236.202 182.835 234.472 183.052 232.902 183.728C231.46 184.493 229.947 185.793 229.909 187.248Z" fill="#F5A675"/>
<path fill-rule="evenodd" clip-rule="evenodd" d="M242.783 203.337C243.177 205.705 235.376 207.594 233.183 205.421C232.993 202.65 234.934 203.271 234.166 199.227L240.02 195.656L241.808 195.046C240.955 198.5 241.434 200.224 242.783 203.337Z" fill="#F19662"/>
<path d="M230.446 185.361C230.446 185.361 229.788 188.496 232.501 194.104C232.501 194.104 235.847 198.745 232.601 200.294C232.601 200.294 234.356 200.731 236.75 198.637L239.658 194.122C239.658 194.122 235.862 183.071 230.446 185.361Z" fill="#F19662"/>
<path d="M232.936 202.748L231.722 205.848C231.722 205.848 236.268 208.848 242.353 204.966C242.752 204.716 243.07 204.357 243.269 203.93C243.468 203.504 243.539 203.029 243.474 202.563C243.41 202.097 243.212 201.66 242.904 201.304C242.597 200.948 242.193 200.688 241.741 200.556C241.741 200.556 240.53 205.424 232.936 202.748Z" fill="#C3E8F2"/>
<path d="M247.555 236.103C247.25 234.128 246.793 232.181 246.186 230.277C242.428 223.7 247.006 213.627 247.006 213.627C248.57 211.082 249.285 208.105 249.047 205.127C245.347 206.919 238.275 209.734 236.374 211.633C233.929 214.083 235.565 219.746 235.565 219.746C239.573 228.081 234.456 241.551 234.456 241.551C241.337 242.634 247.805 238.322 247.805 238.322L247.555 236.103Z" fill="#C3E8F2"/>
<path fill-rule="evenodd" clip-rule="evenodd" d="M231.996 183.544C231.996 183.544 226.896 186.198 232.337 193.49C232.337 193.49 236.426 195.34 236.374 198.5C236.429 199.533 236.429 200.567 236.374 201.6C236.154 205.061 235.04 210.96 235.201 211.636C235.201 211.636 245.072 210.413 244.83 207.661C244.706 205.11 244.795 202.553 245.095 200.016C245.479 194.784 246.671 190.608 245.719 188.072C245.719 188.072 244.247 180.133 236.893 181.461C236.893 181.461 235.173 181.555 231.993 183.547L231.996 183.544Z" fill="#3C221E"/>
<path d="M232.337 193.49L235.019 195.552C235.019 195.552 236.519 193.38 237.613 194.481C237.613 194.481 239.92 196.812 234.107 200.013L233.807 196.752L232.337 193.49Z" fill="#F19662"/>
<path d="M230.492 185.048C230.492 185.048 228.751 187.404 230.901 191.242C230.901 191.242 230.481 186.721 231.609 185.593C232.348 187.206 232.601 189 232.336 190.755C232.336 190.755 232.976 185.944 233.512 185.412C234.017 187.312 234.172 189.288 233.97 191.243C233.97 191.243 236.161 187.559 236.161 185.049C236.629 185.631 236.972 186.303 237.168 187.023C237.365 187.743 237.411 188.496 237.304 189.235C237.948 187.923 238.345 186.504 238.477 185.049C238.477 185.049 241.084 188.187 240.307 191.668C241.203 189.588 241.558 187.314 241.336 185.06C241.336 185.06 243.807 189.98 242.252 193.977C243.357 191.976 243.895 189.711 243.807 187.426C244.669 190.1 244.803 192.955 244.195 195.698C244.195 195.698 248.03 189.769 244.195 184.462C244.195 184.462 241.376 179.162 234.347 182.27C234.346 182.27 231.223 183.396 230.492 185.048Z" fill="#49241F"/>
<path fill-rule="evenodd" clip-rule="evenodd" d="M228.522 209.281C228.522 209.281 226.666 209.442 225.742 214.707C225.742 214.707 224.268 220.792 223.535 223.23C222.802 225.668 220.8 229.224 220.175 230.896C219.325 232.988 218.62 235.136 218.065 237.324C217.992 238.385 213.35 242.588 216.394 244.924C216.394 244.924 218.394 245.771 219.685 244.646C219.707 244.486 219.694 244.322 219.647 244.167C219.601 244.012 219.521 243.869 219.414 243.748C219.307 243.626 219.176 243.529 219.028 243.463C218.88 243.397 218.72 243.363 218.558 243.364C218.518 242.997 218.561 242.625 218.683 242.277C218.805 241.928 219.004 241.611 219.264 241.349C220.13 240.59 219.811 239.179 219.864 238.468C219.864 238.468 225.586 231.897 226.49 229.042C226.49 229.042 229.39 220.249 230.637 219.156C230.632 219.156 234.275 208.314 228.522 209.281Z" fill="#F19662"/>
<path d="M218.558 243.364C218.518 242.997 218.561 242.625 218.683 242.277C218.805 241.928 219.003 241.611 219.264 241.349C220.13 240.59 219.811 239.179 219.864 238.468C219.864 238.468 225.586 231.897 226.49 229.042C226.49 229.042 229.39 220.249 230.637 219.156C231.139 217.591 231.491 215.981 231.689 214.349C229.791 216.988 228.202 219.835 226.953 222.836C224.79 228.357 222.143 233.704 221.329 234.513C220.515 235.322 218.355 238.724 218.355 239.972C218.355 241.22 216.819 242.862 218.355 244.395C218.581 244.622 218.826 244.831 219.085 245.019C219.303 244.926 219.505 244.8 219.685 244.646C219.707 244.486 219.694 244.322 219.647 244.167C219.601 244.012 219.521 243.869 219.414 243.748C219.307 243.626 219.175 243.529 219.028 243.463C218.88 243.397 218.72 243.363 218.558 243.364V243.364Z" fill="#F5A675"/>
<path d="M229.014 207.719C229.014 207.719 225.805 207.762 224.669 217.74L221.544 225.588C221.544 225.588 222.821 228.688 227.113 227.997C227.113 227.995 239.049 207.262 229.014 207.719Z" fill="#A3DCE9"/>
<path d="M221.544 225.592L224.669 217.744C224.669 217.744 225.205 208.044 229.014 207.723C229.599 207.652 230.192 207.719 230.746 207.919C231.3 208.118 231.8 208.445 232.205 208.873C232.205 208.873 226.958 209.836 226.669 219.951L224.21 227.846C223.602 227.749 223.032 227.488 222.563 227.091C222.093 226.694 221.74 226.175 221.544 225.592V225.592Z" fill="#82CFDD"/>
<path d="M232.966 210.922C231.936 213.612 228.966 219.402 228.748 221.295C228.384 223.473 227.885 225.625 227.255 227.741C228.217 226.026 233.588 216.134 232.966 210.922Z" fill="#C3E8F2"/>
</g>
<defs>
<clipPath id="clip0">
<rect width="343" height="308" fill="white"/>
</clipPath>
</defs>
</svg>
